<svg id="Layer_1" data-name="Layer 1" xmlns="http://www.w3.org/2000/svg" xmlns:xlink="http://www.w3.org/1999/xlink" viewBox="0 0 995.46 995.46"><defs><style>.cls-1{fill:#ac8171;stroke:#c69b8d;stroke-miterlimit:10;stroke-width:17.05px;}.cls-2{fill:url(#linear-gradient);}.cls-3{fill:url(#linear-gradient-2);}.cls-4{fill:url(#linear-gradient-3);}.cls-5{fill:url(#linear-gradient-4);}.cls-6{fill:#c9c7c5;}</style><linearGradient id="linear-gradient" x1="946.66" y1="17.08" x2="946.66" y2="978.4" gradientUnits="userSpaceOnUse"><stop offset="0" stop-color="#a37162"/><stop offset="1" stop-color="#896256"/></linearGradient><linearGradient id="linear-gradient-2" x1="48.79" y1="978.4" x2="48.79" y2="17.08" xlink:href="#linear-gradient"/><linearGradient id="linear-gradient-3" x1="550.16" y1="-109.61" x2="550.16" y2="851.71" gradientTransform="translate(868.94 396.79) rotate(90)" xlink:href="#linear-gradient"/><linearGradient id="linear-gradient-4" x1="468.08" y1="861.9" x2="468.08" y2="-99.41" gradientTransform="translate(879.13 -419.26) rotate(90)" xlink:href="#linear-gradient"/></defs><rect class="cls-1" x="8.53" y="8.53" width="978.4" height="978.4"/><polygon class="cls-2" points="915.4 80.24 978.35 17.08 978.39 978.4 914.92 915.43 915.4 80.24"/><polygon class="cls-3" points="80.05 80.24 17.1 17.08 17.05 978.4 80.53 915.43 80.05 80.24"/><polygon class="cls-4" points="915.39 915.69 978.55 978.64 17.23 978.69 80.2 915.21 915.39 915.69"/><polygon class="cls-5" points="915.39 80.08 978.55 17.13 17.23 17.08 80.2 80.56 915.39 80.08"/><rect class="cls-6" x="80.2" y="80.56" width="835.19" height="835.13"/></svg>