<svg xmlns="http://www.w3.org/2000/svg" xmlns:xlink="http://www.w3.org/1999/xlink" viewBox="0 0 1087.74 1089.27"><defs><style>.cls-1{fill:#ac8171;stroke:#c69b8d;stroke-miterlimit:10;stroke-width:17.05px;}.cls-2{fill:url(#linear-gradient);}.cls-3{fill:url(#linear-gradient-2);}.cls-4{fill:url(#linear-gradient-3);}.cls-5{fill:url(#linear-gradient-4);}.cls-6{fill:#c9c7c5;}.cls-7{fill:#f7f3ed;}.cls-8{fill:#6fcbdc;opacity:0.8;}</style><linearGradient id="linear-gradient" x1="989.4" y1="66.36" x2="989.4" y2="1027.67" gradientUnits="userSpaceOnUse"><stop offset="0" stop-color="#a37162"/><stop offset="1" stop-color="#896256"/></linearGradient><linearGradient id="linear-gradient-2" x1="91.54" y1="1027.67" x2="91.54" y2="66.36" xlink:href="#linear-gradient"/><linearGradient id="linear-gradient-3" x1="585.16" y1="-74.61" x2="585.16" y2="886.71" gradientTransform="translate(946.68 411.06) rotate(90)" xlink:href="#linear-gradient"/><linearGradient id="linear-gradient-4" x1="503.08" y1="896.9" x2="503.08" y2="-64.41" gradientTransform="translate(956.88 -404.98) rotate(90)" xlink:href="#linear-gradient"/></defs><g id="Layer_1" data-name="Layer 1"><rect class="cls-1" x="51.27" y="57.8" width="978.4" height="978.4"/><polygon class="cls-2" points="958.15 129.51 1021.1 66.36 1021.14 1027.67 957.67 964.7 958.15 129.51"/><polygon class="cls-3" points="122.8 129.51 59.84 66.36 59.8 1027.67 123.28 964.7 122.8 129.51"/><polygon class="cls-4" points="958.14 964.97 1021.29 1027.92 59.98 1027.96 122.95 964.49 958.14 964.97"/><polygon class="cls-5" points="958.14 129.35 1021.29 66.4 59.98 66.36 122.95 129.83 958.14 129.35"/><rect class="cls-6" x="122.88" y="129.43" width="835.19" height="835.13"/></g><g id="washi_blue" data-name="washi blue"><polygon class="cls-7" points="1016.82 290.33 770.95 76.28 841.87 0 1087.74 214.04 1016.82 290.33"/><polygon class="cls-8" points="792.48 95.02 780.33 84.44 851.25 8.16 863.4 18.74 792.48 95.02"/><polygon class="cls-8" points="815.3 114.89 803.15 104.31 874.07 28.03 886.22 38.61 815.3 114.89"/><polygon class="cls-8" points="839.98 136.38 827.83 125.8 898.75 49.52 910.9 60.09 839.98 136.38"/><polygon class="cls-8" points="864.95 158.12 852.8 147.54 923.72 71.25 935.87 81.83 864.95 158.12"/><polygon class="cls-8" points="887.77 177.98 875.62 167.41 946.54 91.12 958.69 101.7 887.77 177.98"/><polygon class="cls-8" points="911.71 198.82 899.56 188.24 970.48 111.96 982.63 122.53 911.71 198.82"/><polygon class="cls-8" points="935.82 219.81 923.67 209.23 994.59 132.95 1006.74 143.52 935.82 219.81"/><polygon class="cls-8" points="958.93 239.93 946.78 229.35 1017.7 153.07 1029.85 163.65 958.93 239.93"/><polygon class="cls-8" points="983.35 261.18 971.2 250.61 1042.12 174.32 1054.27 184.9 983.35 261.18"/><polygon class="cls-8" points="1007.11 281.87 994.96 271.29 1065.88 195.01 1078.03 205.58 1007.11 281.87"/><polygon class="cls-8" points="1078.68 223.79 1067.83 235.46 821.96 21.42 832.81 9.75 1078.68 223.79"/><polygon class="cls-8" points="1057.99 246.05 1047.14 257.72 801.26 43.68 812.12 32.01 1057.99 246.05"/><polygon class="cls-8" points="1036.15 269.54 1025.3 281.21 779.42 67.17 790.28 55.5 1036.15 269.54"/><polygon class="cls-7" points="245.87 1089.27 0 875.23 70.92 798.94 316.79 1012.99 245.87 1089.27"/><polygon class="cls-8" points="21.52 893.97 9.37 883.39 80.3 807.1 92.45 817.68 21.52 893.97"/><polygon class="cls-8" points="44.35 913.84 32.2 903.26 103.12 826.97 115.27 837.55 44.35 913.84"/><polygon class="cls-8" points="69.03 935.32 56.88 924.75 127.8 848.46 139.95 859.04 69.03 935.32"/><polygon class="cls-8" points="94 957.06 81.85 946.48 152.77 870.2 164.92 880.77 94 957.06"/><polygon class="cls-8" points="116.82 976.93 104.67 966.35 175.59 890.06 187.74 900.64 116.82 976.93"/><polygon class="cls-8" points="140.75 997.76 128.6 987.18 199.53 910.9 211.68 921.48 140.75 997.76"/><polygon class="cls-8" points="164.87 1018.75 152.72 1008.17 223.64 931.89 235.79 942.47 164.87 1018.75"/><polygon class="cls-8" points="187.98 1038.87 175.83 1028.3 246.75 952.01 258.9 962.59 187.98 1038.87"/><polygon class="cls-8" points="212.4 1060.13 200.24 1049.55 271.17 973.26 283.32 983.84 212.4 1060.13"/><polygon class="cls-8" points="236.15 1080.81 224 1070.23 294.92 993.95 307.07 1004.53 236.15 1080.81"/><polygon class="cls-8" points="307.73 1022.73 296.88 1034.41 51.01 820.36 61.86 808.69 307.73 1022.73"/><polygon class="cls-8" points="287.04 1044.99 276.19 1056.67 30.31 842.62 41.16 830.95 287.04 1044.99"/><polygon class="cls-8" points="265.2 1068.48 254.35 1080.16 8.47 866.11 19.32 854.44 265.2 1068.48"/></g></svg>