<svg xmlns="http://www.w3.org/2000/svg" xmlns:xlink="http://www.w3.org/1999/xlink" viewBox="0 0 1084.44 1089.9"><defs><style>.cls-1{fill:#ac8171;stroke:#c69b8d;stroke-miterlimit:10;stroke-width:17.05px;}.cls-2{fill:url(#linear-gradient);}.cls-3{fill:url(#linear-gradient-2);}.cls-4{fill:url(#linear-gradient-3);}.cls-5{fill:url(#linear-gradient-4);}.cls-6{fill:#c9c7c5;}.cls-7{fill:#f7f3ed;}.cls-8{fill:#a88aa8;opacity:0.8;}</style><linearGradient id="linear-gradient" x1="987.63" y1="66.36" x2="987.63" y2="1027.67" gradientUnits="userSpaceOnUse"><stop offset="0" stop-color="#a37162"/><stop offset="1" stop-color="#896256"/></linearGradient><linearGradient id="linear-gradient-2" x1="89.77" y1="1027.67" x2="89.77" y2="66.36" xlink:href="#linear-gradient"/><linearGradient id="linear-gradient-3" x1="585.16" y1="-74.61" x2="585.16" y2="886.71" gradientTransform="translate(944.91 411.06) rotate(90)" xlink:href="#linear-gradient"/><linearGradient id="linear-gradient-4" x1="503.08" y1="896.9" x2="503.08" y2="-64.41" gradientTransform="translate(955.11 -404.98) rotate(90)" xlink:href="#linear-gradient"/></defs><g id="Layer_1" data-name="Layer 1"><rect class="cls-1" x="49.51" y="57.8" width="978.4" height="978.4"/><polygon class="cls-2" points="956.38 129.51 1019.33 66.36 1019.37 1027.67 955.9 964.7 956.38 129.51"/><polygon class="cls-3" points="121.03 129.51 58.08 66.36 58.03 1027.67 121.51 964.7 121.03 129.51"/><polygon class="cls-4" points="956.37 964.97 1019.53 1027.92 58.21 1027.96 121.18 964.49 956.37 964.97"/><polygon class="cls-5" points="956.37 129.35 1019.53 66.4 58.21 66.36 121.18 129.83 956.37 129.35"/><rect class="cls-6" x="121.11" y="129.43" width="835.19" height="835.13"/></g><g id="washi_purple" data-name="washi purple"><polygon class="cls-7" points="1014.72 291.57 769.49 77.49 839.21 0 1084.44 214.08 1014.72 291.57"/><polygon class="cls-8" points="790.96 96.23 778.84 85.65 848.56 8.16 860.68 18.74 790.96 96.23"/><polygon class="cls-8" points="813.73 116.1 801.61 105.52 871.32 28.04 883.44 38.62 813.73 116.1"/><polygon class="cls-8" points="838.34 137.59 826.22 127.02 895.94 49.53 908.06 60.1 838.34 137.59"/><polygon class="cls-8" points="863.25 159.33 851.13 148.75 920.84 71.27 932.96 81.84 863.25 159.33"/><polygon class="cls-8" points="886.01 179.2 873.89 168.63 943.61 91.14 955.72 101.72 886.01 179.2"/><polygon class="cls-8" points="909.88 200.04 897.76 189.46 967.48 111.97 979.6 122.55 909.88 200.04"/><polygon class="cls-8" points="933.93 221.04 921.81 210.46 991.52 132.97 1003.64 143.55 933.93 221.04"/><polygon class="cls-8" points="956.98 241.16 944.86 230.58 1014.58 153.09 1026.7 163.67 956.98 241.16"/><polygon class="cls-8" points="981.33 262.42 969.21 251.84 1038.93 174.35 1051.05 184.93 981.33 262.42"/><polygon class="cls-8" points="1005.03 283.11 992.91 272.53 1062.63 195.04 1074.75 205.62 1005.03 283.11"/><polygon class="cls-8" points="1075.53 223.98 1064.87 235.84 819.63 21.76 830.3 9.9 1075.53 223.98"/><polygon class="cls-8" points="1055.19 246.59 1044.52 258.45 799.29 44.37 809.96 32.51 1055.19 246.59"/><polygon class="cls-8" points="1033.72 270.45 1023.05 282.31 777.82 68.23 788.49 56.37 1033.72 270.45"/><polygon class="cls-7" points="245.23 1089.9 0 875.82 69.72 798.33 314.95 1012.41 245.23 1089.9"/><polygon class="cls-8" points="21.47 894.56 9.35 883.98 79.07 806.49 91.19 817.07 21.47 894.56"/><polygon class="cls-8" points="44.23 914.43 32.12 903.85 101.83 826.36 113.95 836.94 44.23 914.43"/><polygon class="cls-8" points="68.85 935.92 56.73 925.34 126.45 847.85 138.57 858.43 68.85 935.92"/><polygon class="cls-8" points="93.76 957.66 81.64 947.08 151.35 869.59 163.47 880.17 93.76 957.66"/><polygon class="cls-8" points="116.52 977.53 104.4 966.95 174.11 889.46 186.23 900.04 116.52 977.53"/><polygon class="cls-8" points="140.39 998.37 128.27 987.79 197.99 910.3 210.1 920.88 140.39 998.37"/><polygon class="cls-8" points="164.44 1019.37 152.32 1008.79 222.03 931.3 234.15 941.88 164.44 1019.37"/><polygon class="cls-8" points="187.49 1039.49 175.37 1028.91 245.09 951.42 257.21 962 187.49 1039.49"/><polygon class="cls-8" points="211.84 1060.75 199.72 1050.17 269.44 972.68 281.56 983.26 211.84 1060.75"/><polygon class="cls-8" points="235.54 1081.43 223.42 1070.86 293.14 993.37 305.25 1003.95 235.54 1081.43"/><polygon class="cls-8" points="306.04 1022.31 295.37 1034.16 50.14 820.09 60.81 808.23 306.04 1022.31"/><polygon class="cls-8" points="285.7 1044.92 275.03 1056.78 29.8 842.7 40.47 830.84 285.7 1044.92"/><polygon class="cls-8" points="264.23 1068.78 253.56 1080.64 8.33 866.56 19 854.7 264.23 1068.78"/></g></svg>