<svg xmlns="http://www.w3.org/2000/svg" xmlns:xlink="http://www.w3.org/1999/xlink" viewBox="0 0 1040.02 1040.02"><defs><style>.cls-1{fill:#ac8171;stroke:#c69b8d;stroke-miterlimit:10;stroke-width:17.82px;}.cls-2{fill:url(#linear-gradient);}.cls-3{fill:url(#linear-gradient-2);}.cls-4{fill:url(#linear-gradient-3);}.cls-5{fill:url(#linear-gradient-4);}.cls-6{fill:#c9c7c5;}.cls-11,.cls-7{fill:#f17aa9;stroke:#f17aa9;}.cls-10,.cls-11,.cls-12,.cls-13,.cls-14,.cls-7,.cls-8,.cls-9{stroke-linecap:round;stroke-linejoin:round;}.cls-7,.cls-8{stroke-width:1.28px;}.cls-12,.cls-8{fill:#a0d6b4;}.cls-8{stroke:#6ecadc;}.cls-10,.cls-13,.cls-14,.cls-9{fill:none;stroke:#555455;}.cls-9{stroke-width:6.42px;}.cls-10{stroke-width:4.49px;}.cls-11,.cls-12{stroke-width:1.74px;}.cls-12{stroke:#b4a0c3;}.cls-13{stroke-width:8.69px;}.cls-14{stroke-width:6.08px;}</style><linearGradient id="linear-gradient" x1="989.03" y1="17.85" x2="989.03" y2="1022.2" gradientUnits="userSpaceOnUse"><stop offset="0" stop-color="#a37162"/><stop offset="1" stop-color="#896256"/></linearGradient><linearGradient id="linear-gradient-2" x1="50.98" y1="1022.2" x2="50.98" y2="17.85" xlink:href="#linear-gradient"/><linearGradient id="linear-gradient-3" x1="605.27" y1="-96.13" x2="605.27" y2="908.21" gradientTransform="translate(926.22 384.07) rotate(90)" xlink:href="#linear-gradient"/><linearGradient id="linear-gradient-4" x1="482.98" y1="918.41" x2="482.98" y2="-85.94" gradientTransform="translate(936.41 -431.98) rotate(90)" xlink:href="#linear-gradient"/></defs><g id="strawbs"><rect class="cls-1" x="8.91" y="8.91" width="1022.2" height="1022.2"/><polygon class="cls-2" points="956.38 83.84 1022.14 17.85 1022.19 1022.2 955.87 956.41 956.38 83.84"/><polygon class="cls-3" points="83.63 83.84 17.86 17.85 17.82 1022.2 84.14 956.41 83.63 83.84"/><polygon class="cls-4" points="956.36 956.68 1022.35 1022.45 18 1022.5 83.79 956.18 956.36 956.68"/><polygon class="cls-5" points="956.36 83.66 1022.35 17.89 18 17.85 83.79 84.17 956.36 83.66"/><rect class="cls-6" x="83.72" y="83.75" width="872.57" height="872.52"/><path class="cls-7" d="M790.33,111.43c1,13.54,3.65,27.69,12.44,38A38.73,38.73,0,0,0,831.45,163c6.1.08,12.12-1.29,18-2.67l19.38-4.45a31.73,31.73,0,0,0,7.36-2.35c5.43-2.8,8.8-8.62,10-14.6s.42-12.17-.63-18.18c-2.13-12.41-5.67-24.85-13.06-35S853.3,67.94,840.74,68.34a40.69,40.69,0,0,0-14.51,3.5C809.58,78.9,789,92.85,790.33,111.43Z" transform="translate(-26.99 -26.99)"/><path class="cls-8" d="M788.7,130.44c-.41,3-2.5,5.49-4.65,7.61s-5,4.08-8,3.91c-4.35-.24-7.39-5.07-7-9.42s3.45-8,6.78-10.82,7.24-4.91,10.48-7.84c1.24-1.06,1.91.64,1.21-.83s-4.46-1.52-6-1.69A20.78,20.78,0,0,1,774.2,109a21.2,21.2,0,0,1-4.7-4.11c-1.59-1.87-.32-6.32-.69-8.74-.29-2-.48-4.35,1-5.75a5.49,5.49,0,0,1,2.45-1.18,23,23,0,0,1,18.93,3.32c1.85,1.3,3.91,3,6.08,2.37a20.76,20.76,0,0,1-6.73-28.59,20.47,20.47,0,0,1,3.14-3.92,7.5,7.5,0,0,1,4-2.3,6.14,6.14,0,0,1,5.28,2.25,17.3,17.3,0,0,1,2.74,5.29c1.67,4.47,3.2,9.47,1.37,13.88a21.81,21.81,0,0,1-3.29,4.94c-8.83,11.16-12.7,25-13.88,39.17C789.7,127.71,786.59,129.23,788.7,130.44Z" transform="translate(-26.99 -26.99)"/><path class="cls-9" d="M793.51,105a36,36,0,0,0-3,23.69,44.22,44.22,0,0,0,11.31,21.22,49.78,49.78,0,0,0,19.92,12.8,27.81,27.81,0,0,0,7,1.57,38.63,38.63,0,0,0,10.91-1.35c14.37-3.19,29-6.5,41.6-14.21a15.05,15.05,0,0,0,5.1-4.48c1.79-2.84,1.72-6.42,1.54-9.75-.94-15.23-3.78-30.77-11.88-43.69S853.73,68,838.47,68.28a41.81,41.81,0,0,0-12.76,2.43C809.5,76.29,800.27,92.09,793.51,105Z" transform="translate(-26.99 -26.99)"/><path class="cls-10" d="M808.35,122.87a29.34,29.34,0,0,0,8.78,5" transform="translate(-26.99 -26.99)"/><path class="cls-10" d="M809.1,142.4a58,58,0,0,0,6.48,3.18.49.49,0,0,0,.37.06c.1-.08.23-.19.08-.3" transform="translate(-26.99 -26.99)"/><path class="cls-10" d="M821.91,138a51.26,51.26,0,0,0,7.51,3.12,3.9,3.9,0,0,0,2.65.18" transform="translate(-26.99 -26.99)"/><path class="cls-10" d="M839,133.3A69,69,0,0,0,850.58,136" transform="translate(-26.99 -26.99)"/><path class="cls-10" d="M842.87,152a34.16,34.16,0,0,0,10.56-1.83" transform="translate(-26.99 -26.99)"/><path class="cls-10" d="M863.78,141.94c2-.5,4.07-.9,6.13-1.26" transform="translate(-26.99 -26.99)"/><path class="cls-9" d="M806.65,84.39a39,39,0,0,0,1-10.38,14.65,14.65,0,0,0-4-9.46,9.08,9.08,0,0,0-9.63-2.13c-2.9,1.27-4.69,4.26-5.61,7.28A22.57,22.57,0,0,0,796,93.64a33.36,33.36,0,0,0-13.47-5c-4.81-.46-10,1-13.24,4.52s-3.77,9.64-.53,13.25a15.73,15.73,0,0,0,5.46,3.5,76.15,76.15,0,0,0,14,4.61,62.11,62.11,0,0,0-10.82,5.71,20.93,20.93,0,0,0-7.7,9.3,15.64,15.64,0,0,0-.63,8.3c.49,2.56,1.76,5.24,4.19,6.28a7.78,7.78,0,0,0,5.44-.1,15.88,15.88,0,0,0,10.15-12.52,20.84,20.84,0,0,1,.41-2.61l.36.42a8.27,8.27,0,0,0,.15-1.57" transform="translate(-26.99 -26.99)"/><path class="cls-11" d="M938.82,117.13c-4.9-2.12-10.25,1.4-14.42,4.76-5.21,4.24-10.61,8.56-14.37,14.21-4.93,7.4-6.69,16.44-8.18,25.23-2.54,14.85-4.62,29.72-6,44.79a21.15,21.15,0,0,0,.47,9.26c1.51,4.27,5.52,7.19,9.71,8.91s8.69,2.52,12.94,4.13c2.94,1.13,5.7,2.63,8.69,3.81,13.9,5.56,29.54,3,44.2.43a74.4,74.4,0,0,0,9.66-2.15c10.42-3.37,19.11-11.4,24.74-20.85s8.69-20.24,10.74-31.06c1.07-5.77,1.89-11.77.48-17.46-2.78-11.44-13.43-18.91-23.28-25.3a67.64,67.64,0,0,0-12.47-7c-3.27-1.25-6.69-2-10-3.16-3.63-1.29-7.07-3.08-10.67-4.47C953.82,118.57,945.55,120,938.82,117.13Z" transform="translate(-26.99 -26.99)"/><path class="cls-12" d="M998.6,101c-8.43-4-18-4.71-27.26-5.37l-37.91-2.69a1.38,1.38,0,0,0-1.81.75,1.4,1.4,0,0,0-.07.88,28.49,28.49,0,0,0,17.81,25.28c8.34,3.2,18.42,2.54,25.19,8.36a32.79,32.79,0,0,0-28.92,34.75,6.42,6.42,0,0,0,.78,3.09c1.61,2.59,5.44,2.19,8.37,1.39a157.36,157.36,0,0,0,37.72-15.81,171.35,171.35,0,0,0-2.07,48.64,7.45,7.45,0,0,0,1.93,5.13c2.1,1.74,5.37.68,7.52-1,3.81-3,6.1-7.42,8.27-11.71l6.07-12a39.17,39.17,0,0,0,11.41,29,6.36,6.36,0,0,0,4.9,2.39c3.18-.41,4-4.6,4-7.81-.19-17.52-2.64-34.93-5.07-52.28a90.82,90.82,0,0,0-3.34-16.33C1021.2,121.22,1011.51,107.1,998.6,101Z" transform="translate(-26.99 -26.99)"/><path class="cls-13" d="M943.2,116.48c-15.13-.85-26.76,8.54-34.75,21.37s-10.79,28.29-11.92,43.44c-.59,7.94-.78,15.91-.95,23.87a25.27,25.27,0,0,0,1.06,9.85c1.82,4.67,6.2,7.82,10.56,10.29,26.58,15,61.28,13.58,87.27-2.42a47.44,47.44,0,0,0,15.36-13.9,30.14,30.14,0,0,0,5.77-16.35" transform="translate(-26.99 -26.99)"/><path class="cls-13" d="M1020.55,125.62c-1.91-8.25-8.69-14.66-15.55-19.73a41.81,41.81,0,0,0-9.7-5.79c-10.58-4.19-22.5-1.25-33.86-2-9.12-.61-17.91-3.63-26.94-5.06a3.52,3.52,0,0,0-2.37.21,3.29,3.29,0,0,0-1.11,3c.16,10.42,8.77,19,18.24,23.38s20,5.74,29.92,9a30.69,30.69,0,0,0-33.15,28,31.08,31.08,0,0,0,.14,6.47,6.39,6.39,0,0,0,1.41,3.74,6.65,6.65,0,0,0,4.72,1.53c16.46.54,31.28-9.44,44.45-19.27A105.51,105.51,0,0,0,991,200.71c.4,2.83,1.51,6.29,4.36,6.71s4.82-2.49,6.14-5L1014,179a50.08,50.08,0,0,0,9.41,29,8.14,8.14,0,0,0,5.22,3.92,5.9,5.9,0,0,0,5.52-3.87,17,17,0,0,0,.8-7.11,309.11,309.11,0,0,0-8.81-63.62C1024.82,131.69,1022.18,129.29,1020.55,125.62Z" transform="translate(-26.99 -26.99)"/><path class="cls-14" d="M958.58,195.87q5.1-1.74,10.26-3.31" transform="translate(-26.99 -26.99)"/><path class="cls-14" d="M972.91,214.35a55.32,55.32,0,0,0,7.87-1.35" transform="translate(-26.99 -26.99)"/><path class="cls-14" d="M943.2,214.84A75.24,75.24,0,0,1,954,213.1" transform="translate(-26.99 -26.99)"/><path class="cls-7" d="M319.55,955.2c1.56,13.49,1.59,27.89-5.11,39.7a38.8,38.8,0,0,1-25.65,18.61c-6,1.22-12.15,1-18.24.75l-19.87-.75a32,32,0,0,1-7.67-.93c-5.85-1.74-10.25-6.83-12.52-12.49s-2.69-11.87-2.77-18c-.23-12.58.92-25.46,6.28-36.83s15.56-21,28-23a40.87,40.87,0,0,1,14.91.72C294.56,926.85,317.4,936.7,319.55,955.2Z" transform="translate(-26.99 -26.99)"/><path class="cls-8" d="M324.71,973.57c1,2.88,3.47,4.93,6,6.61s5.63,3.08,8.56,2.36c4.23-1.06,6.31-6.37,5.07-10.56s-4.88-7.21-8.68-9.37-8-3.46-11.76-5.74c-1.42-.81-1.76,1-1.35-.59s4.1-2.33,5.53-2.77a20.56,20.56,0,0,0,6.87-3.68,20.88,20.88,0,0,0,3.86-4.92c1.21-2.13-.87-6.27-.95-8.71-.1-2-.35-4.36-2.05-5.46a5.53,5.53,0,0,0-2.63-.7,22.92,22.92,0,0,0-18,6.8c-1.57,1.61-3.28,3.64-5.53,3.46a20.75,20.75,0,0,0-2.55-32.61,7.45,7.45,0,0,0-4.32-1.52,6.15,6.15,0,0,0-4.78,3.2,17.27,17.27,0,0,0-1.69,5.71c-.81,4.7-1.38,9.9,1.24,13.89a21.88,21.88,0,0,0,4.15,4.23c10.77,9.32,17.15,22.2,21,35.9C323.21,971.08,326.55,972,324.71,973.57Z" transform="translate(-26.99 -26.99)"/><path class="cls-9" d="M315.22,949.48a35.92,35.92,0,0,1,7.39,22.7,44.27,44.27,0,0,1-7.15,23,49.72,49.72,0,0,1-17.17,16.3,28,28,0,0,1-6.57,2.84,38.48,38.48,0,0,1-11,.72c-14.71-.45-29.75-1-43.52-6.19a15,15,0,0,1-5.85-3.45c-2.29-2.45-2.89-6-3.33-9.29-1.93-15.14-2-30.94,3.51-45.14s17.58-26.61,32.64-29.13a41.55,41.55,0,0,1,13,0C294.15,924.26,306.18,938.06,315.22,949.48Z" transform="translate(-26.99 -26.99)"/><path class="cls-10" d="M304,969.81a29.67,29.67,0,0,1-7.69,6.56" transform="translate(-26.99 -26.99)"/><path class="cls-10" d="M306.9,989.13a56.48,56.48,0,0,1-5.77,4.34.53.53,0,0,1-.36.13c-.11-.07-.25-.15-.13-.29" transform="translate(-26.99 -26.99)"/><path class="cls-10" d="M293.49,987.23a50.93,50.93,0,0,1-6.79,4.46,3.85,3.85,0,0,1-2.57.67" transform="translate(-26.99 -26.99)"/><path class="cls-10" d="M275.79,985.78a68.48,68.48,0,0,1-10.84,4.8" transform="translate(-26.99 -26.99)"/><path class="cls-10" d="M275.5,1004.83a34.05,34.05,0,0,1-10.71.17" transform="translate(-26.99 -26.99)"/><path class="cls-10" d="M253.1,998.9c-2.08-.11-4.17-.13-6.26-.09" transform="translate(-26.99 -26.99)"/><path class="cls-9" d="M298.46,931.69a39.73,39.73,0,0,1-2.95-10,14.68,14.68,0,0,1,2.13-10,9.09,9.09,0,0,1,9.07-3.89c3.09.71,5.4,3.31,6.87,6.1a22.56,22.56,0,0,1-2.93,24.92,33.55,33.55,0,0,1,12.3-7.47c4.64-1.35,10-.93,13.85,2s5.5,8.77,3,12.92a15.63,15.63,0,0,1-4.71,4.45,76.21,76.21,0,0,1-12.93,7.16,62.18,62.18,0,0,1,11.69,3.59,20.87,20.87,0,0,1,9.3,7.7,15.55,15.55,0,0,1,2.17,8c0,2.61-.75,5.48-2.94,7A7.84,7.84,0,0,1,337,985a15.89,15.89,0,0,1-12.31-10.42,24.42,24.42,0,0,0-.89-2.48l-.27.48a8,8,0,0,1-.45-1.51" transform="translate(-26.99 -26.99)"/><path class="cls-11" d="M163.1,876.35c4.9-2.12,10.25,1.41,14.42,4.76,5.21,4.24,10.61,8.57,14.36,14.21,4.94,7.41,6.69,16.44,8.19,25.23,2.53,14.86,4.62,29.73,6,44.79a21.15,21.15,0,0,1-.47,9.26c-1.51,4.27-5.52,7.19-9.71,8.91s-8.69,2.52-13,4.14c-2.93,1.13-5.69,2.62-8.68,3.8-13.9,5.56-29.54,3-44.2.44a72.47,72.47,0,0,1-9.66-2.16c-10.42-3.37-19.11-11.39-24.74-20.85S87,948.64,84.93,937.82c-1.07-5.77-1.89-11.76-.48-17.46,2.78-11.43,13.43-18.9,23.28-25.3a68.82,68.82,0,0,1,12.47-6.95c3.27-1.25,6.69-2,10-3.16,3.63-1.28,7.07-3.07,10.67-4.46C148.1,877.79,156.37,879.25,163.1,876.35Z" transform="translate(-26.99 -26.99)"/><path class="cls-12" d="M103.32,860.21c8.43-4,18-4.71,27.26-5.37l37.91-2.69a1.37,1.37,0,0,1,1.81.75,1.33,1.33,0,0,1,.06.88,28.5,28.5,0,0,1-17.8,25.28c-8.34,3.19-18.42,2.53-25.2,8.35a32.8,32.8,0,0,1,28.93,34.75,6.53,6.53,0,0,1-.78,3.09c-1.62,2.59-5.44,2.19-8.37,1.39a157,157,0,0,1-37.72-15.81,171.43,171.43,0,0,1,2.07,48.65,7.47,7.47,0,0,1-1.93,5.13c-2.11,1.73-5.37.67-7.53-1-3.8-3-6.09-7.42-8.27-11.71l-6.06-12a39.17,39.17,0,0,1-11.41,29,6.42,6.42,0,0,1-4.9,2.4c-3.18-.42-4-4.6-4-7.82.19-17.51,2.64-34.92,5.07-52.28a91,91,0,0,1,3.34-16.33C80.72,880.45,90.41,866.32,103.32,860.21Z" transform="translate(-26.99 -26.99)"/><path class="cls-13" d="M158.72,875.71c15.13-.85,26.75,8.53,34.75,21.37s10.79,28.28,11.91,43.43c.59,7.94.79,15.92,1,23.87a25.32,25.32,0,0,1-1.06,9.86c-1.82,4.67-6.2,7.81-10.56,10.28-26.58,15-61.28,13.59-87.27-2.41a47.57,47.57,0,0,1-15.36-13.9,30.16,30.16,0,0,1-5.77-16.35" transform="translate(-26.99 -26.99)"/><path class="cls-13" d="M81.37,884.85c1.91-8.25,8.69-14.67,15.55-19.74a41.92,41.92,0,0,1,9.69-5.78c10.59-4.19,22.5-1.25,33.87-2,9.12-.6,17.91-3.63,26.94-5a3.46,3.46,0,0,1,2.37.21,3.27,3.27,0,0,1,1.11,3c-.16,10.43-8.78,19-18.24,23.39s-20,5.73-29.92,9a30.7,30.7,0,0,1,33.15,28,31.11,31.11,0,0,1-.14,6.47,6.36,6.36,0,0,1-1.41,3.73,6.57,6.57,0,0,1-4.73,1.53c-16.45.54-31.27-9.43-44.44-19.27a105.65,105.65,0,0,1,5.74,51.59c-.4,2.83-1.52,6.29-4.36,6.7s-4.82-2.48-6.14-5L87.92,938.22a50,50,0,0,1-9.42,29,8.14,8.14,0,0,1-5.21,3.93,5.92,5.92,0,0,1-5.52-3.88,16.76,16.76,0,0,1-.8-7.1,308.92,308.92,0,0,1,8.81-63.62C77.1,890.91,79.74,888.51,81.37,884.85Z" transform="translate(-26.99 -26.99)"/><path class="cls-14" d="M143.34,955.09q-5.1-1.74-10.27-3.3" transform="translate(-26.99 -26.99)"/><path class="cls-14" d="M129,973.58a55.35,55.35,0,0,1-7.87-1.36" transform="translate(-26.99 -26.99)"/><path class="cls-14" d="M158.72,974.06A75.15,75.15,0,0,0,148,972.32" transform="translate(-26.99 -26.99)"/></g></svg>