<svg xmlns="http://www.w3.org/2000/svg" xmlns:xlink="http://www.w3.org/1999/xlink" viewBox="0 0 1084.17 1089.59"><defs><style>.cls-1{fill:#ac8171;stroke:#c69b8d;stroke-miterlimit:10;stroke-width:17.05px;}.cls-2{fill:url(#linear-gradient);}.cls-3{fill:url(#linear-gradient-2);}.cls-4{fill:url(#linear-gradient-3);}.cls-5{fill:url(#linear-gradient-4);}.cls-6{fill:#c9c7c5;}.cls-7{fill:#f7f3ed;}.cls-8{fill:#a0d6b4;opacity:0.8;}</style><linearGradient id="linear-gradient" x1="987.32" y1="65.29" x2="987.32" y2="1026.61" gradientUnits="userSpaceOnUse"><stop offset="0" stop-color="#a37162"/><stop offset="1" stop-color="#896256"/></linearGradient><linearGradient id="linear-gradient-2" x1="89.45" y1="1026.61" x2="89.45" y2="65.29" xlink:href="#linear-gradient"/><linearGradient id="linear-gradient-3" x1="585.16" y1="-74.61" x2="585.16" y2="886.71" gradientTransform="translate(944.6 409.99) rotate(90)" xlink:href="#linear-gradient"/><linearGradient id="linear-gradient-4" x1="503.08" y1="896.9" x2="503.08" y2="-64.41" gradientTransform="translate(954.8 -406.05) rotate(90)" xlink:href="#linear-gradient"/></defs><g id="Layer_1" data-name="Layer 1"><rect class="cls-1" x="49.19" y="56.73" width="978.4" height="978.4"/><polygon class="cls-2" points="956.06 128.45 1019.01 65.29 1019.05 1026.61 955.58 963.64 956.06 128.45"/><polygon class="cls-3" points="120.71 128.45 57.76 65.29 57.72 1026.61 121.19 963.64 120.71 128.45"/><polygon class="cls-4" points="956.05 963.9 1019.21 1026.85 57.89 1026.89 120.86 963.42 956.05 963.9"/><polygon class="cls-5" points="956.05 128.28 1019.21 65.33 57.89 65.29 120.86 128.76 956.05 128.28"/><rect class="cls-6" x="120.8" y="128.37" width="835.19" height="835.13"/></g><g id="washi_green_2" data-name="washi green 2"><polygon class="cls-7" points="1014.45 291.57 769.22 77.49 838.93 0 1084.17 214.08 1014.45 291.57"/><polygon class="cls-8" points="790.69 96.23 778.57 85.65 848.28 8.16 860.4 18.74 790.69 96.23"/><polygon class="cls-8" points="813.45 116.1 801.33 105.52 871.05 28.04 883.17 38.62 813.45 116.1"/><polygon class="cls-8" points="838.07 137.59 825.95 127.02 895.67 49.53 907.79 60.1 838.07 137.59"/><polygon class="cls-8" points="862.97 159.33 850.85 148.75 920.57 71.27 932.69 81.84 862.97 159.33"/><polygon class="cls-8" points="885.73 179.2 873.62 168.63 943.33 91.14 955.45 101.72 885.73 179.2"/><polygon class="cls-8" points="909.61 200.04 897.49 189.46 967.2 111.97 979.32 122.55 909.61 200.04"/><polygon class="cls-8" points="933.65 221.04 921.54 210.46 991.25 132.97 1003.37 143.55 933.65 221.04"/><polygon class="cls-8" points="956.71 241.16 944.59 230.58 1014.31 153.09 1026.42 163.67 956.71 241.16"/><polygon class="cls-8" points="981.06 262.42 968.94 251.84 1038.66 174.35 1050.78 184.93 981.06 262.42"/><polygon class="cls-8" points="1004.76 283.11 992.64 272.53 1062.35 195.04 1074.47 205.62 1004.76 283.11"/><polygon class="cls-8" points="1075.26 223.98 1064.59 235.84 819.36 21.76 830.03 9.9 1075.26 223.98"/><polygon class="cls-8" points="1054.91 246.59 1044.25 258.45 799.01 44.37 809.68 32.51 1054.91 246.59"/><polygon class="cls-8" points="1033.45 270.45 1022.78 282.31 777.55 68.23 788.22 56.37 1033.45 270.45"/><polygon class="cls-7" points="245.23 1089.59 0 875.51 69.72 798.02 314.95 1012.1 245.23 1089.59"/><polygon class="cls-8" points="21.47 894.25 9.35 883.68 79.07 806.19 91.19 816.77 21.47 894.25"/><polygon class="cls-8" points="44.23 914.13 32.12 903.55 101.83 826.06 113.95 836.64 44.23 914.13"/><polygon class="cls-8" points="68.85 935.62 56.73 925.04 126.45 847.55 138.57 858.13 68.85 935.62"/><polygon class="cls-8" points="93.76 957.36 81.64 946.78 151.35 869.29 163.47 879.87 93.76 957.36"/><polygon class="cls-8" points="116.52 977.23 104.4 966.65 174.11 889.16 186.23 899.74 116.52 977.23"/><polygon class="cls-8" points="140.39 998.07 128.27 987.49 197.99 910 210.1 920.58 140.39 998.07"/><polygon class="cls-8" points="164.44 1019.06 152.32 1008.48 222.03 930.99 234.15 941.57 164.44 1019.06"/><polygon class="cls-8" points="187.49 1039.19 175.37 1028.61 245.09 951.12 257.21 961.7 187.49 1039.19"/><polygon class="cls-8" points="211.84 1060.44 199.72 1049.86 269.44 972.38 281.56 982.95 211.84 1060.44"/><polygon class="cls-8" points="235.54 1081.13 223.42 1070.55 293.14 993.06 305.25 1003.64 235.54 1081.13"/><polygon class="cls-8" points="306.04 1022 295.37 1033.86 50.14 819.78 60.81 807.92 306.04 1022"/><polygon class="cls-8" points="285.7 1044.62 275.03 1056.47 29.8 842.39 40.47 830.54 285.7 1044.62"/><polygon class="cls-8" points="264.23 1068.48 253.56 1080.33 8.33 866.25 19 854.4 264.23 1068.48"/></g></svg>