<?xml version="1.0" encoding="utf-8"?>
<!-- Generator: Adobe Illustrator 23.0.1, SVG Export Plug-In . SVG Version: 6.00 Build 0)  -->
<svg version="1.1" id="Layer_1" xmlns="http://www.w3.org/2000/svg" xmlns:xlink="http://www.w3.org/1999/xlink" x="0px" y="0px"
	 viewBox="0 0 468.3 65.7" style="enable-background:new 0 0 468.3 65.7;" xml:space="preserve">
<style type="text/css">
	.st0{fill:#5C5C5C;}
	.st1{fill:#BE1E2D;}
	.st2{fill:#606060;}
</style>
<title>asymmetrik_logos</title>
<path class="st0" d="M320.6,17h23.3v8.1h-13.4v6.1h11.9v8.3h-11.9v6.9h13.5v8h-23.3L320.6,17z"/>
<path class="st0" d="M414.4,17h9.9v37.5h-9.9V17z"/>
<path class="st0" d="M466.1,17L450,34.1l18.3,20.3h-12.9L443,41.2l-2.4,2.4v10.9h-9.9V17h9.9v12.6L453.3,17H466.1z"/>
<path class="st0" d="M402.7,40.9c2.9-2.8,4.5-6.6,4.6-10.6c0-7.6-6.3-13.4-13.9-13.4h-15.8v8.3h15.9c2.6,0,5.6,1.3,5.5,4.9
	c0,3.3-2.5,3.8-5.5,3.8h-15.9v20.5h9.8v-11h6.1l6.8,10.9h10.3L402.7,40.9z"/>
<polygon class="st0" points="367.8,25.3 377.7,25.3 377.7,17 348.2,17 348.2,25.3 357.9,25.3 357.9,26.7 357.9,36 357.9,54.5 
	367.8,54.5 367.8,30.5 367.8,26.7 "/>
<polygon class="st0" points="158,54.5 140.2,17 135.8,17 118.2,54.5 128.1,54.5 130.3,49.6 134.2,41.3 138.1,33 141.9,41.3 
	142.7,43.1 139.5,43.1 136.3,51.1 146.5,51.1 148.1,54.5 "/>
<path class="st0" d="M213.7,40.7v13.8h-9.8V40.7L190.2,17h11.4l7.2,12.5L216,17h11.4L213.7,40.7z"/>
<polygon class="st1" points="204.5,17 213.2,17 208.8,24.5 "/>
<polygon class="st1" points="50.8,32.5 71.7,65.7 88.7,65.7 50.9,5.7 13.2,65.7 29.9,65.7 "/>
<polygon class="st2" points="37.8,65.7 50.6,45.3 63.3,65.7 "/>
<path d="M67.2,0.9C46-2.3,19.5,3.3,0,14c8.9-4.4,18.5-7.6,28.3-9.3c11.9-3.2,24.3-4,36.5-2.4c25.2,3.8,32.5,20.3,16.3,36.9
	C69.5,51.1,45.6,58.6,27.6,55.9S4.4,41.4,15.9,29.5c3.8-3.8,8.3-6.9,13.1-9.3c3.4-2,6.9-3.6,10.6-4.9c-10.7,3.2-20.6,8.4-27,14.8
	C-0.3,43,5.6,55.8,25.7,58.7s46.9-5,59.8-17.9C103.5,22.9,95.3,5,67.2,0.9z"/>
<path class="st0" d="M250,28.9L265.3,17h4.5v37.5h-9.9V34.2l-9.8,7l-9.9-6.9v20.2h-9.9V17h4.4L250,28.9z"/>
<path class="st0" d="M295,28.9L310.3,17h4.5v37.5h-9.9V34.2l-9.8,7l-9.9-6.9v20.2h-9.9V17h4.4L295,28.9z"/>
<path class="st0" d="M178.3,31.6c-4.3-0.7-9.2,0.6-9.2-2.6c0-3.4,2.2-3.5,6.1-3.5h12.1v-8.6h-12.9c-9.2,0-13.6,4-13.6,12
	c0,6.8,2.4,9.8,9.4,10.6c4.2,0.5,10.4-0.4,10.2,3.1c-0.2,3.1-4.3,2.7-8.4,2.7h-10.5v9.1H174c9.5,0,15.1-3.7,15.1-10.7
	C189.1,37.9,186.6,33,178.3,31.6z"/>
</svg>
