<?xml version="1.0" encoding="utf-8"?>
<!-- Generator: Adobe Illustrator 25.4.1, SVG Export Plug-In . SVG Version: 6.00 Build 0)  -->
<svg version="1.1" id="Layer_1" xmlns="http://www.w3.org/2000/svg" xmlns:xlink="http://www.w3.org/1999/xlink" x="0px" y="0px"
	 viewBox="0 0 1920 1080" style="enable-background:new 0 0 1920 1080;" xml:space="preserve">
<style type="text/css">
	.st0{fill:#242E49;}
	.st1{fill:#0080FF;}
</style>
<g>
	<g>
		<path class="st0" d="M884.87,482.06h26.68v48.31h91.12v-48.31h26.68v121.6h-26.68v-50.68h-91.12v50.68h-26.68V482.06z"/>
		<path class="st0" d="M1164.61,559.9l-31.35-58.16l-31.01,58.16l-10.22,19.69l-12.82,24.06h-29.97l66.17-121.6h36.2l65.13,121.6
			h-29.1l-13.16-24.06"/>
		<path class="st0" d="M1231.45,482.06h26.68v98.81h84.36v22.79h-111.04V482.06z"/>
		<path class="st0" d="M1506.69,492.81c4.85,5.65,7.45,13.49,8.49,25.7c0.52,5.65,0.69,12.21,0.69,25.7
			c0,30.45-2.77,42.11-11.61,50.32c-6.41,5.84-15.07,8.75-29.62,9.66c-5.54,0.37-26.5,0.73-42.61,0.73
			c-35.34,0-44.87-1.09-54.74-6.75c-7.62-4.38-12.64-12.76-14.2-24.79c-1.04-8.02-1.39-14.59-1.39-34.46
			c0-28.44,2.6-39.74,10.92-47.4c6.24-5.84,14.38-8.57,29.27-9.84c5.89-0.55,23.21-0.91,44.35-0.91
			C1487.12,480.78,1498.03,482.97,1506.69,492.81z M1388.89,542.95c0,23.7,1.73,31.36,8.14,34.82c6.41,3.65,11.95,4.19,45.04,4.19
			c29.8,0,37.25-1.27,41.92-6.74c3.98-4.56,5.2-12.4,5.2-33c0-38.1-0.35-38.47-50.23-38.47
			C1389.59,503.75,1388.89,504.3,1388.89,542.95z"/>
	</g>
	<g>
		<polyline class="st1" points="761.38,582.33 858.91,582.33 858.91,603.66 735.05,603.66 		"/>
		<path class="st1" d="M259.43,482.06h99.6c28.93,0,38.98,8.39,38.98,32.45c0,15.68-4.5,23.16-15.42,25.71
			c14.03,2,19.75,10.21,19.75,28.44c0,25.16-10.74,35-38.28,35H259.43V482.06z M348.64,532.01c10.74,0,14.72-0.55,17.67-2.19
			c3.29-2.01,5.02-6.02,5.02-11.67c0-6.2-1.91-10.57-5.54-12.58c-2.6-1.64-6.76-2.37-14.55-2.37h-65.65v28.8H348.64z M354.36,582.51
			c16.11,0,20.96-3.65,20.96-15.86c0-6.38-1.91-11.12-5.37-13.31c-2.77-1.64-7.8-2.37-17.32-2.37h-67.04v31.54H354.36z"/>
		<path class="st1" d="M429.86,482.06h26.68v98.81h84.36v22.79H429.86V482.06z"/>
		<path class="st1" d="M705.1,482.06v76.57c0,23.15-3.46,32.63-14.55,39.2c-9.87,6.02-19.75,7.11-60.63,7.11
			c-40.02,0-52.14-2.55-60.63-12.58c-5.89-7.11-7.62-15.5-7.62-37.92v-72.38h26.68v63.63c0,16.23,0,16.23,0.86,21.33
			c1.91,12.94,8.66,15.31,43.31,15.31c15.59,0,29.97-0.73,33.95-1.82c6.76-1.82,10.39-6.2,11.43-13.86
			c0.35-2.19,0.35-2.19,0.52-19.14v-65.45H705.1z"/>
		<polyline class="st1" points="735.05,482.06 857.87,482.06 857.87,503.39 761.38,503.39 		"/>
		<rect x="761.73" y="530.37" class="st1" width="97.18" height="22.6"/>
	</g>
	<path class="st1" d="M1476.06,458.57c45.3-22.98,83.23-30.54,113.33-23.07c18.62,4.63,29.51,15.83,32.71,32.39
		c7.63,39.54-28.98,93.52-84.89,134.6c-29,21.31-58.9,36.95-89.13,45.31c-30.71,8.49-55.62,8.9-74.31,0.55
		c4.24,6.26,12.19,9.23,20.9,11.43c22.02,5.55,49.27,3.17,81.39-7.78c74.51-25.4,128.96-76.34,154.96-113.35
		c4.02-5.72,8.98-11.64,11.46-17.42c2.56-5.94,6.4-12.19,8.86-18.1c2.4-5.76,4.17-11.41,5.49-16.84c1.35-5.57,2.28-11.03,2.52-16.15
		c0.24-4.99-0.19-9.73-1.12-14.13c-0.94-4.47-2.36-8.72-4.47-12.47c-2.13-3.8-4.99-7.17-8.22-10.18c-3.17-2.95-6.87-5.52-10.97-7.68
		c-4.1-2.17-8.61-4.04-13.59-5.34c-22.51-5.89-50.33-3.43-83.75,8.48C1516.94,436.04,1496.45,444.76,1476.06,458.57z"/>
</g>
</svg>
