<svg id="Layer_2" data-name="Layer 2" xmlns="http://www.w3.org/2000/svg" width="544" height="158" viewBox="0 0 544 158">
  <g>
    <path d="M485.57,73a11.79,11.79,0,1,0,11.6,11.79A11.57,11.57,0,0,0,485.57,73Zm4.77,11.79c0,3.25-.62,8.7-4.77,8.7-3.89,0-4.71-4.73-4.71-8.7s.82-8.69,4.71-8.69C489.72,76.12,490.34,81.57,490.34,84.81Z" style="fill: #046937"/>
    <path d="M520.25,73.66h-9.67l3.09,3.09v8.86l-9.48-12h-7.85l3.08,3.09V92.88L496.34,96h9.85l-3.08-3.09V81.06l14.28,17.32s0-21.55,0-21.63l3.09-3.09Z" style="fill: #046937"/>
    <path d="M453.15,38.33l5.36-9.7A20.58,20.58,0,0,1,455.42,31C448.94,35.45,441,36.51,433,43.1A29.88,29.88,0,0,0,425,54a50.77,50.77,0,0,1,18.31-12.27C447.79,40.12,450.89,39.22,453.15,38.33Z" style="fill: #ffce01"/>
    <path d="M450.3,43.51c-5.8,1.85-12.71,3.61-19.79,8.39C425,55.62,421.79,62,421.79,62a44.16,44.16,0,0,1,19.08-10.43l5.78-1.35Z" style="fill: #046937"/>
    <path d="M469.67,84l-5.85-3.14c-1.52-.89-2.06-2-2.06-2.67a1.67,1.67,0,0,1,.53-1.14,3,3,0,0,1,2.22-.92,4,4,0,0,1,1.63.43s3,3,3,3l.09.08,3.29-5.14-6-.86a13.94,13.94,0,0,0-2.32-.14c-5.43,0-7.91,3.23-7.91,6.23,0,1.76,1.06,4.22,4,5.84l5.85,3.14a2.39,2.39,0,0,1,1.22,2.08,3,3,0,0,1-3.24,2.9,3.59,3.59,0,0,1-2-.58l-3.32-3.28-.1-.09L456,95.05l-1.86-2.34-7.5-19,0-.06h-3.72l-7.69,19.08L433.43,95,431,92.21V63c7.82-6.19,12.87-7.45,12.86-7.45a36.84,36.84,0,0,0-15.37,4.56,43.5,43.5,0,0,0-8,5.88v0h0c-1.32,2.49-3.16,6.62-5,11.07l-8.95-16.34H394.83l3.75,3.75V92.13l-3.75,3.75h12.83l-3.81-3.75V70.69l8.38,15a74,74,0,0,0-2.64,8.7l2.69-3.13A52.27,52.27,0,0,1,423.1,70.6V92.46L419.35,96H442l-3-3c.05-.11,1.13-2.81,1.18-2.92H447c.05.12,1,2.81,1,2.92l-3,3h11.11l5.59.14a16.34,16.34,0,0,0,2.65.2c6.35,0,8.6-3.76,8.6-7A5.92,5.92,0,0,0,469.67,84Zm-28.21,3c.1-.24,2-5.11,2.21-5.52L445.79,87Z" style="fill: #046937"/>
    <g>
      <path d="M452,69.82a15.51,15.51,0,0,1-4.06.48c-2.79,0-6-1.41-6-5.38s2.78-5.47,6.63-5.47a10.14,10.14,0,0,1,3.18.46l-.23,2.29a5.34,5.34,0,0,0-2.56-.68c-2.27,0-4.13.95-4.13,3.4a3.21,3.21,0,0,0,3.5,3.31,2.48,2.48,0,0,0,1-.18V66h-1.64V64H452Z" style="fill: #046937"/>
      <path d="M457.27,59.63h7.4v2h-4.6v2.17h4.34v2h-4.34v2.38h4.76v2h-7.56Z" style="fill: #046937"/>
      <path d="M474.14,59.45c3.46,0,5.26,2.06,5.26,5.43s-1.83,5.42-5.26,5.42-5.26-2.09-5.26-5.42S470.68,59.45,474.14,59.45Zm0,8.78c1.7,0,2.38-1.62,2.38-3.35s-.68-3.36-2.38-3.36-2.37,1.54-2.37,3.36S472.44,68.23,474.14,68.23Z" style="fill: #046937"/>
      <path d="M483.78,59.63h5c1.87,0,3.38.84,3.38,2.64a2.45,2.45,0,0,1-2,2.65v0c.9.24,1,1,1.49,2.32l1,2.85h-2.92l-.6-1.89c-.57-1.81-.93-2.26-2-2.26h-.58v4.15h-2.8Zm2.8,4.36h.73c.91,0,2.05,0,2.05-1.22,0-1-1-1.16-2.05-1.16h-.73Z" style="fill: #046937"/>
      <path d="M506.46,69.82a15.58,15.58,0,0,1-4.07.48c-2.79,0-6-1.41-6-5.38s2.78-5.47,6.63-5.47a10.09,10.09,0,0,1,3.17.46l-.23,2.29a5.33,5.33,0,0,0-2.55-.68c-2.27,0-4.14.95-4.14,3.4a3.22,3.22,0,0,0,3.51,3.31,2.47,2.47,0,0,0,1-.18V66h-1.64V64h4.35Z" style="fill: #046937"/>
      <path d="M511.42,59.63h7.4v2h-4.61v2.17h4.35v2h-4.35v2.38H519v2h-7.56Z" style="fill: #046937"/>
    </g>
    <g>
      <path d="M403.2,107.36c0,2-1.32,3-3.26,3s-3.26-.91-3.26-3v-4.6h2V107c0,1,.27,1.81,1.28,1.81s1.28-.83,1.28-1.81v-4.27h2Z" style="fill: #046937"/>
      <path d="M410.92,102.76h2.53l2.51,5h0l0-5h1.81v7.43H415.3l-2.6-5.08h0l.06,5.08h-1.82Z" style="fill: #046937"/>
      <path d="M426.27,102.76h2v7.43h-2Z" style="fill: #046937"/>
      <path d="M436.29,102.76h2.11l1.65,5.83h0l1.66-5.83h2l-2.53,7.43h-2.45Z" style="fill: #046937"/>
      <path d="M451.14,102.76h5.23v1.4h-3.25v1.53h3.07v1.41h-3.07v1.68h3.37v1.41h-5.35Z" style="fill: #046937"/>
      <path d="M464.32,102.76h3.53c1.32,0,2.39.59,2.39,1.87a1.72,1.72,0,0,1-1.42,1.87v0c.64.17.68.74,1.05,1.64l.72,2h-2.06l-.43-1.35c-.4-1.27-.66-1.59-1.39-1.59h-.42v2.94h-2Zm2,3.08h.53c.64,0,1.44,0,1.44-.86s-.69-.82-1.44-.82h-.53Z" style="fill: #046937"/>
      <path d="M477.79,108.35a4.29,4.29,0,0,0,2,.49c.63,0,1.23-.12,1.23-.72,0-1.38-3.51-.51-3.51-3.21,0-1.79,1.74-2.28,3.23-2.28a6.3,6.3,0,0,1,1.92.27l-.13,1.54a3.9,3.9,0,0,0-1.65-.34c-.5,0-1.33,0-1.33.69,0,1.2,3.51.39,3.51,3.07,0,1.93-1.62,2.45-3.27,2.45a7.53,7.53,0,0,1-2.21-.32Z" style="fill: #046937"/>
      <path d="M490.54,102.76h2v7.43h-2Z" style="fill: #046937"/>
      <path d="M502.11,104.22h-1.83v-1.46h5.64v1.46h-1.83v6h-2Z" style="fill: #046937"/>
      <path d="M514.33,107.39l-2.74-4.63h2.27l1.46,3,1.44-3H519l-2.73,4.63v2.8h-2Z" style="fill: #046937"/>
    </g>
  </g>
  <g>
    <path d="M176.79,123.33l-26.87-2.77v16.58h26.87Zm0,0" style="fill: #f57e20"/>
    <path d="M159.24,127.94a2.11,2.11,0,0,1,1.47.47,2.14,2.14,0,0,1,0,2.75,2.07,2.07,0,0,1-1.47.48h-.56v-3.7Zm-2.12,4.88h1.65a7.86,7.86,0,0,0,2-.2A2.63,2.63,0,0,0,162,132a2.37,2.37,0,0,0,.63-.94,3.37,3.37,0,0,0,.21-1.23,3.3,3.3,0,0,0-.21-1.21,2.44,2.44,0,0,0-.63-.94,2.65,2.65,0,0,0-1.16-.67,7.89,7.89,0,0,0-2-.2h-1.65v6.06Zm12.2-1.59a3.69,3.69,0,0,1-.86.44,2.86,2.86,0,0,1-.89.13,1.66,1.66,0,0,1-1.31-.53,2.51,2.51,0,0,1,0-3,1.66,1.66,0,0,1,1.31-.53,2.86,2.86,0,0,1,.89.13,3.69,3.69,0,0,1,.86.44V127.1a4.23,4.23,0,0,0-.9-.33,3.85,3.85,0,0,0-1-.12,3.35,3.35,0,0,0-2.4.85,3.43,3.43,0,0,0,0,4.59,3.35,3.35,0,0,0,2.4.85,3.85,3.85,0,0,0,1-.12,4.23,4.23,0,0,0,.9-.33v-1.26Z" style="fill: #fff"/>
    <path d="M176.79,117.87,138,28.39H81.06v4.66H134.9l34.45,79.38L19.31,97V86.37H14.65v14.79Zm0,0" style="fill: #bfd730"/>
    <path d="M24,34.1A3.11,3.11,0,0,0,25.37,33a2.73,2.73,0,0,0,.5-1.63,2.67,2.67,0,0,0-.78-2,3.88,3.88,0,0,0-2.34-1,7.73,7.73,0,0,0-1-.06H15.58v12.1h6.24c2.89,0,4.58-1.26,4.58-3.33a3.27,3.27,0,0,0-.11-.88A3.07,3.07,0,0,0,24,34.1M21.74,33a1.93,1.93,0,0,1-.47.08l-.31,0H18.85V31H21a2,2,0,0,1,.24,0c.83.06,1.29.41,1.29,1a1,1,0,0,1-.81,1m-.3,4.7h-2.6V35.5H21.4c.89,0,1.39.28,1.57.72a1,1,0,0,1,.08.37c0,.75-.59,1.15-1.61,1.15"/>
    <path d="M31.3,40.43V36.77h1.47l2.44,3.67h3.87L36.2,36.22a3.78,3.78,0,0,0,2.45-3.16,3.52,3.52,0,0,0,0-.56,3.86,3.86,0,0,0-1.07-2.87,4.89,4.89,0,0,0-3-1.23,7,7,0,0,0-.92-.06H28V40.45H31.3Zm4-7.76a1.57,1.57,0,0,1,0,.37c-.16.69-.78,1.1-1.75,1.1H31.3V31.23h2.2c1.12,0,1.82.49,1.82,1.44"/>
    <path d="M50.21,37.58h-6.5V35.66h5.81V33H43.71V31.18h6.41V28.33H40.39v12.1h9.82Zm0,0"/>
    <path d="M55.35,38.27H60l.88,2.17h3.6l-1.78-4.22-1.34-3.17-2-4.65-.06-.15H56.11l-.06.15-2,4.66-1.34,3.17L51,40.43h3.53Zm2.35-6.05.33.83,1,2.61H56.34l1-2.61Zm0,0"/>
    <path d="M69,37.31l1-1.09.25-.28.19.28,2.86,4.21h4l-2.9-4.21L72.6,33.53l.43-.48,4.1-4.66.05-.06h-4l0,.06-4,4.66-.17.19V28.33H65.68v12.1H69Zm0,0"/>
    <path d="M14.9,48.42v2.94h3.63v9.17h3.36V51.36h3.63V48.42Zm0,0"/>
    <path d="M34.66,53H30.35V48.42H27V60.53h3.36v-4.6h4.31v4.6H38V48.42H34.66Zm0,0"/>
    <path d="M43.52,56.86H45l2.43,3.67H51.3l-2.89-4.22a4.16,4.16,0,0,0,1.42-6.6,5.36,5.36,0,0,0-3.94-1.28H40.16v12.1h3.36Zm0-5.54h2.19c1.13,0,1.82.49,1.82,1.44s-.66,1.47-1.8,1.47H43.52Zm0,0"/>
    <path d="M58.72,48.17a6.3,6.3,0,1,0,6.51,6.3,6.34,6.34,0,0,0-6.51-6.3m0,9.57a3.27,3.27,0,1,1,3.08-3.27,3.1,3.1,0,0,1-3.08,3.27"/>
    <path d="M74.69,55.23c0,1.7-.88,2.49-2.23,2.49s-2.23-.83-2.23-2.57V48.42H66.82v6.8c0,3.78,2.16,5.53,5.6,5.53S78.1,59,78.1,55.13V48.42H74.69Zm0,0"/>
    <path d="M86,55.91h2.38v1.47a3.35,3.35,0,0,1-1.93.5,3.36,3.36,0,0,1-.19-6.71,4.27,4.27,0,0,1,2.92,1.14l2-2.36a7.08,7.08,0,0,0-4.92-1.76,6.3,6.3,0,1,0,.07,12.59,8.2,8.2,0,0,0,5.26-1.87V53.45H86Zm0,0"/>
    <path d="M101.06,48.42V53H96.75V48.42H93.39V60.53h3.36v-4.6h4.31v4.6h3.35V48.42Zm0,0"/>
    <path d="M14.9,68.51v2.94h3.63v9.17h3.36V71.45h3.63V68.51Zm0,0"/>
    <path d="M30.31,75.84h5.82V73.2H30.31V71.36h6.42V68.51H27V80.62h9.83V77.76H30.31Zm0,0"/>
    <path d="M44.47,77.8a3.26,3.26,0,0,1,0-6.47,3.23,3.23,0,0,1,2.66,1.4l2.46-1.9a5.86,5.86,0,0,0-5.09-2.56,6.3,6.3,0,1,0-.14,12.59,6.14,6.14,0,0,0,5.37-2.73l-2.53-1.8a3.3,3.3,0,0,1-2.73,1.47"/>
    <path d="M58.83,73H54.52V68.51H51.16V80.62h3.36V76h4.31v4.6h3.35V68.51H58.83Zm0,0"/>
  </g>
  <g>
    <path d="M282.07,70.38A16.3,16.3,0,1,0,265.61,54,16.4,16.4,0,0,0,282.07,70.38Z" style="fill: #fff;fill-rule: evenodd"/>
    <path d="M289.71,43.7a55.76,55.76,0,0,1-7.91.5c0-3.24.1-5.59.16-6.3,3,.51,5.73,2.68,7.75,5.8Z" style="fill: #fff;fill-rule: evenodd"/>
    <path d="M293.24,55.36a78.36,78.36,0,0,1-11.45.73c0-4.42,0-8.69,0-12a54.18,54.18,0,0,0,7.91-.51,22.91,22.91,0,0,1,3.49,11.79Z" style="fill: #c33e41;fill-rule: evenodd"/>
    <path d="M293,55.34c-.85-.14-1.56-1.55-1.19-3-1.19.83-2.54-.87-2.34-2.44.1-.83.65-1.57,1.6-1.23a23,23,0,0,0-1.44-3.75c-.91.12-1.83.21-2.75.27.87,1.32,0,2.55-1.2,2.35a1.84,1.84,0,0,1-1.48-2.17,1.5,1.5,0,0,1-2.33-1.27,56.57,56.57,0,0,0,7.92-.51h0a22.91,22.91,0,0,1,3.49,11.77Zm-19.61,11a6.91,6.91,0,0,1-3.18-1c-.42-.47-1-1.1-1.35-1.59a14.93,14.93,0,0,1-1.37-2.19,15.14,15.14,0,0,1-1-2.39,15.57,15.57,0,0,1-.63-2.56c-.1-.86-.17-1.73-.21-2.59l0-.71c0,.69,1.64,1.35,4.54,1.84,0,.23,0,.46,0,.69a17.41,17.41,0,0,0,3.2,10.54Z" style="fill: #fff;fill-rule: evenodd"/>
    <path d="M282,70.38h-.25l-.45,0a17.91,17.91,0,0,1-2.48-.3,9.63,9.63,0,0,1-5.48-3.73,45.7,45.7,0,0,0,5.46.52c1,0,2.05.07,3.06.07A31.49,31.49,0,0,0,282,70.38Z" style="fill: #fff;fill-rule: evenodd"/>
    <path d="M281.87,66.92c-1,0-2,0-3.06-.07a45.91,45.91,0,0,1-5.46-.52,17.46,17.46,0,0,1-3.17-10.51c0-.18,0-.37,0-.55a65.72,65.72,0,0,0,7.43.7c1.39.06,2.79.09,4.17.09v.56c0,4.25,0,7.85.08,10.3Z" style="fill: #c33e41;fill-rule: evenodd"/>
    <path d="M281.85,67.14c-.14.57-.94,1.11-2.06.65.52.69.07,1.29-.85,1.12-.72-.13-1.57-.7-1.64-1.28-.81-.06-1.62-.15-2.42-.25a9.06,9.06,0,0,0,2.27,1.92c.1,0,.25,0,.74.15s1.21.54,1.84.76h0c-.49-.08-.55-.08-.9-.15a9.62,9.62,0,0,1-5.48-3.73h0a55.58,55.58,0,0,0,8.52.58c0,.07,0,.17,0,.23Z" style="fill: #c33e41;fill-rule: evenodd"/>
    <path d="M273.35,66.33c-2.26-3.23-3.15-6.33-3.17-11,1.27.42,1.63,2.29,1.3,3.34,1.21-.47,2.74,1.63,2.2,3a1,1,0,0,1-1.55.44,16.25,16.25,0,0,0,1.39,3.34q1.29.18,2.88.3c-.85-1-.17-1.9,1-1.84,1,0,2.26.85,2,2,.88-.4,2.36-.08,2.53,1.07-1.06,0-2.67,0-4.73-.16-1.27-.09-2.52-.33-3.79-.43Z" style="fill: #fff;fill-rule: evenodd"/>
    <path d="M273.35,66.33c-1.87-.34-2.68-.6-3.2-1s-.88-1-1.24-1.45l.28.34a6.4,6.4,0,0,1-1.08-1.79c.46-.07,2,2.26,2,2.28a12.93,12.93,0,0,0,1.76.48,15.45,15.45,0,0,1-1.66-3.39c-1,.52-2.32-2.18-1.91-3.31.08-.23.35-.72,1-.19-.52-1.2-.38-3,.87-3,0,4,.58,7.37,3.17,11Z" style="fill: #c33e41;fill-rule: evenodd"/>
    <path d="M290,68.32a18.19,18.19,0,0,1-2.54,1.14c-.35.11-.81.26-1.17.36a12.1,12.1,0,0,0,5.93-3.75,3.81,3.81,0,0,1-1.77,2l-.45.26Z" style="fill: #010101;fill-rule: evenodd"/>
    <path d="M290.43,68.06a4,4,0,0,0,1.77-2A16,16,0,0,0,296,55.34c0-.18,0-.36,0-.54a8.41,8.41,0,0,0,1.76-.64c0,.18,0,.36,0,.54a15.4,15.4,0,0,1-7.32,13.36Z" style="fill: #f6d33c;fill-rule: evenodd"/>
    <path d="M285.51,63.83c-1.09-1.09-1.09-1.09-3.71-3.57,0-1.22,0-2.43,0-3.64v-.54c1.42,0,2.82,0,4.17-.09v.55a53.59,53.59,0,0,1-.45,7.29Z" style="fill: #010101;fill-rule: evenodd"/>
    <path d="M282.71,70.36H282c-.09,0-.18-4-.21-10.12,2.45,2.32,2.71,2.56,3.71,3.57-.55,4-1.58,6.48-2.8,6.53Z" style="fill: #f6d33c;fill-rule: evenodd"/>
    <path d="M283.48,70.31l-.43,0-.34,0c1.22-.06,2.24-2.55,2.8-6.53a15.9,15.9,0,0,1,2.28,2.78c-1.12,2.2-2.61,3.54-4.31,3.69Z" style="fill: #010101;fill-rule: evenodd"/>
    <path d="M287.79,66.62a15.42,15.42,0,0,0-2.28-2.78,53.85,53.85,0,0,0,.45-7.3V56c1.35-.05,2.65-.13,3.86-.24,0,.18,0,.36,0,.54a23.61,23.61,0,0,1-2,10.33Z" style="fill: #f6d33c;fill-rule: evenodd"/>
    <path d="M288.12,68.63a2.23,2.23,0,0,0-.33-2,23.45,23.45,0,0,0,2-10.32c0-.18,0-.36,0-.54l1.33-.13c.6.71,1.35,1.59,2,2.52C292.69,62.82,290.8,66.6,288.12,68.63Z" style="fill: #010101;fill-rule: evenodd"/>
    <path d="M284.53,70.19l-.4,0-.58.07h-.07c1.7-.15,3.2-1.5,4.31-3.7a2.23,2.23,0,0,1,.33,2,8,8,0,0,1-3.59,1.56Z" style="fill: #f6d33c;fill-rule: evenodd"/>
    <path d="M286.27,69.82l-.39.1c-.66.15-.66.15-1,.21l-.32.06c3.2-.5,5.87-3,7.39-6.82a3.7,3.7,0,0,1,.27,2.71,12.08,12.08,0,0,1-5.93,3.74Z" style="fill: #f6d33c;fill-rule: evenodd"/>
    <path d="M285.88,69.92c-.66.15-.66.15-1,.21l-.32.06a8.08,8.08,0,0,0,3.57-1.55c-.38.56-.63.81-1.84,1.18l-.39.1Zm6.32-3.84a3.75,3.75,0,0,0-.27-2.71,20.21,20.21,0,0,0,1.35-7.49c0-.18,0-.36,0-.54A27.55,27.55,0,0,0,296,54.8c0,.18,0,.36,0,.54A16.05,16.05,0,0,1,292.2,66.08Z" style="fill: #010101;fill-rule: evenodd"/>
    <path d="M291.91,63.37a15.26,15.26,0,0,0-2.29-3.43,32.54,32.54,0,0,0,.2-3.65c0-.18,0-.36,0-.54,1.24-.11,2.4-.25,3.44-.41v.54a20,20,0,0,1-1.34,7.49Z" style="fill: #f6d33c;fill-rule: evenodd"/>
    <path d="M289.62,60c-.95-1.08-1.43-1.63-3.66-4,1.26-.06,2.26-.11,3.85-.25,0,.18,0,.37,0,.55a34.38,34.38,0,0,1-.2,3.66Z" style="fill: #010101;fill-rule: evenodd"/>
    <path d="M272.18,43a7,7,0,0,1,2.2-3,16.22,16.22,0,0,1,7.62-2.3A14.94,14.94,0,0,0,272.18,43Z" style="fill: #f6d33c;fill-rule: evenodd"/>
    <path d="M267.66,54.73a6.19,6.19,0,0,1-1.52-.62,17,17,0,0,1,8.25-14,7,7,0,0,0-2.21,3,18.7,18.7,0,0,0-4.52,11.69Z" style="fill: #010101;fill-rule: evenodd"/>
    <path d="M281.79,56.08q-2.09,0-4.17-.09h-.12a58.25,58.25,0,0,1,.65-8.31,51.09,51.09,0,0,0,3.64,4.13v4.28Zm-3.64-8.42a11.83,11.83,0,0,1-2-3.77c1.52-3.21,3.6-5.5,5.89-6.11-1.63.92-3.06,4.81-3.85,9.88Z" style="fill: #f6d33c;fill-rule: evenodd"/>
    <path d="M277.5,56c-1.33-.06-2.65-.15-4-.27a29.26,29.26,0,0,1,2.58-11.82,12,12,0,0,0,2,3.77A58.39,58.39,0,0,0,277.5,56Z" style="fill: #010101;fill-rule: evenodd"/>
    <path d="M273.53,55.71l-1.32-.14a24.14,24.14,0,0,1-1.79-3.1,20.08,20.08,0,0,1,5.81-11.74,4.62,4.62,0,0,0-.13,3.17A29.42,29.42,0,0,0,273.53,55.71Z" style="fill: #f6d33c;fill-rule: evenodd"/>
    <path d="M276.1,43.9a4.63,4.63,0,0,1,.13-3.17A11.16,11.16,0,0,1,282,37.78c-2.29.61-4.37,2.9-5.9,6.12Z" style="fill: #010101;fill-rule: evenodd"/>
    <path d="M272,46.94a7.25,7.25,0,0,1,.23-3.9A14.94,14.94,0,0,1,282,37.78a6.65,6.65,0,0,0-1.75.44c-3.5,1.25-6.5,4.52-8.3,8.72Z" style="fill: #010101;fill-rule: evenodd"/>
    <path d="M276.24,40.71a4.49,4.49,0,0,1,2.3-2.14,13.27,13.27,0,0,1,3.46-.79,11.2,11.2,0,0,0-5.76,2.93Zm-6.08,14.57a23.15,23.15,0,0,1-2.5-.55A18.68,18.68,0,0,1,272.18,43a7.29,7.29,0,0,0-.23,3.9,22.61,22.61,0,0,0-1.79,8.34Z" style="fill: #f6d33c;fill-rule: evenodd"/>
    <path d="M274.4,40.07a10.45,10.45,0,0,1,3.74-1.84,16.76,16.76,0,0,1,3.86-.45A16.17,16.17,0,0,0,274.4,40.07Z" style="fill: #010101;fill-rule: evenodd"/>
    <path d="M266.13,54.11c-.34-.21-.51-.44-.51-.67l0-.56a16.23,16.23,0,0,1,12.49-14.65,10.71,10.71,0,0,0-3.74,1.84,17.09,17.09,0,0,0-8.27,14Z" style="fill: #f6d33c;fill-rule: evenodd"/>
    <path d="M273.53,55.71c-1.12-.11-2.24-.25-3.35-.43A22.6,22.6,0,0,1,272,47a14,14,0,0,0,1.91,4.49,32.07,32.07,0,0,0-.35,4.27Z" style="fill: #010101;fill-rule: evenodd"/>
    <path d="M273.53,55.72a32.37,32.37,0,0,1,.35-4.29A32,32,0,0,0,277.5,56c-1.37-.07-2.36-.12-4-.26Z" style="fill: #f6d33c;fill-rule: evenodd"/>
    <path d="M278.54,38.57a9.12,9.12,0,0,1,3.46-.79A13.27,13.27,0,0,0,278.54,38.57ZM297.85,54.1c.42-.24.61-.49.6-.73a16.44,16.44,0,0,1-8.17,14.78h0l.17-.11a15.41,15.41,0,0,0,7.33-13.37c0-.18,0-.36,0-.54l.09,0c0,.18,0,.36,0,.54V54.1Z" style="fill: #010101;fill-rule: evenodd"/>
    <path d="M289.77,43.57h0l.45-.07c.94-.18,3-.62,3-1.24a8.48,8.48,0,0,1,1.51,2,1.93,1.93,0,0,1,.19.38,1.89,1.89,0,0,1,.1.36l0,0v.19c0,.35-.25.36-.49.26l-.07,0a2.67,2.67,0,0,1-1.28-1.47,15.86,15.86,0,0,1-1.72.56l-.26.05A21.57,21.57,0,0,1,293,48.35c.82-.85,2.11.72,2.17,2.23,0,.89-.36,1.69-1.17,1.4.65,1.21.44,3-.8,3.36a23,23,0,0,0-3.49-11.77h0Zm.15-3h0s0,0,0,0l0,0H290s.12-.5,2,.8a16.2,16.2,0,0,0-8.34-3.39,2.59,2.59,0,0,1,.47.18,1.21,1.21,0,0,1,.22.14h0a4.53,4.53,0,0,1,.63.11h0l.21.08h0l.18.07,0,0,.17.07.05,0,.22.1h0c.57.28,1,.6,1,.84-.08.05-.11.07-.36,0a21.85,21.85,0,0,1,3.17,2.94,17.8,17.8,0,0,0,1.79-.35,5.77,5.77,0,0,1-1.6-1.53Z" style="fill: #c33e41;fill-rule: evenodd"/>
    <path d="M293.21,42.26c-.39-.37-.8-.71-1.22-1a6.1,6.1,0,0,0-1.52-.85h0s-.93-.3-.4.42h0a6.71,6.71,0,0,0,1.45,1.28c-.39.12-1.23.25-1.79.35a21.85,21.85,0,0,0-3.17-2.94c.25.07.28.05.36,0,0-.24-.47-.56-1-.84h0l-.22-.1-.05,0-.17-.08h0l-.18-.08h0l-.21-.07h0a4.14,4.14,0,0,0-.63-.11h0l0,0-.06,0h0a.83.83,0,0,0-.22-.14,3.8,3.8,0,0,0-.47-.18,10.88,10.88,0,0,0-1.14-.06,2.93,2.93,0,0,0-.44,0H282l.08,0-.13,0,.31.05c.25.09.78.23,1.18.33a13.18,13.18,0,0,1,6.37,5.39h.08a11.07,11.07,0,0,0,3-.81h0c.43-.24.38-.48.38-.48Z" style="fill: #fff;fill-rule: evenodd"/>
    <path d="M289.75,43.57h0c-2.66-3.92-5.11-5.1-7.33-5.67l.17.05-.31-.08-.07,0,.21,0-.24-.06-.07,0,0,0-.16,0a3.06,3.06,0,0,0,1.3.8c0,.2,0,.59.68,1.09a2.16,2.16,0,0,0,.31.19c1.06.55,1.3.12,1.35,0,0,0,0,0,0,0a10.79,10.79,0,0,1,1.66,1.54c.4.48.78.9,1.06,1.32-.79.1-1.59.17-2.38.23a1.92,1.92,0,0,0-1.28-1.74c-1-.39-1.37.83-.92,1.69-.82-.45-1.79-.05-1.93,1.24a53.47,53.47,0,0,0,7.91-.51Z" style="fill: #c33e41;fill-rule: evenodd"/>
    <path d="M281.79,51.8a53.18,53.18,0,0,1-3.64-4.13c.79-5.08,2.22-9,3.85-9.89-.11,1.19-.19,7-.21,14Zm-68.63,57.74-7.6-15.9h-.06l-.82,13.41c-.09,1.53,1,1.85,2.4,1.91v.58h-6.22V109c2.18,0,2.45-.47,2.59-3.19l.72-11.6c.12-2,.06-2.5-1.79-2.62V91h4.52l7.18,15,7.15-15h4.38v.54c-1.46.12-2,.15-2,1.16l.95,13.51c.18,2.74.42,2.74,2.59,2.74v.58h-7.66V109c1.4,0,2.77-.38,2.66-2l-.87-13.36h-.06l-7.42,15.91Z" style="fill: #010101;fill-rule: evenodd"/>
    <path d="M239.16,100H234l2.54-6.9,2.62,6.9Zm.51,1.33,2,5.41A3.33,3.33,0,0,1,242,108c0,.83-.62,1-2.32,1h-.78v.58h8.2V109a2.33,2.33,0,0,1-2.71-1.87l-6.23-16.5h-2.6l.27.65L230.4,106c-1,2.59-1.28,2.92-3.22,2.94v.58h6.88V109h-.47c-1.64,0-2.42-.29-2.42-1.1a8.48,8.48,0,0,1,.6-1.87l1.73-4.67Z" style="fill: #010101;fill-rule: evenodd"/>
    <path d="M252.43,91.39a12.21,12.21,0,0,1,1.49-.06c4.62,0,5.88,2.14,5.88,4.92,0,3.57-2.19,5-5.52,5a12.85,12.85,0,0,1-1.85-.06V91.39Zm0,10.35c.48,0,.87.06,1.52.06.81,0,1.29,0,2-.06a21.86,21.86,0,0,1,3.09,2.63l2,2c2.64,2.65,4,3.77,9.19,3.54v-.54a9,9,0,0,1-5.87-3L262,104a38.7,38.7,0,0,0-3.38-3.1,5.06,5.06,0,0,0,3.94-4.83c0-3-2.45-5.31-8-5.31-2,0-2.54,0-3.75.09s-3,.18-3.75.18v.58h.65c1.73,0,2.24.53,2.24,2.38V106.5c0,2-.63,2.46-2.39,2.46h-.5v.58h8.43V109h-.69c-1.68,0-2.4-.44-2.4-2.22v-5Zm28-8c.95-1.64.39-2.14-1.52-2.14V91h6.72v.58A4.09,4.09,0,0,0,281.93,94L277,102.3v4.46c0,1.58.56,2.2,2.38,2.2h.39v.58h-8.21V109h.58c1.86,0,2.4-.68,2.4-2.14v-4.19l-5.33-8.27c-1.45-2.29-2.14-2.7-4.07-2.76V91h7.93v.58c-2.34,0-2.49.56-1.6,1.93l4.79,7.35,4.19-7.14Z" style="fill: #010101;fill-rule: evenodd"/>
    <path d="M298.71,109.54h-13.3V109h1c1.37,0,1.88-.44,1.88-2V93.83c0-1.58-.48-2.23-2.36-2.23h-.41V91h8.77v.58h-1.1c-1.94,0-2.45.21-2.45,2.05v13.73c0,.8.33,1.1,1.19,1.1h4.39c1.76,0,2.29-.69,4.17-3.29H301l-2.3,4.35ZM312.3,100h-5.16l2.54-6.9Zm.5,1.33,2,5.41a3.33,3.33,0,0,1,.33,1.22c0,.83-.63,1-2.33,1H312v.58h8.2V109a2.33,2.33,0,0,1-2.71-1.87l-6.23-16.5h-2.6l.27.65L303.53,106c-.95,2.59-1.28,2.92-3.21,2.94v.58h6.88V109h-.47c-1.64,0-2.42-.29-2.42-1.1a8.48,8.48,0,0,1,.6-1.87l1.73-4.67Zm26.76,8.44L324.15,93.62v12.76c0,2.14.47,2.58,3,2.58v.58h-6.9V109h.12c1.84,0,2.44-.62,2.44-2V92.34a4.33,4.33,0,0,0-2.5-.74V91H325l14,14.63V93.8c0-1.81-.53-2.14-2.91-2.2V91h7v.58c-2.24,0-2.71.39-2.71,1.55v16.61Zm9-18.31c.36,0,1.17-.12,2.39-.12,4.18,0,6.3,1,7.67,2.41a8.93,8.93,0,0,1,2.39,6.39,9.18,9.18,0,0,1-2.48,6.43C356.71,108.4,355,109,351,109c-2.36,0-2.45-.41-2.45-1.63V91.45Zm-2.45,15.34c0,1.73-.75,2.17-2.36,2.17h-.51v.58h9.53c7.55,0,11-5.39,11-9.88,0-4.91-3.47-8.91-11.35-8.91-1.55,0-3.37,0-5,.09s-3.09.12-4.19.18v.53h.59c1.76,0,2.27.47,2.27,2.41v12.83ZM213.27,78.63v.26c-1,0-1.31.41-1.31,1.33v3.87c0,1.79-1.14,3.7-4.25,3.7-2.75,0-4.16-1.57-4.16-3.62V80c0-.92-.26-1.06-1.23-1.08v-.26H206v.26h-.13c-.79,0-1.13.22-1.13,1v4c0,1.94,1.13,3.1,3.27,3.1,1.62,0,3.28-.68,3.28-3.12V80.58c0-1.38-.22-1.63-1.41-1.69v-.26Zm14,9.05-7.43-7.81v6.18c0,1,.23,1.26,1.45,1.26v.26H218v-.26h.06c.89,0,1.17-.31,1.17-1V79.25a2.13,2.13,0,0,0-1.2-.36v-.26h2.25L227,85.69V80c0-.88-.26-1-1.4-1.07v-.26H229v.26c-1.08,0-1.31.19-1.31.75v8Zm11-.11h-3.5v-.26c.89,0,1.08-.28,1.08-1.24V79.93c0-.78-.27-1-1.08-1v-.26h3.5v.26c-.91,0-1.22.21-1.22,1.17v6.11c0,.85.23,1.14,1.22,1.14Zm9.64.22L244.77,80c-.36-.91-.53-1.13-1.41-1.13v-.26h3.95v.26c-1.32,0-1.63.34-1.36,1l2.59,6.43,2.27-5.93a3,3,0,0,0,.24-.89c0-.43-.36-.61-1.34-.61v-.26h3.34v.26c-.75,0-1.14.35-1.48,1.24l-3,7.66Zm16.44-3.45h-.26c-.12-1-.39-1.15-1-1.15h-2.43v3.08c0,.67.24.8.77.8h2.23c1,0,1.3-.39,1.66-1.64h.26l-.23,2.14h-7.65v-.26h.41c1.15,0,1.35-.32,1.35-1.19V80.05c0-.81-.19-1.16-1.15-1.16H258v-.26h6.91l.12,2h-.26c-.19-1.23-.54-1.49-1.06-1.49h-3v3.56h2.58c.52,0,.76-.25.84-1.09h.26v2.74Zm9.61-5.55a5.7,5.7,0,0,1,.72,0c2.21,0,2.81,1,2.81,2.38,0,1.72-1.05,2.4-2.64,2.4a5.37,5.37,0,0,1-.89,0V78.79Zm0,5c.23,0,.42,0,.73,0s.62,0,1,0a11.09,11.09,0,0,1,1.48,1.29l.95,1c1.28,1.28,1.93,1.83,4.44,1.71v-.26A4.33,4.33,0,0,1,279.69,86l-1.14-1.14a16.52,16.52,0,0,0-1.64-1.49,2.46,2.46,0,0,0,1.92-2.33c0-1.47-1.2-2.56-3.86-2.56-.93,0-1.22,0-1.81.05s-1.47.09-1.81.09v.26h.32c.83,0,1.07.26,1.07,1.16v6.06c0,1-.3,1.2-1.15,1.2h-.24v.26h4.07v-.26h-.33c-.81,0-1.15-.22-1.15-1.09V83.78Zm12.47,1.59a2.49,2.49,0,0,0,2.42,2,1.8,1.8,0,0,0,2-1.69c0-2.07-4.6-2.7-4.6-5.21a2.29,2.29,0,0,1,2.55-2.08c1.2,0,1.44.36,1.95.36a.25.25,0,0,0,.25-.14h.23l.24,1.82h-.24a2.53,2.53,0,0,0-2.3-1.69c-.95,0-1.61.54-1.61,1.35,0,2,4.6,2.58,4.6,5.21A2.65,2.65,0,0,1,289,87.78a11.55,11.55,0,0,1-2-.39.31.31,0,0,0-.29.18h-.24l-.3-2.2ZM302,87.57h-3.5v-.26c.89,0,1.08-.28,1.08-1.24V79.93c0-.78-.27-1-1.08-1v-.26H302v.26c-.91,0-1.22.21-1.22,1.17v6.11c0,.85.23,1.14,1.22,1.14Zm10.22-1.32c0,.78.26,1.06,1.13,1.06h.53v.26h-4.53v-.26h.53c.88,0,1.14-.28,1.14-1.06V79.13h-2.5c-.58,0-.84.34-1.05,1.6h-.26l.23-2.32h.27a.2.2,0,0,0,.16.17.93.93,0,0,0,.29,0h6.92c.2,0,.41,0,.44-.22h.28l.23,2.32h-.26c-.22-1.26-.48-1.6-1.05-1.6h-2.5v7.12Zm15.71-6.32c.47-.79.19-1-.74-1v-.26h3.26v.26a2,2,0,0,0-1.8,1.14l-2.4,4v2.16c0,.76.28,1.07,1.16,1.07h.19v.26h-3.95v-.26h.27c.88,0,1.14-.34,1.14-1v-2l-2.54-4c-.71-1.1-1-1.31-2-1.34v-.26h3.82v.26c-1.11,0-1.18.28-.75.94l2.28,3.56,2-3.46Zm22.56,3.39c0,2.05-1.12,4.12-3.47,4.12a4.27,4.27,0,0,1-4.15-4.59c0-1.73,1-4.09,3.54-4.09S350.46,80.65,350.46,83.32Zm1.36-.47c0-2.59-2.34-4.44-5.06-4.44-3.07,0-5.27,2-5.27,4.89,0,2.69,2.37,4.49,5.2,4.49A5,5,0,0,0,351.82,82.85Zm9.72,1.28h-.24c0-.84-.33-1.1-1-1.1h-2.66v3.16c0,.81.17,1.12,1.25,1.12v.26h-3.5v-.26c.89-.06,1.05-.25,1.05-1.42V80.25c0-.92-.07-1.34-1.08-1.36v-.27h6.45v1.7h-.24c0-.84-.31-1.19-1.2-1.19h-2.73v3.39h2.85c.53,0,.79-.3.83-.92h.25v2.53Z" style="fill: #010101;fill-rule: evenodd"/>
    <path d="M343.3,91.55V91H343v.55Z" style="fill: #010101;fill-rule: evenodd"/>
  </g>
</svg>
