<?xml version="1.0" encoding="UTF-8"?>
<svg width="1600px" height="436px" viewBox="0 0 1600 436" version="1.1" xmlns="http://www.w3.org/2000/svg" xmlns:xlink="http://www.w3.org/1999/xlink">
    <!-- Generator: Sketch 61.2 (89653) - https://sketch.com -->
    <title>SDF Large Black</title>
    <desc>Created with Sketch.</desc>
    <g id="SDF-Large-Black" stroke="none" stroke-width="1" fill="none" fill-rule="evenodd">
        <path d="M409.090909,0 C424.15322,-9.87232907e-15 436.363636,12.2104159 436.363636,27.2727273 L436.363636,408.727273 C436.363636,423.789584 424.15322,436 409.090909,436 L27.2727273,436 C12.2104159,436 5.39731482e-15,423.789584 0,408.727273 L0,27.2727273 C1.70811254e-15,12.2104159 12.2104159,-7.8581197e-16 27.2727273,0 L409.090909,0 Z M769.120672,335.215868 L769.121396,393.653482 C769.169637,408.646011 771.671896,421.551915 789.72015,421.551915 C805.419001,421.551915 814.510563,410.974325 814.690824,389.998348 L814.693557,389.35953 L814.693557,335.215868 L831.280204,335.215868 L831.280204,433.624412 L814.693557,433.624412 L814.693557,419.538658 C809.042435,428.867598 800.10911,436 783.886371,436 C761.506537,436 752.707586,420.944033 752.533844,398.81284 L752.531215,398.14004 L752.531215,335.215868 L769.120672,335.215868 Z M1087.1389,333.20402 C1114.39002,333.20402 1126.09515,345.57379 1126.1493,372.975401 L1126.14738,373.810357 L1125.96753,396.493342 C1125.7867,412.844568 1126.48874,423.902243 1128.41475,433.131706 L1128.51911,433.624412 L1111.7484,433.624412 C1111.20043,429.965866 1110.65386,425.940761 1110.47261,420.088497 C1104.45617,430.332426 1094.43112,436 1076.92979,436 C1058.51938,436 1043.20712,425.760301 1043.20712,407.64944 C1043.20712,384.651735 1068.93395,377.612305 1108.36177,373.212588 L1109.56073,373.080057 L1109.56073,370.70306 C1109.56073,352.592199 1099.71553,346.739935 1087.31875,346.739935 C1073.60924,346.739935 1065.79285,353.905382 1064.92482,365.931422 L1064.89972,366.312804 L1047.7623,366.312804 C1049.22215,345.094647 1068.18052,333.20402 1087.1389,333.20402 Z M1031.34285,301.011634 L1031.34285,433.624412 L1014.75339,433.624412 L1014.75339,418.808358 C1008.73696,429.232747 998.527844,436 982.670419,436 C960.064526,436 940.742241,417.52681 940.742241,384.784585 C940.742241,352.592199 960.064526,333.56917 982.670419,333.56917 C998.341286,333.56917 1008.49596,340.179507 1014.5393,350.398546 L1014.75339,350.765041 L1014.75339,301.011634 L1031.34285,301.011634 Z M694.18078,333.56917 C716.96652,333.56917 741.213515,349.118343 741.213515,384.784585 C741.213515,420.453647 716.96652,436 694.18078,436 C671.395041,436 647.150856,420.453647 647.150856,384.784585 C647.150856,349.118343 671.395041,333.56917 694.18078,333.56917 Z M1270.71747,333.56917 C1293.50321,333.56917 1317.7488,349.118343 1317.7488,384.784585 C1317.7488,420.453647 1293.50321,436 1270.71747,436 C1247.93032,436 1223.68754,420.453647 1223.68754,384.784585 C1223.68754,349.118343 1247.93032,333.56917 1270.71747,333.56917 Z M1211.3863,335.215868 L1211.3863,433.624412 L1194.79685,433.624412 L1194.79685,335.215868 L1211.3863,335.215868 Z M640.934903,301.011634 L640.934903,317.107827 L573.670814,317.107827 L573.670814,357.349014 L637.108944,357.349014 L637.108944,373.445207 L573.670814,373.445207 L573.670814,433.624412 L555.077751,433.624412 L555.077751,301.011634 L640.934903,301.011634 Z M1163.26184,310.523854 L1163.26184,335.215868 L1181.85491,335.215868 L1181.85491,348.569913 L1163.26184,348.569913 L1163.26213,407.256357 C1163.27894,417.106339 1164.0781,419.666112 1173.15547,419.722391 L1173.46815,419.723347 L1181.85491,419.723347 L1181.85491,433.624412 L1169.82344,433.624412 C1151.23687,433.624412 1146.76136,429.499774 1146.67371,409.539301 L1146.67239,408.929579 L1146.67239,348.569913 L1131.17887,348.569913 L1131.17887,335.215868 L1146.67239,335.215868 L1146.67239,310.523854 L1163.26184,310.523854 Z M1378.35715,333.56917 C1401.81918,333.56917 1410.45131,348.630664 1410.62161,370.761967 L1410.62418,371.434769 L1410.62418,433.624412 L1394.03613,433.624412 L1394.03613,376.370634 C1394.03613,361.19084 1391.48315,348.020074 1372.52618,348.020074 C1356.64372,348.020074 1346.83974,358.597665 1346.64525,379.573641 L1346.6423,380.21246 L1346.6423,433.624412 L1330.05284,433.624412 L1330.05284,335.215868 L1346.6423,335.215868 L1346.6423,350.031922 C1352.29202,340.702982 1361.77191,333.56917 1378.35715,333.56917 Z M897.323302,333.56917 C920.783945,333.56917 929.416059,348.630664 929.586355,370.761967 L929.588932,371.434769 L929.588932,433.624412 L912.999475,433.624412 L912.998696,375.915854 C912.946803,360.928742 910.258316,348.020074 891.489523,348.020074 C875.608451,348.020074 865.804487,358.597665 865.609996,379.573641 L865.607047,380.21246 L865.607047,433.624412 L849.01759,433.624412 L849.01759,335.215868 L865.607047,335.215868 L865.607047,350.031922 C871.255359,340.702982 880.736655,333.56917 897.323302,333.56917 Z M1110.83792,386.249413 C1080.75855,389.17625 1061.61612,393.748375 1061.61612,407.282881 C1061.61612,416.611821 1068.72849,422.830644 1080.57449,422.830644 C1095.91586,422.830644 1110.54251,415.838795 1110.83351,393.158907 L1110.83792,392.466827 L1110.83792,386.249413 Z M986.863096,347.838204 C969.90973,347.838204 958.791548,360.82428 958.791548,384.784585 C958.791548,408.747709 969.90973,421.733785 986.863096,421.733785 C1001.62739,421.733785 1015.48121,410.759557 1015.48121,384.784585 C1015.48121,358.812432 1001.62739,347.838204 986.863096,347.838204 Z M1270.71747,348.204764 C1255.58645,348.204764 1241.36872,357.898853 1241.36872,384.784585 C1241.36872,411.124707 1255.58645,421.368635 1270.71747,421.368635 C1285.84707,421.368635 1300.06761,410.029258 1300.06761,384.784585 C1300.06761,358.448693 1285.84707,348.204764 1270.71747,348.204764 Z M694.18078,348.204764 C679.051173,348.204764 664.833444,357.898853 664.833444,384.784585 C664.833444,411.124707 679.051173,421.368635 694.18078,421.368635 C709.313198,421.368635 723.530927,410.029258 723.530927,384.784585 C723.530927,358.448693 709.313198,348.204764 694.18078,348.204764 Z M1211.3863,301.014454 L1211.3863,321.134343 L1194.79685,321.134343 L1194.79685,301.014454 L1211.3863,301.014454 Z M339.393939,166.544313 L148.026893,264.351917 L131.3292,272.907508 L96.969697,290.481991 L96.969697,311.495182 L131.093299,294.044246 L160.283492,279.115717 L301.383098,206.944001 L301.533307,208.169397 C301.910429,211.439627 302.100031,214.729252 302.101058,218.021999 C302.082587,247.937131 286.269505,275.601181 260.549849,290.713378 C235.08739,305.674454 203.692659,306.114096 177.844796,291.925392 L177.063237,291.490953 L176.03758,292.036617 L157.924481,301.3026 L158.863502,301.978888 C189.949762,324.103402 230.736923,327.117306 264.746964,309.721875 C299.10054,292.150732 320.735002,256.724688 320.747499,218.021999 C320.747499,215.376046 320.644933,212.730093 320.450058,210.115027 C319.892736,202.713083 323.740049,195.692041 330.234993,192.193285 L330.573291,192.015472 L339.393939,187.506027 L339.393939,166.544313 Z M1154.28215,184.235638 C1176.88664,184.235638 1196.21174,203.260077 1196.21174,235.453873 C1196.21174,268.194688 1176.88664,286.670698 1154.28215,286.670698 C1138.6099,286.670698 1128.45521,280.063115 1122.41186,269.841419 L1122.19777,269.474827 L1122.19777,316.305626 L1105.61113,316.305626 L1105.61113,185.882336 L1122.19777,185.882336 L1122.19777,201.4301 C1128.21421,191.004301 1138.42332,184.235638 1154.28215,184.235638 Z M909.447502,184.235638 C939.227468,184.235638 956.855972,208.795546 955.260105,239.636538 L955.205854,240.573018 L879.734852,240.573018 C880.280012,261.792585 895.593682,272.037924 909.995472,272.037924 C924.408944,272.037924 932.412528,265.606176 936.644824,256.095399 L936.792638,255.758451 L953.930066,255.758451 C949.553326,272.586353 933.875748,286.670698 909.995472,286.670698 C879.004225,286.670698 861.868202,264.352862 861.868202,235.270593 C861.868202,203.990377 882.651741,184.235638 909.447502,184.235638 Z M722.349277,184.235638 C752.126461,184.235638 769.754938,208.795546 768.15907,239.636538 L768.104819,240.573018 L692.633817,240.573018 C693.181788,261.792585 708.492647,272.037924 722.894438,272.037924 C737.309298,272.037924 745.312898,265.606176 749.545195,256.095399 L749.693008,255.758451 L766.829031,255.758451 C762.455102,272.586353 746.777524,286.670698 722.894438,286.670698 C691.904595,286.670698 674.767167,264.352862 674.767167,235.270593 C674.767167,203.990377 695.550707,184.235638 722.349277,184.235638 Z M1406.47085,184.235638 C1436.24942,184.235638 1453.87791,208.795546 1452.28341,239.636538 L1452.2292,240.573018 L1376.75398,240.573018 C1377.30195,261.792585 1392.61562,272.037924 1407.01882,272.037924 C1421.4309,272.037924 1429.43447,265.606176 1433.66677,256.095399 L1433.81458,255.758451 L1450.95201,255.758451 C1446.57667,272.586353 1430.89769,286.670698 1407.01882,286.670698 C1376.02617,286.670698 1358.89155,264.352862 1358.89155,235.270593 C1358.89155,203.990377 1379.67087,184.235638 1406.47085,184.235638 Z M1046.27154,184.235638 C1069.05868,184.235638 1093.30286,199.784811 1093.30286,235.453873 C1093.30286,271.121525 1069.05868,286.670698 1046.27154,286.670698 C1023.48439,286.670698 999.237396,271.121525 999.237396,235.453873 C999.237396,199.784811 1023.48439,184.235638 1046.27154,184.235638 Z M1315.81685,184.235638 C1338.37612,184.235638 1347.35589,199.294368 1347.53323,221.426985 L1347.53591,222.099827 L1347.53591,284.29229 L1330.94646,284.29229 L1330.94557,226.583648 C1330.8866,211.593772 1327.8491,198.683723 1309.98307,198.683723 C1295.7253,198.683723 1286.4705,209.264077 1286.28683,230.240109 L1286.28404,230.878928 L1286.28404,284.29229 L1269.69459,284.29229 L1269.69459,227.038512 C1269.69459,211.855898 1266.7777,198.683723 1248.7298,198.683723 C1234.47202,198.683723 1225.21723,209.264077 1225.03356,230.240109 L1225.03077,230.878928 L1225.03077,284.29229 L1208.43991,284.29229 L1208.43991,185.882336 L1225.03077,185.882336 L1225.03077,200.69839 C1230.6833,191.37086 1239.79647,184.235638 1254.56357,184.235638 C1269.69459,184.235638 1278.44385,190.636331 1282.81918,201.61056 C1290.65657,189.356193 1301.96162,184.235638 1315.81685,184.235638 Z M789.3169,185.882336 L815.932813,261.245565 L842.545917,185.882336 L859.68475,185.882336 L822.678471,284.29229 L807.912772,284.29229 L770.903684,185.882336 L789.3169,185.882336 Z M1512.25867,184.235638 C1535.72071,184.235638 1544.35146,199.294368 1544.52173,221.426985 L1544.5243,222.099827 L1544.5243,284.29229 L1527.93625,284.29229 L1527.93625,227.038512 C1527.93625,211.855898 1525.38468,198.683723 1506.42489,198.683723 C1490.54243,198.683723 1480.7357,209.264077 1480.54115,230.240109 L1480.5382,230.878928 L1480.5382,284.29229 L1463.94734,284.29229 L1463.94734,185.882336 L1480.5382,185.882336 L1480.5382,200.69839 C1486.19073,191.37086 1495.66781,184.235638 1512.25867,184.235638 Z M590.88833,151.675283 C632.633851,151.675283 662.894472,167.591016 662.894472,217.891442 C662.894472,267.874498 633.236038,283.970575 592.137231,284.287498 L590.88833,284.29229 L554.791121,284.29229 L554.791121,151.675283 L590.88833,151.675283 Z M986.936159,151.675283 L986.936159,284.29229 L970.345297,284.29229 L970.345297,151.675283 L986.936159,151.675283 Z M1581.40553,161.187503 L1581.40553,185.882336 L1600,185.882336 L1600,199.234972 L1581.40553,199.234972 L1581.40553,257.585609 C1581.40553,267.715717 1582.11727,270.333351 1591.29912,270.39027 L1591.61184,270.391225 L1600,270.391225 L1600,284.29229 L1587.96713,284.29229 C1569.37917,284.29229 1564.90364,280.169034 1564.81599,260.205853 L1564.81467,259.596047 L1564.81467,199.234972 L1549.31975,199.234972 L1549.31975,185.882336 L1564.81467,185.882336 L1564.81467,161.187503 L1581.40553,161.187503 Z M1150.08948,198.503263 C1135.32378,198.503263 1121.46855,209.478901 1121.46855,235.453873 C1121.46855,261.427435 1135.32378,272.401663 1150.08948,272.401663 C1167.04425,272.401663 1178.16243,259.415587 1178.16243,235.453873 C1178.16243,211.489339 1167.04425,198.503263 1150.08948,198.503263 Z M1046.30666,198.868412 C1031.17565,198.868412 1016.95511,208.563912 1016.95511,235.453873 C1016.95511,261.792585 1031.17565,272.037924 1046.30666,272.037924 C1061.43627,272.037924 1075.6554,260.697136 1075.6554,235.453873 C1075.6554,209.113751 1061.43627,198.868412 1046.30666,198.868412 Z M171.591502,126.291004 C137.237756,143.874203 115.612156,179.313682 115.616138,218.021999 C115.616138,220.643929 115.715285,223.255564 115.913578,225.856903 C116.471826,233.261773 112.619485,240.284894 106.11869,243.778897 L105.780089,243.956458 L96.969697,248.465903 L96.969697,269.499686 L122.908558,256.228738 L131.308687,251.925204 L139.585737,247.693738 L288.182895,171.692082 L304.880588,163.157081 L339.393939,145.500235 L339.393939,124.476748 L305.178028,141.999752 L275.987836,156.928281 L135.031821,228.997042 L134.881715,227.779681 C134.504831,224.530864 134.315192,221.262565 134.313861,217.991113 C134.353078,188.111751 150.147927,160.486226 175.829467,145.37944 C201.254192,130.423722 232.606695,129.950658 258.447255,144.079254 L259.228604,144.511863 L275.936553,135.966567 L278.428899,134.689921 L277.489657,134.013652 C246.396134,111.889841 205.601711,108.883638 171.591502,126.291004 Z M590.340359,167.406326 L573.385588,167.406326 L573.385588,268.561247 L590.340359,268.561247 C617.504244,268.561247 643.936095,263.072723 643.936095,217.891442 C643.936095,172.89203 617.504244,167.406326 590.340359,167.406326 Z M722.349277,198.503263 C707.910675,198.503263 694.543449,206.391893 692.863785,225.717669 L692.816474,226.306803 L750.606292,226.306803 C750.058322,212.405738 740.031866,198.503263 722.349277,198.503263 Z M1405.89056,198.503263 C1391.45335,198.503263 1378.08752,206.391893 1376.40515,225.717669 L1376.35776,226.306803 L1434.14617,226.306803 C1433.5982,212.405738 1423.57315,198.503263 1405.89056,198.503263 Z M908.867215,198.503263 C894.431394,198.503263 881.064197,206.391893 879.383169,225.717669 L879.335817,226.306803 L937.12423,226.306803 C936.57626,212.405738 926.549803,198.503263 908.867215,198.503263 Z M597.574976,0 C621.206712,0 641.980982,10.5734451 647.524282,35.4453191 L647.687586,36.2033927 L629.646709,36.2033927 C625.27278,21.0278283 609.964731,15.7239939 596.845754,15.7239939 C586.640856,15.7239939 568.781231,20.2975289 568.781231,35.1079436 C568.781231,46.6810614 577.692465,52.5312089 589.876808,55.3124864 L590.284157,55.4040627 L605.592207,58.8765093 C625.820751,63.2667645 650.0551,70.9461866 650.0551,97.642999 C650.0551,123.424822 626.000597,137.321658 599.762643,137.321658 C568.912996,137.321658 549.312816,120.474893 545.56331,94.5911081 L545.454545,93.8039928 L563.679484,93.8039928 C567.141534,112.088264 579.534099,121.596254 600.126552,121.596254 C619.80572,121.596254 630.923902,112.453414 630.923902,99.2882873 C630.923902,85.3489731 619.313638,79.8330411 602.990152,75.9977647 L602.494065,75.8820516 L586.092885,72.4081952 C567.870756,68.3859093 549.82988,58.1462099 549.82988,36.2033927 C549.82988,10.7881289 576.251896,0 597.574976,0 Z M753.99809,34.9246639 C783.765536,34.9246639 801.388407,59.4776625 799.792429,90.3062054 L799.738176,91.2423057 L724.295275,91.2423057 C724.840436,112.453414 740.148485,122.694523 754.544655,122.694523 C768.952572,122.694523 776.956091,116.262775 781.18703,106.756082 L781.334795,106.41928 L798.463793,106.41928 C794.088459,123.241543 778.416501,137.321658 754.544655,137.321658 C723.564648,137.321658 706.43565,115.015101 706.43565,85.9384713 C706.43565,54.6709436 727.21076,34.9246639 753.99809,34.9246639 Z M915.566506,34.5581043 C942.809284,34.5581043 954.514331,46.923729 954.567113,74.3170491 L954.56515,75.1517523 L954.382493,97.823459 C954.204421,114.1733 954.905157,125.226869 956.82979,134.452177 L956.934068,134.94466 L940.168979,134.94466 C939.622414,131.286114 939.075848,127.265238 938.893192,121.414384 C932.879566,131.651264 922.857325,137.321658 905.364419,137.321658 C886.956823,137.321658 871.651584,127.080549 871.651584,108.978147 C871.651584,85.9902126 897.36878,78.9481163 936.782769,74.5538167 L937.981312,74.4214529 L937.981312,72.0416357 C937.981312,53.9406443 928.143133,48.0897903 915.750568,48.0897903 C902.04523,48.0897903 894.227511,55.2524757 893.36082,67.274359 L893.335762,67.65561 L876.206765,67.65561 C877.662399,46.4445019 896.615155,34.5581043 915.566506,34.5581043 Z M860.645806,2.33611206 L860.645806,134.94466 L844.061969,134.94466 L844.061969,2.33611206 L860.645806,2.33611206 Z M685.664756,11.8835779 L685.664756,36.5699522 L704.252198,36.5699522 L704.252198,49.9197682 L685.664756,49.9197682 L685.665036,108.587743 C685.681819,118.433589 686.47961,120.989273 695.554263,121.045461 L695.866844,121.046415 L704.252198,121.046415 L704.252198,134.94466 L692.222137,134.94466 C673.642521,134.94466 669.16846,130.824167 669.080836,110.869249 L669.079514,110.259696 L669.079514,49.9197682 L653.591618,49.9197682 L653.591618,36.5699522 L669.079514,36.5699522 L669.079514,11.8835779 L685.664756,11.8835779 Z M827.483752,2.33611206 L827.483752,134.94466 L810.899914,134.94466 L810.899914,2.33611206 L827.483752,2.33611206 Z M1018.73358,36.1642674 L1019.18352,36.2033927 L1019.18352,53.9406443 C1015.72007,53.3922148 1012.62052,53.2103449 1009.8891,53.2103449 C994.734131,53.2103449 987.080184,61.2730804 986.92862,82.7267967 L986.926324,83.3810137 L986.926324,134.94466 L970.345297,134.94466 L970.345297,36.5699522 L986.562415,36.5699522 L986.562415,53.7587743 C991.484315,42.604086 1001.3239,36.5699522 1014.26303,36.0201129 L1014.9985,36.0207803 C1016.19433,36.0241172 1017.2735,36.0441387 1018.73358,36.1642674 Z M938.792028,87.5879892 C908.725305,90.5120063 889.589892,95.0827216 889.589892,108.614408 C889.589892,117.939118 896.696648,124.155122 908.541243,124.155122 C923.875651,124.155122 938.496725,117.166036 938.787613,94.4957791 L938.792028,93.8039928 L938.792028,87.5879892 Z M753.99809,49.1852393 C739.566442,49.1852393 726.206172,57.0711059 724.523919,76.3927226 L724.476527,76.9817302 L782.243864,76.9817302 C781.698704,63.0820749 771.673653,49.1852393 753.99809,49.1852393 Z" id="Combined-Shape" fill="#000000"></path>
    </g>
</svg>