<svg xmlns="http://www.w3.org/2000/svg" viewBox="0 0 1080 1080"><defs><style>.cls-1{opacity:0;}.cls-2{fill:#fff;}</style></defs><g id="Layer_2" data-name="Layer 2"><rect class="cls-1" width="1080" height="1080"/></g><g id="Layer_1" data-name="Layer 1"><path class="cls-2" d="M611.22,541.06c-.09,165-134.42,299.55-299.16,299.61-165.66.05-299.5-134.82-299.41-301.73.09-165,134.4-299.54,299.14-299.61C477.45,239.26,611.32,374.16,611.22,541.06Z"/><path class="cls-2" d="M632.16,539.82C630.54,465,643.48,393.16,682,328.06c58.57-98.95,151.32-97.94,208.35,2.39,42,73.86,53.79,154.86,49.23,238.43-3.2,58.64-15.19,115.55-42.29,168.46a222.94,222.94,0,0,1-32.22,47.48c-48.91,54.62-114,54.19-161-2.05-48.75-58.32-65.24-128.69-71.75-202.21C631.14,567.08,632.16,553.4,632.16,539.82Z"/><path class="cls-2" d="M1067,539.22c1.65,66.53-3.24,132.44-19.2,197.25-4,16.32-8.76,32.52-18.67,46.4-12.53,17.56-25.65,17.52-37.64-.69-13-19.68-18.68-42.46-22.83-65.18a979.31,979.31,0,0,1,.16-354.82c2.71-14.83,7.63-29.37,12.78-43.6,5.37-14.84,10.19-33.9,29.3-33.5,18.7.38,23.64,19.48,29.26,34.16,12.66,33.05,17.23,68,21.7,102.83C1066.89,461,1068,500.06,1067,539.22Z"/></g></svg>