<svg id="Layer_1" data-name="Layer 1" xmlns="http://www.w3.org/2000/svg" viewBox="0 0 1080 1080"><defs><style>.cls-1{fill:#fff;}</style></defs><path class="cls-1" d="M465,584.32c-3.19-.62-5.48-1-7.71-1.51-57.12-14.2-114.84,7.37-149.91,56.06-33,45.86-35.78,108.89-3.77,156.43,33.95,50.42,88.29,76.38,152.76,61.94,56.77-12.7,100.34-62.87,106.71-121.83a148.76,148.76,0,0,0,.88-15.93q.07-159.88,0-319.77.09-169.87.34-339.75v-9.4c3.87-.18,7-.43,10.07-.44,34.91,0,69.82-.14,104.72,0,15.69.09,31.37,1,47.06,1.15,4.78.06,6.37,1.71,6.54,6.53,1.3,37.63,10.32,73.35,29.17,106,33.29,57.65,82.45,95.47,146.6,113,16.79,4.58,34.43,6.13,51.75,8.57,4.41.62,6.76,1.29,6.75,6.38-.13,52.23-.08,104.45-.12,156.68a30.26,30.26,0,0,1-.82,4.61c-85-.36-161.86-25.55-232.77-74.77-.28,5.05-.64,8.58-.64,12.11,0,107.66-.47,215.32.12,323,.43,77.47-22.76,146.44-72.52,205.66C611.37,977.29,549,1013.52,473.6,1025.58c-68.69,11-134.73,1.59-195.77-32.27C183.2,940.83,126.52,861,114.93,752.65c-10.12-94.56,18.83-177.5,84.38-246.58,56.63-59.68,126.92-91.27,209-95.53,16.88-.88,33.94,1.84,50.93,2.61,5.94.27,5.8,3.86,5.79,8.13-.08,30.65,0,61.29,0,91.94v71.1Z"/></svg>