<?xml version="1.0" encoding="utf-8"?>
<!-- Generator: Adobe Illustrator 24.3.0, SVG Export Plug-In . SVG Version: 6.00 Build 0)  -->
<svg version="1.1" id="Layer_1" xmlns="http://www.w3.org/2000/svg" xmlns:xlink="http://www.w3.org/1999/xlink" x="0px" y="0px"
	 viewBox="0 0 800 550" style="enable-background:new 0 0 800 550;" xml:space="preserve">
<style type="text/css">
	.st0{fill:#76B58B;}
	.st1{fill:#A0D6B4;}
	.st2{fill:#FFEC98;}
	.st3{fill:#76965D;}
	.st4{fill:#8E7096;}
	.st5{fill:#CBAFCD;}
	.st6{fill:#FFB735;}
</style>
<g>
	<g id="Layer_6">
		<path class="st0" d="M410.8,418.3c2.8-9.9,4.2-20.2,4.1-30.5c0-49-30.7-88.8-68.5-88.8c-4.2,0-8.3,0.5-12.4,1.5
			c-12.4-48.1-44.8-82.3-82.8-82.3c-39.3,0-72.6,36.7-84,87.4c-8-4.3-16.9-6.5-26-6.5c-40.5,0-73.3,45.4-73.3,101.4
			c0,6,0.4,12,1.1,17.9h341.8V418.3z"/>
		<path class="st1" d="M427.9,490.3c3.3-7.2,5-15.1,5-23c0-37-37.4-67-83.5-67c-5.1,0-10.1,0.4-15.1,1.1
			c-15.1-36.3-54.6-62.1-100.9-62.1c-47.9,0-88.5,27.7-102.4,65.9c-10.2-3.3-20.9-4.9-31.6-4.9c-49.4,0-89.5,34.2-89.5,76.5
			c0,4.5,0.5,9.1,1.4,13.5H427.9z"/>
		<path class="st0" d="M785.9,490.3c2.8-10.7,4.2-21.8,4.1-32.9c0-52.9-30.7-95.8-68.5-95.8c-4.2,0-8.3,0.5-12.4,1.6
			c-12.4-51.9-44.8-88.9-82.8-88.9c-39.3,0-72.6,39.6-84,94.3c-7.9-4.6-16.9-7-26-7c-40.5,0-73.4,49-73.4,109.4
			c0,6.4,0.4,12.9,1.2,19.3H785.9z"/>
		<path class="st1" d="M766,490.3c3.3-7.2,5-15.1,5-23c0-37-37.4-67-83.5-67c-5.1,0-10.1,0.4-15.1,1.1
			c-15.1-36.3-54.6-62.1-100.8-62.1c-47.9,0-88.5,27.7-102.4,65.9c-10.2-3.3-20.9-4.9-31.6-4.9c-49.4,0-89.5,34.2-89.5,76.5
			c0,4.5,0.5,9.1,1.4,13.5H766z"/>
	</g>
	<g id="Layer_4">
		<path class="st2" d="M400.4,507.7c0,0-169.3,16.3-204.5-105.2c-16.1-55.5,0.2-119.9,27.7-176.6c33.6-69.4,83.9-127.5,112.6-144.7
			c49.9-29.9,129.2-2.5,152.6,14.3s166.3,137.9,128.5,274.7S400.4,507.7,400.4,507.7z"/>
		<path class="st2" d="M193,317c0,0-40.3,19.5-62.3,18.7c-29-1,17.3-94.5,92.9-109.8"/>
		<path class="st2" d="M622.2,293.2c0,0,42.2,14.9,64,11.7s-27.8-91.9-104.6-98.8"/>
		<path class="st2" d="M321.3,92.2c0,0-24.3-21.8-7-30.2s54.3,7.7,54.3,7.7s-16.7-24.4,3.7-33.7c19.4-8.9,39.7,33.3,39.7,33.3
			s14.7-42.4,37.6-40.6c31.7,2.5-11.4,45.7-11.4,45.7"/>
		<path class="st3" d="M116.8,480c-0.6,5.2,7.8,5.7,8.6,0.6c10.2-60.6,76.5-319.5,90.8-385c3.7-17.2,18.3-95.4-6-28.2
			C209.9,68,129.8,362.7,116.8,480z"/>
		<path class="st4" d="M171.7,245.9c-0.6,1.6-2.5,2.5-4.1,1.9c-0.6-0.2-1.2-0.7-1.6-1.3c-11.1-17.5-48.5-81.1-10.3-83.5
			C177.4,161.7,179.9,224.3,171.7,245.9z"/>
		<path class="st4" d="M179.6,233.8c1.4-9,2.7-28.1,25.7-47.6c20.5-17.4,40.9-9.6,27.8,9.8c-9,13.2-25.1,26.7-45.9,39.9
			C183.5,238.3,179.1,237.1,179.6,233.8z"/>
		<path class="st4" d="M196.4,161.3c1.8-7.6,4.2-23.7,26.3-41c19.8-15.5,37.9-9.9,24.7,7c-9,11.5-24.5,23.5-44.2,35.4
			C199.7,164.9,195.8,164.1,196.4,161.3z"/>
		<path class="st5" d="M202.5,117.3c0.3,4.8-1.3,6.5-7.8,3c-15.6-8.2-31.2-43.5-12.4-48.9C189.5,69.5,201.2,99.2,202.5,117.3z"/>
		<path class="st4" d="M246,78.6c1.7-0.5,3.6,0.5,4,2.3c0.2,0.8,0.1,1.7-0.3,2.5c-7.9,14-29.9,48.8-42.7,29.3
			C200.6,103,230.2,82.8,246,78.6z"/>
		<path class="st4" d="M235.2,43.6c14-9,17,0.8,13.6,9.2c-6.6,16.2-17,33.4-29.2,21.8C213.7,69.1,221.9,52.1,235.2,43.6z"/>
		<path class="st4" d="M142.1,240.8c0.2-2.2,3.7-3.8,5.6-2.5c10,7.1,34.3,26.6,12.6,34.9C149.4,277.3,140.7,253.2,142.1,240.8z"/>
		<path class="st4" d="M188.4,55.6c-0.4-7.9,10-11.1,14-4.3c9.4,15.7,18.7,37.3,0.7,39.8C194.5,92.3,189.1,72.4,188.4,55.6z"/>
		<path class="st5" d="M216.5,160.4c4.8-2.2,8.4,2,5.2,6.1c-10.8,14.3-31,37.7-39.2,24.2C178.4,184.1,200.8,167.8,216.5,160.4z"/>
		<path class="st4" d="M188.7,172.7c-1.2,7-4.6,9-14.1,2.3c-22.8-16.1-35.4-71.7-2.3-74.3C185,99.7,193.3,146.1,188.7,172.7z"/>
		<path class="st5" d="M206.8,40c-3.5-17.5,4.3-16,13.2-9.7c7,5,5.8,17.6-2.2,21.6C214.2,53.8,208.3,47.2,206.8,40z"/>
		<path class="st5" d="M174.9,255c-1.7,2.9-0.9,5,5.1,6.7c14.3,4,36.7-9.5,23.9-24.3C199.1,231.7,181.3,244,174.9,255z"/>
	</g>
	<g id="Layer_5">
		<path class="st6" d="M567.7,413c-10.8-3.3-32,15.2-47.6,41.4c-3.5-27.2-15.6-48-27.4-46.6c-11,1.3-17.9,21.5-16.3,46.5
			c-19.9-18.7-41.8-29.3-50.8-24.1c-9.8,5.7-0.6,28.2,20.6,50.3c8.3,8.7,17.7,16.4,28,22.7l0,0c2.3,1.5,4.6,2.8,7.1,3.8
			c5.4,2.6,10.3,4.1,14.3,4.3c13,2,29.8-0.6,44.5-19.2l0,0c7.2-7.7,13.5-16.2,18.8-25.3C574.7,440.3,578.5,416.3,567.7,413z"/>
		<ellipse transform="matrix(3.489918e-02 -0.9994 0.9994 3.489918e-02 155.9794 636.1862)" cx="407.4" cy="237.3" rx="9" ry="7"/>
		<path class="st6" d="M381.5,269c-7.3,3.4-15,7.9-22.6,7.6c-6.8-0.3-13.4-5.2-19.8-8.5c-9.9-5.1-19.6-11-19.5-14.3l0,0
			c0.2-6.8,80.2-4,79.9,2.8l0,0C399.5,259.8,390.8,264.7,381.5,269z"/>
		<path class="st6" d="M384.9,435.5c-10.1-4.9-34,10.2-53.3,33.8c0.6-27.5-8.2-49.8-20-50.2c-11.1-0.4-20.9,18.6-23.1,43.5
			c-16.9-21.5-36.9-35.3-46.6-31.4c-10.6,4.2-4.8,27.8,12.8,52.8c6.9,9.9,15.1,18.8,24.3,26.6l0,0c2,1.8,4.2,3.4,6.5,4.9
			c5,3.3,9.6,5.5,13.5,6.4c12.5,3.9,29.5,3.9,46.9-12.3l0,0c8.3-6.6,15.8-14,22.4-22.2C387.6,463.5,395,440.4,384.9,435.5z"/>
		<ellipse transform="matrix(3.489918e-02 -0.9994 0.9994 3.489918e-02 66.8142 537.0745)" cx="311.5" cy="233.9" rx="9" ry="7"/>
	</g>
</g>
</svg>
