<?xml version="1.0" encoding="utf-8"?>
<!-- Generator: Adobe Illustrator 24.3.0, SVG Export Plug-In . SVG Version: 6.00 Build 0)  -->
<svg version="1.1" id="Layer_1" xmlns="http://www.w3.org/2000/svg" xmlns:xlink="http://www.w3.org/1999/xlink" x="0px" y="0px"
	 viewBox="0 0 1000 1000" style="enable-background:new 0 0 1000 1000;" xml:space="preserve">
<style type="text/css">
	.st0{fill:#CFEFFC;}
	.st1{fill:#FFEC98;}
	.st2{fill:#FFB735;}
	.st3{fill:#76B58B;}
	.st4{opacity:0.75;fill:#F7F3ED;enable-background:new    ;}
	.st5{fill:#F7F3ED;}
	.st6{fill:#76965D;}
	.st7{fill:#FF81B4;}
	.st8{fill:#FFB4CC;}
</style>
<g id="Layer_9">
	<rect x="184.9" y="141.6" class="st0" width="656.5" height="661.1"/>
</g>
<g id="Layer_7">
	<path class="st1" d="M603.9,173.4c-42.4-30.4-185.8-80-276.1-25.9c-38.2,22.9-97.7,86-150.7,167.9v537.6h514
		c63.5-36.7,120.8-93.8,145.3-182.5C904.8,422.9,646.3,203.8,603.9,173.4z"/>
	
		<ellipse transform="matrix(3.489950e-02 -0.9994 0.9994 3.489950e-02 10.8777 871.1268)" cx="456.5" cy="429.9" rx="16.3" ry="12.7"/>
	<path class="st2" d="M409.7,487.3c-7.6,3.5-15.4,7.7-23.3,10.5c-5.9,2.1-11.7,3.5-17.6,3.2c-12.3-0.5-24.3-9.3-35.8-15.3
		c-17.9-9.2-35.4-19.8-35.2-25.8l0,0c0.4-12.2,145.1-7.2,144.7,5l0,0C442.4,470.7,426.5,479.6,409.7,487.3z"/>
	
		<ellipse transform="matrix(3.489950e-02 -0.9994 0.9994 3.489950e-02 -150.6149 691.7827)" cx="282.9" cy="423.9" rx="16.3" ry="12.7"/>
</g>
<g id="Layer_10">
	<path class="st3" d="M545.7,586.5c16.4,48.4,59.3,46.4,20.7,123.7c-20.9,41.8-83.7,39.7-125,9.7c-33.1-24.1-60.5-70-28.4-127.9
		C444,536.1,530.5,541.8,545.7,586.5z"/>
	<path class="st3" d="M731.1,349.1c50.9,4.3,59.3,46.4,125-9.6c35.6-30.4,19.1-96.3-20.7-123.7c-41.2-28.4-79.7-38.7-130.9,3.2
		C655,259.4,684.1,345.1,731.1,349.1z"/>
	<path class="st3" d="M858.6,815.6V289.8c-99.7-3.8-203.8,44.3-282.8,145.4c-97.5,124.6-104.1,273.6-40.2,380.5H858.6z"/>
	<path class="st4" d="M841.4,852.9V412.8c-54.4,21-107.1,59.6-149.2,113.4c-83.7,107-98.8,240.5-44.7,326.7L841.4,852.9z"/>
	
		<ellipse transform="matrix(0.9978 -6.662219e-02 6.662219e-02 0.9978 -41.7923 32.9647)" cx="473.4" cy="643.1" rx="34" ry="38.5"/>
	<ellipse transform="matrix(0.99 -0.1411 0.1411 0.99 -30.3403 110.639)" cx="765.2" cy="269.3" rx="38.5" ry="34"/>
	<path d="M595.8,516.5l77-98.5c2.9-3.7,8.2-4.4,11.9-1.5l5.8,4.6c3.7,2.9,4.4,8.2,1.5,11.9l-77,98.5c-2.9,3.7-8.2,4.4-11.9,1.5
		l-5.8-4.6C593.6,525.6,593,520.2,595.8,516.5z"/>
</g>
<g id="Layer_8">
	<path class="st5" d="M872.3,101l-733.5,24.1L164.3,900l733.5-24.1L872.3,101z M212.3,733.5l-18.6-565.4l628.2-20.7l18.6,565.4
		L212.3,733.5z"/>
</g>
<g id="Layer_11">
	<path class="st6" d="M713.5,989c-0.8,7.5,11.1,8.2,12.4,0.8c14.6-87,109.7-458.5,130.2-552.5c5.4-24.6,26.3-136.9-8.6-40.5
		C847.1,397.8,732.2,820.7,713.5,989z"/>
	<path class="st7" d="M792.4,653.1c-0.9,2.4-3.5,3.6-5.9,2.7c-0.9-0.3-1.7-1-2.3-1.8c-16-25-69.6-116.4-14.7-119.8
		C800.6,532.3,804.1,622.1,792.4,653.1z"/>
	<path class="st7" d="M803.7,635.8c2-12.9,3.9-40.4,36.9-68.2c29.5-24.9,58.7-13.8,39.9,14.1c-12.8,19-36.1,38.3-65.8,57.2
		C809.2,642.3,803,640.5,803.7,635.8z"/>
	<path class="st7" d="M827.9,531.7c2.6-10.9,6-34,37.8-58.8c28.3-22.2,54.3-14.2,35.5,10c-12.8,16.5-35.2,33.7-63.4,50.8
		C832.5,536.9,826.9,535.7,827.9,531.7z"/>
	<path class="st8" d="M836.5,468.6c0.5,6.9-1.9,9.3-11.2,4.4c-22.3-11.7-44.7-62.5-17.7-70.1C817.8,400,834.7,442.7,836.5,468.6z"/>
	<path class="st7" d="M899,413c2.5-0.7,5.1,0.8,5.8,3.3c0.3,1.2,0.2,2.5-0.5,3.6c-11.4,20-43,70-61.3,42.1
		C833.9,448,876.3,419,899,413z"/>
	<path class="st7" d="M883.5,362.8c20.2-12.8,24.5,1.2,19.6,13.2c-9.4,23.3-24.4,48-42,31.3C852.7,399.4,864.3,375,883.5,362.8z"/>
	<path class="st7" d="M816.3,380.1c-0.5-11.3,14.4-15.9,20.2-6.2c13.4,22.5,26.8,53.5,1.1,57.1C825,432.8,817.4,404.1,816.3,380.1z"
		/>
	<path class="st8" d="M856.6,530.5c6.9-3.2,12,2.8,7.5,8.8c-15.5,20.5-44.6,54.1-56.3,34.8C802,564.4,834.1,541,856.6,530.5z"/>
	<path class="st7" d="M816.8,548.1c-1.8,10.1-6.6,13-20.2,3.3c-32.7-23.2-50.8-102.9-3.3-106.6C811.4,443.4,823.4,509.9,816.8,548.1
		z"/>
	<path class="st8" d="M842.8,357.7c-5.1-25.1,6.2-23,18.9-13.9c10.1,7.3,8.3,25.3-3.2,31.1C853.3,377.4,844.9,368,842.8,357.7z"/>
</g>
</svg>
