<?xml version="1.0" encoding="utf-8"?>
<!-- Generator: Adobe Illustrator 24.3.0, SVG Export Plug-In . SVG Version: 6.00 Build 0)  -->
<svg version="1.1" id="Layer_1" xmlns="http://www.w3.org/2000/svg" xmlns:xlink="http://www.w3.org/1999/xlink" x="0px" y="0px"
	 viewBox="0 0 900 900" style="enable-background:new 0 0 900 900;" xml:space="preserve">
<style type="text/css">
	.st0{fill:#CFEFFC;}
	.st1{fill:#FFEC98;}
	.st2{fill:#FFB735;}
	.st3{fill:#76B58B;}
	.st4{opacity:0.75;fill:#F7F3ED;enable-background:new    ;}
	.st5{fill:#F7F3ED;}
	.st6{fill:#76965D;}
	.st7{fill:#FF81B4;}
	.st8{fill:#FFB4CC;}
</style>
<g>
	<g id="Layer_9">
		<rect x="111.7" y="43.6" class="st0" width="656.5" height="661.1"/>
	</g>
	<g id="Layer_7">
		<path class="st1" d="M530.7,75.4C488.3,45,344.9-4.6,254.6,49.5c-38.2,22.9-97.7,86-150.7,167.9V755h514
			c63.5-36.7,120.8-93.8,145.3-182.5C831.6,324.9,573.1,105.8,530.7,75.4z"/>
		
			<ellipse transform="matrix(3.489918e-02 -0.9994 0.9994 3.489918e-02 38.1832 703.3461)" cx="383.3" cy="331.9" rx="16.3" ry="12.7"/>
		<path class="st2" d="M336.5,389.3c-7.6,3.5-15.4,7.7-23.3,10.5c-5.9,2.1-11.7,3.5-17.6,3.2c-12.3-0.5-24.3-9.3-35.8-15.3
			c-17.9-9.2-35.4-19.8-35.2-25.8l0,0c0.4-12.2,145.1-7.2,144.7,5l0,0C369.2,372.7,353.3,381.6,336.5,389.3z"/>
		
			<ellipse transform="matrix(3.489918e-02 -0.9994 0.9994 3.489918e-02 -123.2537 524.0581)" cx="209.7" cy="325.8" rx="16.3" ry="12.7"/>
	</g>
	<g id="Layer_10">
		<path class="st3" d="M472.5,488.5c16.4,48.4,59.3,46.4,20.7,123.7c-20.9,41.8-83.7,39.7-125,9.7c-33.1-24.1-60.5-70-28.4-127.9
			C370.8,438.1,457.3,443.8,472.5,488.5z"/>
		<path class="st3" d="M657.9,251.1c50.9,4.3,59.3,46.4,125-9.6c35.6-30.4,19.1-96.3-20.7-123.7C721,89.4,682.5,79.1,631.3,121
			C581.8,161.4,610.9,247.1,657.9,251.1z"/>
		<path class="st3" d="M785.4,717.6V191.8c-99.7-3.8-203.8,44.3-282.8,145.4c-97.5,124.6-104.1,273.6-40.2,380.5L785.4,717.6
			L785.4,717.6z"/>
		<path class="st4" d="M768.2,754.9V314.8c-54.4,21-107.1,59.6-149.2,113.4c-83.7,107-98.8,240.5-44.7,326.7H768.2z"/>
		
			<ellipse transform="matrix(0.9978 -6.662074e-02 6.662074e-02 0.9978 -35.4265 27.8739)" cx="400.2" cy="545.1" rx="34" ry="38.5"/>
		<ellipse transform="matrix(0.99 -0.1411 0.1411 0.99 -17.2436 99.3563)" cx="692" cy="171.3" rx="38.5" ry="34"/>
		<path d="M522.6,418.5l77-98.5c2.9-3.7,8.2-4.4,11.9-1.5l5.8,4.6c3.7,2.9,4.4,8.2,1.5,11.9l-77,98.5c-2.9,3.7-8.2,4.4-11.9,1.5
			l-5.8-4.6C520.4,427.6,519.8,422.2,522.6,418.5z"/>
	</g>
	<g id="Layer_8">
		<path class="st5" d="M799.1,3L65.6,27.1L91.1,802l733.5-24.1L799.1,3z M139.1,635.5L120.5,70.1l628.2-20.7l18.6,565.4L139.1,635.5
			z"/>
	</g>
	<g id="Layer_11">
		<path class="st6" d="M640.3,891c-0.8,7.5,11.1,8.2,12.4,0.8c14.6-87,109.7-458.5,130.2-552.5c5.4-24.6,26.3-136.9-8.6-40.5
			C773.9,299.8,659,722.7,640.3,891z"/>
		<path class="st7" d="M719.2,555.1c-0.9,2.4-3.5,3.6-5.9,2.7c-0.9-0.3-1.7-1-2.3-1.8c-16-25-69.6-116.4-14.7-119.8
			C727.4,434.3,730.9,524.1,719.2,555.1z"/>
		<path class="st7" d="M730.5,537.8c2-12.9,3.9-40.4,36.9-68.2c29.5-24.9,58.7-13.8,39.9,14.1c-12.8,19-36.1,38.3-65.8,57.2
			C736,544.3,729.8,542.5,730.5,537.8z"/>
		<path class="st7" d="M754.7,433.7c2.6-10.9,6-34,37.8-58.8c28.3-22.2,54.3-14.2,35.5,10c-12.8,16.5-35.2,33.7-63.4,50.8
			C759.3,438.9,753.7,437.7,754.7,433.7z"/>
		<path class="st8" d="M763.3,370.6c0.5,6.9-1.9,9.3-11.2,4.4c-22.3-11.7-44.7-62.5-17.7-70.1C744.6,302,761.5,344.7,763.3,370.6z"
			/>
		<path class="st7" d="M825.8,315c2.5-0.7,5.1,0.8,5.8,3.3c0.3,1.2,0.2,2.5-0.5,3.6c-11.4,20-43,70-61.3,42.1
			C760.7,350,803.1,321,825.8,315z"/>
		<path class="st7" d="M810.3,264.8c20.2-12.8,24.5,1.2,19.6,13.2c-9.4,23.3-24.4,48-42,31.3C779.5,301.4,791.1,277,810.3,264.8z"/>
		<path class="st7" d="M743.1,282.1c-0.5-11.3,14.4-15.9,20.2-6.2c13.4,22.5,26.8,53.5,1.1,57.1
			C751.8,334.8,744.2,306.1,743.1,282.1z"/>
		<path class="st8" d="M783.4,432.5c6.9-3.2,12,2.8,7.5,8.8c-15.5,20.5-44.6,54.1-56.3,34.8C728.8,466.4,760.9,443,783.4,432.5z"/>
		<path class="st7" d="M743.6,450.1c-1.8,10.1-6.6,13-20.2,3.3c-32.7-23.2-50.8-102.9-3.3-106.6
			C738.2,345.4,750.2,411.9,743.6,450.1z"/>
		<path class="st8" d="M769.6,259.7c-5.1-25.1,6.2-23,18.9-13.9c10.1,7.3,8.3,25.3-3.2,31.1C780.1,279.4,771.7,270,769.6,259.7z"/>
	</g>
</g>
</svg>
