<?xml version="1.0" encoding="utf-8"?>
<!-- Generator: Adobe Illustrator 24.3.0, SVG Export Plug-In . SVG Version: 6.00 Build 0)  -->
<svg version="1.1" id="Layer_1" xmlns="http://www.w3.org/2000/svg" xmlns:xlink="http://www.w3.org/1999/xlink" x="0px" y="0px"
	 viewBox="0 0 1000 1000" style="enable-background:new 0 0 1000 1000;" xml:space="preserve">
<style type="text/css">
	.st0{fill:#CFEFFC;}
	.st1{fill:#76B58B;}
	.st2{opacity:0.75;fill:#FFFFFF;enable-background:new    ;}
	.st3{fill:#549B6A;}
	.st4{fill:#A0D6B4;}
	.st5{fill:#F7F3ED;}
</style>
<g id="Polaroid">
	
		<rect x="153.5" y="88.5" transform="matrix(0.9994 -3.496021e-02 3.496021e-02 0.9994 -15.439 18.1778)" class="st0" width="717.2" height="724.1"/>
	<path class="st1" d="M630.5,709.7c3.8-11.7,5.7-23.9,5.7-36.2c0-58.3-42.1-105.6-94-105.6c-5.7,0-11.4,0.6-17,1.8
		c-17-57.1-61.4-97.9-113.5-97.9c-53.9,0-99.6,43.6-115.2,103.9c-11.2-5.1-23.3-7.7-35.6-7.8c-55.6,0-100.7,54-100.7,120.5
		c0,7.1,0.5,14.2,1.6,21.3H630.5z"/>
	<path class="st2" d="M828,438.8c0.1-2,0.2-4,0.1-6c-1.3-36.7-36.1-65.3-77.8-63.8c-12.6,0.4-25,3.7-36.2,9.6
		c-19.8-38.6-67-53.8-105.6-34c-15.4,7.9-27.8,20.7-35.2,36.4c-12.6-3.4-25.6-4.8-38.6-4.3c-52.5,1.9-94,33.2-92.7,69.9
		c0.1,2,0.3,4,0.6,5.9L828,438.8z"/>
	<path class="st1" d="M837.9,651.4c3.3-12.8,4.9-25.9,4.9-39.1c0-62.9-36.5-113.9-81.4-113.9c-5,0-9.9,0.7-14.7,1.9
		c-14.8-61.6-53.2-105.6-98.4-105.6c-46.7,0-86.3,47.1-99.8,112.1c-9.4-5.4-20-8.3-30.8-8.4c-48.2,0-87.3,58.2-87.3,130.1
		c0,7.7,0.5,15.4,1.4,23L837.9,651.4z"/>
	<path class="st3" d="M651.6,770.3c3.9-8.6,6-17.9,6-27.3c0-44-44.4-79.6-99.2-79.6c-6,0-12,0.4-18,1.3
		c-18-43.1-64.9-73.8-119.9-73.8c-56.9,0-105.1,32.9-121.7,78.4c-12.2-3.9-24.8-5.9-37.6-5.9c-58.8,0-106.4,40.7-106.4,90.9
		c0,5.4,0.6,10.7,1.7,16L651.6,770.3z"/>
	<path class="st4" d="M870.1,741.8c3.9-8.6,6-17.9,6-27.3c0-44-44.4-79.6-99.2-79.6c-6,0-12,0.4-18,1.3
		c-18-43.1-64.9-73.8-119.9-73.8c-56.9,0-105.1,32.9-121.7,78.4c-12.2-3.9-24.8-5.9-37.6-5.8c-58.8,0-106.4,40.7-106.4,90.9
		c0,5.4,0.6,10.7,1.6,16L870.1,741.8z"/>
	<path class="st2" d="M565.7,290.4c0.1-2,0.2-4,0.1-6c-1.3-36.7-36.1-65.3-77.8-63.9c-12.6,0.4-25,3.7-36.2,9.6
		c-19.8-38.6-67-53.8-105.6-34c-15.4,7.9-27.8,20.7-35.2,36.4c-12.6-3.4-25.6-4.8-38.6-4.3c-52.5,1.9-94,33.1-92.7,69.9
		c0.1,2,0.3,4,0.6,5.9L565.7,290.4z"/>
</g>
<g id="Layer_8">
	<path class="st5" d="M877.6,59.5L96.4,85.2l27.1,825.1l781.2-25.7L877.6,59.5z M174.7,732.9L154.9,131l669-22l19.8,602L174.7,732.9
		z"/>
</g>
</svg>
