<?xml version="1.0" encoding="utf-8"?>
<!-- Generator: Adobe Illustrator 24.3.0, SVG Export Plug-In . SVG Version: 6.00 Build 0)  -->
<svg version="1.1" id="Layer_1" xmlns="http://www.w3.org/2000/svg" xmlns:xlink="http://www.w3.org/1999/xlink" x="0px" y="0px"
	 viewBox="0 0 810 810" style="enable-background:new 0 0 810 810;" xml:space="preserve">
<style type="text/css">
	.st0{fill:#76B58B;}
	.st1{opacity:0.75;fill:#F7F3ED;enable-background:new    ;}
	.st2{fill:#C69B8D;}
	.st3{fill:#F7F3ED;}
	.st4{fill:#AC8171;}
	.st5{fill:#BEB3B2;}
</style>
<g>
	<path class="st0" d="M40.6,445c11.1-179.8,157.5-333.3,368.7-342.2c215.3-9.1,370.7,125.4,396.2,310
		C830.2,591.2,648,746.1,436.8,755S28.2,646.7,40.6,445"/>
	<path class="st0" d="M258.3,187.2c-29.3,49.2,3.6,84.4-90.4,107.6c-50.9,12.6-94.8-42.5-99.2-99.6C65.2,149.5,84.5,92.7,157.1,78
		C227.3,63.8,285.4,141.8,258.3,187.2z"/>
	<path class="st0" d="M595.7,172.7c33.4,46.6,3.6,84.4,99.2,99.7c51.8,8.3,96-53.7,90.4-107.7c-5.7-55.8-24.9-96.1-98-109.4
		C616.8,42.6,564.9,129.8,595.7,172.7z"/>
	<ellipse transform="matrix(0.7161 -0.698 0.698 0.7161 -71.6873 157.1987)" cx="157.4" cy="166.7" rx="43.1" ry="38.1"/>
	<ellipse transform="matrix(0.6618 -0.7496 0.7496 0.6618 125.024 564.7446)" cx="688.5" cy="143.8" rx="38.1" ry="43.1"/>
	
		<ellipse transform="matrix(0.9991 -4.222479e-02 4.222479e-02 0.9991 -21.2356 18.4697)" class="st1" cx="426.6" cy="511.9" rx="331.3" ry="243.8"/>
	<path d="M358.6,178.9l131.8-5.6c7.5-0.3,13.9,5.5,14.2,13.1l0,0c0.3,7.5-5.5,13.9-13.1,14.2l-131.7,5.7
		c-7.5,0.3-13.9-5.5-14.2-13.1l0,0C345.2,185.6,351.1,179.3,358.6,178.9z"/>
	<path class="st2" d="M279.5,575.6c18.3-22.2-53.9-42-130.8-46.5S-0.8,540.8,6.6,561c9,24.5,56.4,35,133.4,39.5
		S257.8,601.9,279.5,575.6z"/>
	<path class="st3" d="M153.7,752.1l-36.8-2.1c-25.1-1.5-44.1-19.6-41.1-39.4l26.3-179.7c2.6-18,22.4-30.9,45.2-29.6l0,0
		c22.4,1.3,40.4,16,41.4,33.8L199.1,717C200.3,737.4,179.2,753.6,153.7,752.1z"/>
	<path class="st4" d="M281.5,545c25.1,43.3-65.1,23.6-139.6,19.2s-170.3,24.3-130.2-35.1C54,466.3,83.1,423.3,157.6,427.7
		S251.9,494.1,281.5,545z"/>
	<path class="st2" d="M184,677.7c-8.1-9.8,23.9-18.6,57.9-20.6s66.2,5.2,62.9,14.1c-4,10.9-25,15.5-59,17.5S193.7,689.3,184,677.7z"
		/>
	<path class="st5" d="M239.8,755.8l16.3-1c11.1-0.7,19.5-8.7,18.2-17.5l-11.6-79.5c-1.2-8-9.9-13.7-20-13.1l0,0
		c-9.9,0.6-17.9,7.1-18.3,15l-4.7,80.5C219.1,749.3,228.4,756.5,239.8,755.8z"/>
	<path class="st4" d="M183.1,663.5c-11.1,19.8,28.8,10.9,61.8,8.9s75.4,11.3,57.6-16c-18.8-28.8-31.7-48.6-64.7-46.6
		S196.2,640.2,183.1,663.5z"/>
	<path class="st2" d="M522.1,469.8c-12.3-11.5,20.2-32.3,57.4-44.3s75.4-10.8,74.8,2.6c-0.7,16.2-22.5,28.3-59.7,40.3
		S536.7,483.4,522.1,469.8z"/>
	<path class="st3" d="M610.6,563.3l17.8-5.8c11.9-3.8,18.4-16.6,14.6-28.5c-0.1-0.2-0.1-0.4-0.2-0.7l-40-107.3
		c-4-10.8-15.8-16.4-26.7-12.8l0,0c-10.8,3.5-17.4,14.5-15.3,25.8l22.1,113.1c2.2,11.5,13.4,19.1,24.9,16.9
		C608.7,563.8,609.6,563.6,610.6,563.3z"/>
	<path class="st4" d="M516.5,451.3c-5.9,29.6,35.6,6.7,71.6-5s87.5-5.5,58.8-37.2c-30.3-33.5-51-56.5-87.1-44.8
		S523.5,416.4,516.5,451.3z"/>
	<path class="st0" d="M726.2,521c59.2-25.8,84.9-96.5,54.2-153.2c-6.5-12-14.5-21.5-24.5-25.8c-18.3-7.8-39.6-2.8-53.2,11.8L591,474
		c-30.8,33.1,0.6,86,44.5,74.8C672.6,539.2,701.1,532,726.2,521z"/>
</g>
</svg>
