<?xml version="1.0" encoding="utf-8"?>
<!-- Generator: Adobe Illustrator 24.3.0, SVG Export Plug-In . SVG Version: 6.00 Build 0)  -->
<svg version="1.1" id="Layer_1" xmlns="http://www.w3.org/2000/svg" xmlns:xlink="http://www.w3.org/1999/xlink" x="0px" y="0px"
	 viewBox="0 0 1000 1000" style="enable-background:new 0 0 1000 1000;" xml:space="preserve">
<style type="text/css">
	.st0{fill:#76B58B;}
	.st1{opacity:0.75;fill:#F7F3ED;enable-background:new    ;}
	.st2{fill:#C69B8D;}
	.st3{fill:#F7F3ED;}
	.st4{fill:#AC8171;}
	.st5{fill:#BEB3B2;}
</style>
<g>
	<path class="st0" d="M111.8,617c11.1-179.8,157.5-333.3,368.7-342.2c215.3-9.1,370.7,125.4,396.2,310
		C901.4,763.2,719.2,918.1,508,927S99.4,818.7,111.8,617"/>
	<path class="st0" d="M329.5,359.2c-29.3,49.2,3.6,84.4-90.4,107.6c-50.9,12.6-94.8-42.5-99.2-99.6c-3.5-45.7,15.8-102.5,88.4-117.2
		C298.5,235.8,356.6,313.8,329.5,359.2z"/>
	<path class="st0" d="M666.9,344.7c33.4,46.6,3.6,84.4,99.2,99.7c51.8,8.3,96-53.7,90.4-107.7c-5.7-55.8-24.9-96.1-98-109.4
		C688,214.6,636.1,301.8,666.9,344.7z"/>
	<ellipse transform="matrix(0.7161 -0.698 0.698 0.7161 -171.5158 255.7107)" cx="228.6" cy="338.7" rx="43.1" ry="38.1"/>
	<ellipse transform="matrix(0.6618 -0.7496 0.7496 0.6618 20.2634 676.3008)" cx="759.7" cy="315.7" rx="38.1" ry="43.1"/>
	
		<ellipse transform="matrix(0.9991 -4.222445e-02 4.222445e-02 0.9991 -28.4318 21.6294)" class="st1" cx="497.8" cy="683.9" rx="331.3" ry="243.8"/>
	<path d="M429.8,350.9l131.8-5.6c7.5-0.3,13.9,5.5,14.2,13.1v0c0.3,7.5-5.5,13.9-13.1,14.2L431,378.3c-7.5,0.3-13.9-5.5-14.2-13.1v0
		C416.4,357.6,422.3,351.3,429.8,350.9z"/>
	<path class="st2" d="M350.7,747.6c18.3-22.2-53.9-42-130.8-46.5S70.4,712.8,77.8,733c9,24.5,56.4,35,133.4,39.5
		S329,773.9,350.7,747.6z"/>
	<path class="st3" d="M224.9,924.1l-36.8-2.1c-25.1-1.5-44.1-19.6-41.1-39.4l26.3-179.7c2.6-18,22.4-30.9,45.2-29.6l0,0
		c22.4,1.3,40.4,16,41.4,33.8L270.3,889C271.5,909.4,250.4,925.6,224.9,924.1z"/>
	<path class="st4" d="M352.7,717c25.1,43.3-65.1,23.6-139.6,19.2S42.8,760.5,82.9,701.1c42.3-62.8,71.4-105.8,145.9-101.4
		S323.1,666.1,352.7,717z"/>
	<path class="st2" d="M255.2,849.7c-8.1-9.8,23.9-18.6,57.9-20.6s66.2,5.2,62.9,14.1c-4,10.9-25,15.5-59,17.5
		S264.9,861.3,255.2,849.7z"/>
	<path class="st5" d="M311,927.8l16.3-1c11.1-0.7,19.5-8.7,18.2-17.5l-11.6-79.5c-1.2-8-9.9-13.7-20-13.1l0,0
		c-9.9,0.6-17.9,7.1-18.3,15l-4.7,80.5C290.3,921.3,299.6,928.5,311,927.8z"/>
	<path class="st4" d="M254.3,835.5c-11.1,19.8,28.8,10.9,61.8,8.9s75.4,11.3,57.6-16c-18.8-28.8-31.7-48.6-64.7-46.6
		S267.4,812.2,254.3,835.5z"/>
	<path class="st2" d="M593.3,641.8c-12.3-11.5,20.2-32.3,57.4-44.3s75.4-10.8,74.8,2.6c-0.7,16.2-22.5,28.3-59.7,40.3
		S607.9,655.4,593.3,641.8z"/>
	<path class="st3" d="M681.8,735.3l17.8-5.8c11.9-3.8,18.4-16.6,14.6-28.5c-0.1-0.2-0.1-0.4-0.2-0.7L674,593
		c-4-10.8-15.8-16.4-26.7-12.8l0,0c-10.8,3.5-17.4,14.5-15.3,25.8l22.1,113.1c2.2,11.5,13.4,19.1,24.9,16.9
		C679.9,735.8,680.8,735.6,681.8,735.3z"/>
	<path class="st4" d="M587.7,623.3c-5.9,29.6,35.6,6.7,71.6-5s87.5-5.5,58.8-37.2c-30.3-33.5-51-56.5-87.1-44.8
		S594.7,588.4,587.7,623.3z"/>
	<path class="st0" d="M797.4,693c59.2-25.8,84.9-96.5,54.2-153.2c-6.5-12-14.5-21.5-24.5-25.8c-18.3-7.8-39.6-2.8-53.2,11.8
		L662.2,646c-30.8,33.1,0.6,86,44.5,74.8C743.8,711.2,772.3,704,797.4,693z"/>
</g>
</svg>
