<svg xmlns="http://www.w3.org/2000/svg" xmlns:xlink="http://www.w3.org/1999/xlink" viewBox="0 0 560 355"><defs><style>.cls-1{fill:#b6a1c4;}.cls-2,.cls-55{fill:#a795b5;}.cls-3{fill:#f7f3ed;}.cls-4{isolation:isolate;}.cls-5{clip-path:url(#clip-path);}.cls-6{clip-path:url(#clip-path-2);}.cls-7{clip-path:url(#clip-path-3);}.cls-8{clip-path:url(#clip-path-4);}.cls-9{clip-path:url(#clip-path-5);}.cls-10{clip-path:url(#clip-path-6);}.cls-11{clip-path:url(#clip-path-7);}.cls-12{clip-path:url(#clip-path-8);}.cls-13{clip-path:url(#clip-path-9);}.cls-14{clip-path:url(#clip-path-10);}.cls-15{clip-path:url(#clip-path-11);}.cls-16{clip-path:url(#clip-path-12);}.cls-17{clip-path:url(#clip-path-13);}.cls-18{clip-path:url(#clip-path-14);}.cls-19{clip-path:url(#clip-path-15);}.cls-20{clip-path:url(#clip-path-16);}.cls-21{clip-path:url(#clip-path-17);}.cls-22{clip-path:url(#clip-path-18);}.cls-23{clip-path:url(#clip-path-19);}.cls-24{clip-path:url(#clip-path-20);}.cls-25{clip-path:url(#clip-path-21);}.cls-26{clip-path:url(#clip-path-22);}.cls-27{clip-path:url(#clip-path-23);}.cls-28{clip-path:url(#clip-path-24);}.cls-29{fill:#fff;}.cls-30{fill:#37acaf;}.cls-31{clip-path:url(#clip-path-25);}.cls-32{clip-path:url(#clip-path-26);}.cls-33{clip-path:url(#clip-path-27);}.cls-34{clip-path:url(#clip-path-28);}.cls-35{clip-path:url(#clip-path-29);}.cls-36{clip-path:url(#clip-path-30);}.cls-37{clip-path:url(#clip-path-31);}.cls-38{clip-path:url(#clip-path-32);}.cls-39{clip-path:url(#clip-path-33);}.cls-40{clip-path:url(#clip-path-34);}.cls-41{clip-path:url(#clip-path-35);}.cls-42{clip-path:url(#clip-path-36);}.cls-43{clip-path:url(#clip-path-37);}.cls-44{clip-path:url(#clip-path-38);}.cls-45{clip-path:url(#clip-path-39);}.cls-46{clip-path:url(#clip-path-40);}.cls-47{clip-path:url(#clip-path-41);}.cls-48{clip-path:url(#clip-path-42);}.cls-49{clip-path:url(#clip-path-43);}.cls-50{clip-path:url(#clip-path-44);}.cls-51{clip-path:url(#clip-path-45);}.cls-52{clip-path:url(#clip-path-46);}.cls-53{clip-path:url(#clip-path-47);}.cls-54{clip-path:url(#clip-path-48);}.cls-55,.cls-56{stroke:#a795b5;stroke-miterlimit:10;stroke-width:2px;}.cls-56{fill:none;}.cls-57{fill:#a0d6b4;}</style><clipPath id="clip-path"><path class="cls-1" d="M271.75,297.7c3.1,0,4.15-1.6,2.36-3.57L227.2,242.21c-1.8-2-5.74-3.58-8.83-3.58H25.8c-3.1,0-4.14,1.6-2.36,3.58l46.91,51.92c1.8,2,5.74,3.57,8.83,3.57Z"/></clipPath><clipPath id="clip-path-2"><path class="cls-1" d="M271.75,304c3.1,0,4.15-1.61,2.36-3.58L227.2,248.45c-1.8-2-5.74-3.57-8.83-3.57H25.8c-3.1,0-4.14,1.59-2.36,3.57l46.91,51.92A13.52,13.52,0,0,0,79.18,304Z"/></clipPath><clipPath id="clip-path-3"><path class="cls-1" d="M275,302.16v-6.25a2.8,2.8,0,0,0-.87-1.78v6.24A2.8,2.8,0,0,1,275,302.16Z"/></clipPath><clipPath id="clip-path-4"><path class="cls-2" d="M275,295.91c0,1.07-1.16,1.79-3.23,1.79V304c2.07,0,3.23-.73,3.23-1.79Z"/></clipPath><clipPath id="clip-path-5"><polygon class="cls-1" points="274.12 300.37 274.12 294.13 227.2 242.21 227.2 248.45 274.12 300.37"/></clipPath><clipPath id="clip-path-6"><path class="cls-1" d="M227.2,248.45v-6.24c-1.8-2-5.74-3.58-8.83-3.58v6.25C221.46,244.88,225.4,246.47,227.2,248.45Z"/></clipPath><clipPath id="clip-path-7"><rect class="cls-1" x="25.8" y="238.63" width="192.57" height="6.24"/></clipPath><clipPath id="clip-path-8"><path class="cls-1" d="M22.57,246.66a2.8,2.8,0,0,0,.87,1.79v-6.24a2.85,2.85,0,0,1-.87-1.79Z"/></clipPath><clipPath id="clip-path-9"><path class="cls-1" d="M22.57,240.42v6.24c0-1.07,1.16-1.78,3.23-1.78v-6.25C23.73,238.63,22.57,239.35,22.57,240.42Z"/></clipPath><clipPath id="clip-path-10"><polygon class="cls-2" points="23.43 248.45 70.35 300.37 70.35 294.13 23.43 242.21 23.43 248.45"/></clipPath><clipPath id="clip-path-11"><path class="cls-2" d="M70.35,300.37A13.52,13.52,0,0,0,79.18,304V297.7c-3.09,0-7-1.6-8.83-3.57Z"/></clipPath><clipPath id="clip-path-12"><rect class="cls-2" x="79.18" y="297.7" width="192.57" height="6.24"/></clipPath><clipPath id="clip-path-13"><path class="cls-2" d="M222.62,284c1.86,0,2.49-1,1.42-2.15L195.87,250.7a8.13,8.13,0,0,0-5.3-2.14H74.93c-1.86,0-2.49,1-1.42,2.14l28.17,31.18A8.14,8.14,0,0,0,107,284Z"/></clipPath><clipPath id="clip-path-14"><path class="cls-2" d="M222.62,287.78c1.86,0,2.49-1,1.42-2.15l-28.17-31.18a8.08,8.08,0,0,0-5.3-2.14H74.93c-1.86,0-2.49.95-1.42,2.14l28.17,31.18a8.14,8.14,0,0,0,5.3,2.15Z"/></clipPath><clipPath id="clip-path-15"><path class="cls-2" d="M224.56,286.7V283a1.66,1.66,0,0,0-.52-1.07v3.75A1.66,1.66,0,0,1,224.56,286.7Z"/></clipPath><clipPath id="clip-path-16"><path class="cls-2" d="M224.56,283c0,.65-.69,1.08-1.94,1.08v3.75c1.25,0,1.94-.43,1.94-1.08Z"/></clipPath><clipPath id="clip-path-17"><polygon class="cls-2" points="224.04 285.63 224.04 281.88 195.87 250.7 195.87 254.45 224.04 285.63"/></clipPath><clipPath id="clip-path-18"><path class="cls-2" d="M195.87,254.45V250.7a8.13,8.13,0,0,0-5.3-2.14v3.75A8.08,8.08,0,0,1,195.87,254.45Z"/></clipPath><clipPath id="clip-path-19"><rect class="cls-2" x="74.93" y="248.56" width="115.64" height="3.75"/></clipPath><clipPath id="clip-path-20"><path class="cls-2" d="M73,253.38a1.66,1.66,0,0,0,.52,1.07V250.7a1.66,1.66,0,0,1-.52-1.07Z"/></clipPath><clipPath id="clip-path-21"><path class="cls-2" d="M73,249.63v3.75c0-.64.69-1.07,1.94-1.07v-3.75C73.68,248.56,73,249,73,249.63Z"/></clipPath><clipPath id="clip-path-22"><polygon class="cls-2" points="73.51 254.45 101.68 285.63 101.68 281.88 73.51 250.7 73.51 254.45"/></clipPath><clipPath id="clip-path-23"><path class="cls-2" d="M101.68,285.63a8.14,8.14,0,0,0,5.3,2.15V284a8.14,8.14,0,0,1-5.3-2.15Z"/></clipPath><clipPath id="clip-path-24"><rect class="cls-2" x="106.98" y="284.03" width="115.64" height="3.75"/></clipPath><clipPath id="clip-path-25"><path class="cls-1" d="M266.16,236.75c-3.1,0-4.15-1.61-2.37-3.58l46.92-51.92c1.79-2,5.74-3.57,8.82-3.57H512.1c3.1,0,4.15,1.59,2.37,3.57l-46.92,51.92a13.51,13.51,0,0,1-8.82,3.58Z"/></clipPath><clipPath id="clip-path-26"><path class="cls-1" d="M266.16,243c-3.1,0-4.15-1.61-2.37-3.57l46.92-51.93c1.79-2,5.74-3.57,8.82-3.57H512.1c3.1,0,4.15,1.6,2.37,3.57l-46.92,51.93a13.55,13.55,0,0,1-8.82,3.57Z"/></clipPath><clipPath id="clip-path-27"><path class="cls-1" d="M262.92,241.2V235a2.8,2.8,0,0,1,.87-1.78v6.25A2.76,2.76,0,0,0,262.92,241.2Z"/></clipPath><clipPath id="clip-path-28"><path class="cls-2" d="M262.92,235c0,1.07,1.16,1.8,3.24,1.8V243c-2.08,0-3.24-.72-3.24-1.79Z"/></clipPath><clipPath id="clip-path-29"><polygon class="cls-1" points="263.79 239.42 263.79 233.17 310.71 181.25 310.71 187.49 263.79 239.42"/></clipPath><clipPath id="clip-path-30"><path class="cls-1" d="M310.71,187.49v-6.24c1.79-2,5.74-3.57,8.82-3.57v6.24C316.45,183.92,312.5,185.52,310.71,187.49Z"/></clipPath><clipPath id="clip-path-31"><rect class="cls-1" x="319.53" y="177.68" width="192.57" height="6.24"/></clipPath><clipPath id="clip-path-32"><path class="cls-1" d="M515.33,185.71a2.78,2.78,0,0,1-.86,1.78v-6.24a2.78,2.78,0,0,0,.86-1.79Z"/></clipPath><clipPath id="clip-path-33"><path class="cls-1" d="M515.33,179.46v6.25c0-1.07-1.15-1.79-3.23-1.79v-6.24C514.18,177.68,515.33,178.39,515.33,179.46Z"/></clipPath><clipPath id="clip-path-34"><polygon class="cls-2" points="514.47 187.49 467.55 239.42 467.55 233.17 514.47 181.25 514.47 187.49"/></clipPath><clipPath id="clip-path-35"><path class="cls-2" d="M467.55,239.42a13.55,13.55,0,0,1-8.82,3.57v-6.24a13.51,13.51,0,0,0,8.82-3.58Z"/></clipPath><clipPath id="clip-path-36"><rect class="cls-2" x="266.16" y="236.75" width="192.57" height="6.24"/></clipPath><clipPath id="clip-path-37"><path class="cls-2" d="M315.28,223.07c-1.86,0-2.49-1-1.42-2.14L342,189.75a8,8,0,0,1,5.29-2.15H463c1.86,0,2.49,1,1.42,2.15l-28.18,31.18a8.11,8.11,0,0,1-5.3,2.14Z"/></clipPath><clipPath id="clip-path-38"><path class="cls-2" d="M315.28,226.82c-1.86,0-2.49-1-1.42-2.14L342,193.5a8,8,0,0,1,5.29-2.15H463c1.86,0,2.49,1,1.42,2.15l-28.18,31.18a8.11,8.11,0,0,1-5.3,2.14Z"/></clipPath><clipPath id="clip-path-39"><path class="cls-2" d="M313.34,225.75V222a1.68,1.68,0,0,1,.52-1.07v3.75A1.68,1.68,0,0,0,313.34,225.75Z"/></clipPath><clipPath id="clip-path-40"><path class="cls-2" d="M313.34,222c0,.64.69,1.07,1.94,1.07v3.75c-1.25,0-1.94-.43-1.94-1.07Z"/></clipPath><clipPath id="clip-path-41"><polygon class="cls-2" points="313.86 224.68 313.86 220.93 342.04 189.75 342.04 193.5 313.86 224.68"/></clipPath><clipPath id="clip-path-42"><path class="cls-2" d="M342,193.5v-3.75a8,8,0,0,1,5.29-2.15v3.75A8,8,0,0,0,342,193.5Z"/></clipPath><clipPath id="clip-path-43"><rect class="cls-2" x="347.33" y="187.6" width="115.64" height="3.75"/></clipPath><clipPath id="clip-path-44"><path class="cls-2" d="M464.92,192.42a1.73,1.73,0,0,1-.52,1.08v-3.75a1.73,1.73,0,0,0,.52-1.08Z"/></clipPath><clipPath id="clip-path-45"><path class="cls-2" d="M464.92,188.67v3.75c0-.64-.7-1.07-1.94-1.07V187.6C464.22,187.6,464.92,188,464.92,188.67Z"/></clipPath><clipPath id="clip-path-46"><polygon class="cls-2" points="464.4 193.5 436.22 224.68 436.22 220.93 464.4 189.75 464.4 193.5"/></clipPath><clipPath id="clip-path-47"><path class="cls-2" d="M436.22,224.68a8.11,8.11,0,0,1-5.3,2.14v-3.75a8.11,8.11,0,0,0,5.3-2.14Z"/></clipPath><clipPath id="clip-path-48"><rect class="cls-2" x="315.28" y="223.07" width="115.64" height="3.75"/></clipPath></defs><g id="chat_with_mentors" data-name="chat with mentors"><rect class="cls-3" y="0.31" width="560" height="355" rx="36.72"/><g class="cls-4"><g class="cls-4"><path class="cls-1" d="M271.75,297.7c3.1,0,4.15-1.6,2.36-3.57L227.2,242.21c-1.8-2-5.74-3.58-8.83-3.58H25.8c-3.1,0-4.14,1.6-2.36,3.58l46.91,51.92c1.8,2,5.74,3.57,8.83,3.57Z"/><g class="cls-5"><path class="cls-1" d="M271.75,297.7c3.1,0,4.15-1.6,2.36-3.57L227.2,242.21c-1.8-2-5.74-3.58-8.83-3.58H25.8c-3.1,0-4.14,1.6-2.36,3.58l46.91,51.92c1.8,2,5.74,3.57,8.83,3.57Z"/></g></g><g class="cls-4"><path class="cls-1" d="M271.75,304c3.1,0,4.15-1.61,2.36-3.58L227.2,248.45c-1.8-2-5.74-3.57-8.83-3.57H25.8c-3.1,0-4.14,1.59-2.36,3.57l46.91,51.92A13.52,13.52,0,0,0,79.18,304Z"/><g class="cls-6"><path class="cls-1" d="M271.75,304c3.1,0,4.15-1.61,2.36-3.58L227.2,248.45c-1.8-2-5.74-3.57-8.83-3.57H25.8c-3.1,0-4.14,1.59-2.36,3.57l46.91,51.92A13.52,13.52,0,0,0,79.18,304Z"/></g></g><g class="cls-4"><path class="cls-1" d="M275,302.16v-6.25a2.8,2.8,0,0,0-.87-1.78v6.24A2.8,2.8,0,0,1,275,302.16Z"/><g class="cls-7"><g class="cls-4"><path class="cls-1" d="M271.75,304V297.7c3.1,0,4.15-1.6,2.36-3.57v6.24C275.9,302.34,274.85,304,271.75,304Z"/></g><path class="cls-1" d="M275,302.16v-6.25a2.8,2.8,0,0,0-.87-1.78v6.24A2.8,2.8,0,0,1,275,302.16Z"/></g></g><path class="cls-2" d="M275,295.91c0,1.07-1.16,1.79-3.23,1.79V304c2.07,0,3.23-.73,3.23-1.79Z"/><g class="cls-8"><g class="cls-4"><path class="cls-2" d="M271.75,304V297.7c3.1,0,4.15-1.6,2.36-3.57v6.24C275.9,302.34,274.85,304,271.75,304Z"/><line class="cls-2" x1="274.13" y1="303.46" x2="274.13" y2="297.21"/><line class="cls-2" x1="274.98" y1="302.17" x2="274.98" y2="295.93"/></g><path class="cls-2" d="M275,295.91c0,1.07-1.16,1.79-3.23,1.79V304c2.07,0,3.23-.73,3.23-1.79Z"/></g><polygon class="cls-1" points="274.12 300.37 274.12 294.13 227.2 242.21 227.2 248.45 274.12 300.37"/><g class="cls-9"><polygon class="cls-1" points="274.12 300.37 274.12 294.13 227.2 242.21 227.2 248.45 274.12 300.37"/></g><g class="cls-4"><path class="cls-1" d="M227.2,248.45v-6.24c-1.8-2-5.74-3.58-8.83-3.58v6.25C221.46,244.88,225.4,246.47,227.2,248.45Z"/><g class="cls-10"><g class="cls-4"><path class="cls-1" d="M218.37,238.63v6.25C221.46,244.88,221.46,238.63,218.37,238.63Z"/><line class="cls-1" x1="224.8" y1="246.64" x2="224.8" y2="240.4"/><line class="cls-1" x1="221.63" y1="245.36" x2="221.63" y2="239.12"/></g><path class="cls-1" d="M218.37,238.63v6.25C221.46,244.88,221.46,238.63,218.37,238.63Z"/></g></g><g class="cls-4"><rect class="cls-1" x="25.8" y="238.63" width="192.57" height="6.24"/><g class="cls-11"><rect class="cls-1" x="25.8" y="238.63" width="192.57" height="6.24"/></g></g><g class="cls-4"><path class="cls-1" d="M22.57,246.66a2.8,2.8,0,0,0,.87,1.79v-6.24a2.85,2.85,0,0,1-.87-1.79Z"/><g class="cls-12"><g class="cls-4"><path class="cls-1" d="M25.8,244.88v-6.25c-3.1,0-4.14,1.6-2.36,3.58v6.24C21.66,246.47,22.7,244.88,25.8,244.88Z"/></g><path class="cls-1" d="M22.57,246.66a2.8,2.8,0,0,0,.87,1.79v-6.24a2.85,2.85,0,0,1-.87-1.79Z"/></g></g><g class="cls-4"><path class="cls-1" d="M22.57,240.42v6.24c0-1.07,1.16-1.78,3.23-1.78v-6.25C23.73,238.63,22.57,239.35,22.57,240.42Z"/><g class="cls-13"><g class="cls-4"><path class="cls-1" d="M25.8,244.88v-6.25c-3.1,0-4.14,1.6-2.36,3.58v6.24C21.66,246.47,22.7,244.88,25.8,244.88Z"/><line class="cls-1" x1="23.42" y1="245.36" x2="23.42" y2="239.12"/><line class="cls-1" x1="22.57" y1="246.64" x2="22.57" y2="240.4"/></g><path class="cls-1" d="M22.57,240.42v6.24c0-1.07,1.16-1.78,3.23-1.78v-6.25C23.73,238.63,22.57,239.35,22.57,240.42Z"/></g></g><polygon class="cls-2" points="23.43 248.45 70.35 300.37 70.35 294.13 23.43 242.21 23.43 248.45"/><g class="cls-14"><polygon class="cls-2" points="23.43 248.45 70.35 300.37 70.35 294.13 23.43 242.21 23.43 248.45"/></g><path class="cls-2" d="M70.35,300.37A13.52,13.52,0,0,0,79.18,304V297.7c-3.09,0-7-1.6-8.83-3.57Z"/><g class="cls-15"><g class="cls-4"><path class="cls-2" d="M70.35,300.37v-6.24c1.8,2,5.74,3.57,8.83,3.57V304A13.52,13.52,0,0,1,70.35,300.37Z"/><line class="cls-2" x1="72.75" y1="302.17" x2="72.75" y2="295.93"/><line class="cls-2" x1="75.92" y1="303.46" x2="75.92" y2="297.21"/></g><path class="cls-2" d="M70.35,300.37A13.52,13.52,0,0,0,79.18,304V297.7c-3.09,0-7-1.6-8.83-3.57Z"/></g><rect class="cls-2" x="79.18" y="297.7" width="192.57" height="6.24"/><g class="cls-16"><rect class="cls-2" x="79.18" y="297.7" width="192.57" height="6.24"/></g></g><g class="cls-4"><g class="cls-4"><path class="cls-2" d="M222.62,284c1.86,0,2.49-1,1.42-2.15L195.87,250.7a8.13,8.13,0,0,0-5.3-2.14H74.93c-1.86,0-2.49,1-1.42,2.14l28.17,31.18A8.14,8.14,0,0,0,107,284Z"/><g class="cls-17"><path class="cls-2" d="M222.62,284c1.86,0,2.49-1,1.42-2.15L195.87,250.7a8.13,8.13,0,0,0-5.3-2.14H74.93c-1.86,0-2.49,1-1.42,2.14l28.17,31.18A8.14,8.14,0,0,0,107,284Z"/></g></g><g class="cls-4"><path class="cls-2" d="M222.62,287.78c1.86,0,2.49-1,1.42-2.15l-28.17-31.18a8.08,8.08,0,0,0-5.3-2.14H74.93c-1.86,0-2.49.95-1.42,2.14l28.17,31.18a8.14,8.14,0,0,0,5.3,2.15Z"/><g class="cls-18"><path class="cls-2" d="M222.62,287.78c1.86,0,2.49-1,1.42-2.15l-28.17-31.18a8.08,8.08,0,0,0-5.3-2.14H74.93c-1.86,0-2.49.95-1.42,2.14l28.17,31.18a8.14,8.14,0,0,0,5.3,2.15Z"/></g></g><g class="cls-4"><path class="cls-2" d="M224.56,286.7V283a1.66,1.66,0,0,0-.52-1.07v3.75A1.66,1.66,0,0,1,224.56,286.7Z"/><g class="cls-19"><g class="cls-4"><path class="cls-2" d="M222.62,287.78V284c1.86,0,2.49-1,1.42-2.15v3.75C225.11,286.81,224.48,287.78,222.62,287.78Z"/></g><path class="cls-2" d="M224.56,286.7V283a1.66,1.66,0,0,0-.52-1.07v3.75A1.66,1.66,0,0,1,224.56,286.7Z"/></g></g><path class="cls-2" d="M224.56,283c0,.65-.69,1.08-1.94,1.08v3.75c1.25,0,1.94-.43,1.94-1.08Z"/><g class="cls-20"><g class="cls-4"><path class="cls-2" d="M222.62,287.78V284c1.86,0,2.49-1,1.42-2.15v3.75C225.11,286.81,224.48,287.78,222.62,287.78Z"/><line class="cls-2" x1="224.06" y1="287.49" x2="224.06" y2="283.74"/><line class="cls-2" x1="224.56" y1="286.71" x2="224.56" y2="282.96"/></g><path class="cls-2" d="M224.56,283c0,.65-.69,1.08-1.94,1.08v3.75c1.25,0,1.94-.43,1.94-1.08Z"/></g><polygon class="cls-2" points="224.04 285.63 224.04 281.88 195.87 250.7 195.87 254.45 224.04 285.63"/><g class="cls-21"><polygon class="cls-2" points="224.04 285.63 224.04 281.88 195.87 250.7 195.87 254.45 224.04 285.63"/></g><g class="cls-4"><path class="cls-2" d="M195.87,254.45V250.7a8.13,8.13,0,0,0-5.3-2.14v3.75A8.08,8.08,0,0,1,195.87,254.45Z"/><g class="cls-22"><g class="cls-4"><path class="cls-2" d="M190.57,248.56v3.75C192.42,252.31,192.42,248.56,190.57,248.56Z"/><line class="cls-2" x1="194.43" y1="253.37" x2="194.43" y2="249.62"/><line class="cls-2" x1="192.53" y1="252.6" x2="192.53" y2="248.85"/></g><path class="cls-2" d="M190.57,248.56v3.75C192.42,252.31,192.42,248.56,190.57,248.56Z"/></g></g><g class="cls-4"><rect class="cls-2" x="74.93" y="248.56" width="115.64" height="3.75"/><g class="cls-23"><rect class="cls-2" x="74.93" y="248.56" width="115.64" height="3.75"/></g></g><g class="cls-4"><path class="cls-2" d="M73,253.38a1.66,1.66,0,0,0,.52,1.07V250.7a1.66,1.66,0,0,1-.52-1.07Z"/><g class="cls-24"><g class="cls-4"><path class="cls-2" d="M74.93,252.31v-3.75c-1.86,0-2.49,1-1.42,2.14v3.75C72.44,253.26,73.07,252.31,74.93,252.31Z"/></g><path class="cls-2" d="M73,253.38a1.66,1.66,0,0,0,.52,1.07V250.7a1.66,1.66,0,0,1-.52-1.07Z"/></g></g><g class="cls-4"><path class="cls-2" d="M73,249.63v3.75c0-.64.69-1.07,1.94-1.07v-3.75C73.68,248.56,73,249,73,249.63Z"/><g class="cls-25"><g class="cls-4"><path class="cls-2" d="M74.93,252.31v-3.75c-1.86,0-2.49,1-1.42,2.14v3.75C72.44,253.26,73.07,252.31,74.93,252.31Z"/><line class="cls-2" x1="73.49" y1="252.6" x2="73.49" y2="248.85"/><line class="cls-2" x1="72.99" y1="253.37" x2="72.99" y2="249.62"/></g><path class="cls-2" d="M73,249.63v3.75c0-.64.69-1.07,1.94-1.07v-3.75C73.68,248.56,73,249,73,249.63Z"/></g></g><polygon class="cls-2" points="73.51 254.45 101.68 285.63 101.68 281.88 73.51 250.7 73.51 254.45"/><g class="cls-26"><polygon class="cls-2" points="73.51 254.45 101.68 285.63 101.68 281.88 73.51 250.7 73.51 254.45"/></g><path class="cls-2" d="M101.68,285.63a8.14,8.14,0,0,0,5.3,2.15V284a8.14,8.14,0,0,1-5.3-2.15Z"/><g class="cls-27"><g class="cls-4"><path class="cls-2" d="M101.68,285.63v-3.75A8.14,8.14,0,0,0,107,284v3.75A8.14,8.14,0,0,1,101.68,285.63Z"/><line class="cls-2" x1="103.12" y1="286.71" x2="103.12" y2="282.96"/><line class="cls-2" x1="105.02" y1="287.49" x2="105.02" y2="283.74"/></g><path class="cls-2" d="M101.68,285.63a8.14,8.14,0,0,0,5.3,2.15V284a8.14,8.14,0,0,1-5.3-2.15Z"/></g><rect class="cls-2" x="106.98" y="284.03" width="115.64" height="3.75"/><g class="cls-28"><rect class="cls-2" x="106.98" y="284.03" width="115.64" height="3.75"/></g></g><rect class="cls-1" x="22.54" y="119.53" width="203.76" height="115.68" rx="4.57" transform="translate(248.83 354.75) rotate(-180)"/><rect class="cls-29" x="30.43" y="129.95" width="187.98" height="94.84" rx="3.98" transform="translate(248.83 354.75) rotate(-180)"/><rect class="cls-2" x="38.51" y="168.19" width="35.13" height="9.5" rx="2.9"/><rect class="cls-2" x="38.51" y="181.56" width="76.1" height="35.79" rx="2.9"/><rect class="cls-30" x="132.75" y="137.9" width="76.1" height="21.5" rx="2.9"/><rect class="cls-2" x="55.54" y="234.02" width="137.82" height="5.74" rx="2.36" transform="translate(248.9 473.79) rotate(-180)"/><g class="cls-4"><g class="cls-4"><path class="cls-1" d="M266.16,236.75c-3.1,0-4.15-1.61-2.37-3.58l46.92-51.92c1.79-2,5.74-3.57,8.82-3.57H512.1c3.1,0,4.15,1.59,2.37,3.57l-46.92,51.92a13.51,13.51,0,0,1-8.82,3.58Z"/><g class="cls-31"><path class="cls-1" d="M266.16,236.75c-3.1,0-4.15-1.61-2.37-3.58l46.92-51.92c1.79-2,5.74-3.57,8.82-3.57H512.1c3.1,0,4.15,1.59,2.37,3.57l-46.92,51.92a13.51,13.51,0,0,1-8.82,3.58Z"/></g></g><g class="cls-4"><path class="cls-1" d="M266.16,243c-3.1,0-4.15-1.61-2.37-3.57l46.92-51.93c1.79-2,5.74-3.57,8.82-3.57H512.1c3.1,0,4.15,1.6,2.37,3.57l-46.92,51.93a13.55,13.55,0,0,1-8.82,3.57Z"/><g class="cls-32"><path class="cls-1" d="M266.16,243c-3.1,0-4.15-1.61-2.37-3.57l46.92-51.93c1.79-2,5.74-3.57,8.82-3.57H512.1c3.1,0,4.15,1.6,2.37,3.57l-46.92,51.93a13.55,13.55,0,0,1-8.82,3.57Z"/></g></g><g class="cls-4"><path class="cls-1" d="M262.92,241.2V235a2.8,2.8,0,0,1,.87-1.78v6.25A2.76,2.76,0,0,0,262.92,241.2Z"/><g class="cls-33"><g class="cls-4"><path class="cls-1" d="M266.16,243v-6.24c-3.1,0-4.15-1.61-2.37-3.58v6.25C262,241.38,263.06,243,266.16,243Z"/></g><path class="cls-1" d="M262.92,241.2V235a2.8,2.8,0,0,1,.87-1.78v6.25A2.76,2.76,0,0,0,262.92,241.2Z"/></g></g><path class="cls-2" d="M262.92,235c0,1.07,1.16,1.8,3.24,1.8V243c-2.08,0-3.24-.72-3.24-1.79Z"/><g class="cls-34"><g class="cls-4"><path class="cls-2" d="M266.16,243v-6.24c-3.1,0-4.15-1.61-2.37-3.58v6.25C262,241.38,263.06,243,266.16,243Z"/><line class="cls-2" x1="263.77" y1="242.5" x2="263.77" y2="236.26"/><line class="cls-2" x1="262.92" y1="241.22" x2="262.92" y2="234.97"/></g><path class="cls-2" d="M262.92,235c0,1.07,1.16,1.8,3.24,1.8V243c-2.08,0-3.24-.72-3.24-1.79Z"/></g><polygon class="cls-1" points="263.79 239.42 263.79 233.17 310.71 181.25 310.71 187.49 263.79 239.42"/><g class="cls-35"><polygon class="cls-1" points="263.79 239.42 263.79 233.17 310.71 181.25 310.71 187.49 263.79 239.42"/></g><g class="cls-4"><path class="cls-1" d="M310.71,187.49v-6.24c1.79-2,5.74-3.57,8.82-3.57v6.24C316.45,183.92,312.5,185.52,310.71,187.49Z"/><g class="cls-36"><g class="cls-4"><path class="cls-1" d="M319.53,177.68v6.24C316.45,183.92,316.45,177.68,319.53,177.68Z"/><line class="cls-1" x1="313.11" y1="185.69" x2="313.11" y2="179.44"/></g><path class="cls-1" d="M319.53,177.68v6.24C316.45,183.92,316.45,177.68,319.53,177.68Z"/></g></g><g class="cls-4"><rect class="cls-1" x="319.53" y="177.68" width="192.57" height="6.24"/><g class="cls-37"><rect class="cls-1" x="319.53" y="177.68" width="192.57" height="6.24"/></g></g><g class="cls-4"><path class="cls-1" d="M515.33,185.71a2.78,2.78,0,0,1-.86,1.78v-6.24a2.78,2.78,0,0,0,.86-1.79Z"/><g class="cls-38"><g class="cls-4"><path class="cls-1" d="M512.1,183.92v-6.24c3.1,0,4.15,1.59,2.37,3.57v6.24C516.25,185.52,515.2,183.92,512.1,183.92Z"/></g><path class="cls-1" d="M515.33,185.71a2.78,2.78,0,0,1-.86,1.78v-6.24a2.78,2.78,0,0,0,.86-1.79Z"/></g></g><g class="cls-4"><path class="cls-1" d="M515.33,179.46v6.25c0-1.07-1.15-1.79-3.23-1.79v-6.24C514.18,177.68,515.33,178.39,515.33,179.46Z"/><g class="cls-39"><g class="cls-4"><path class="cls-1" d="M512.1,183.92v-6.24c3.1,0,4.15,1.59,2.37,3.57v6.24C516.25,185.52,515.2,183.92,512.1,183.92Z"/><line class="cls-1" x1="514.49" y1="184.41" x2="514.49" y2="178.16"/><line class="cls-1" x1="515.33" y1="185.69" x2="515.33" y2="179.44"/></g><path class="cls-1" d="M515.33,179.46v6.25c0-1.07-1.15-1.79-3.23-1.79v-6.24C514.18,177.68,515.33,178.39,515.33,179.46Z"/></g></g><polygon class="cls-2" points="514.47 187.49 467.55 239.42 467.55 233.17 514.47 181.25 514.47 187.49"/><g class="cls-40"><polygon class="cls-2" points="514.47 187.49 467.55 239.42 467.55 233.17 514.47 181.25 514.47 187.49"/></g><path class="cls-2" d="M467.55,239.42a13.55,13.55,0,0,1-8.82,3.57v-6.24a13.51,13.51,0,0,0,8.82-3.58Z"/><g class="cls-41"><g class="cls-4"><path class="cls-2" d="M467.55,239.42v-6.25a13.51,13.51,0,0,1-8.82,3.58V243A13.55,13.55,0,0,0,467.55,239.42Z"/><line class="cls-2" x1="465.15" y1="241.22" x2="465.15" y2="234.97"/><line class="cls-2" x1="461.99" y1="242.5" x2="461.99" y2="236.26"/></g><path class="cls-2" d="M467.55,239.42a13.55,13.55,0,0,1-8.82,3.57v-6.24a13.51,13.51,0,0,0,8.82-3.58Z"/></g><rect class="cls-2" x="266.16" y="236.75" width="192.57" height="6.24"/><g class="cls-42"><rect class="cls-2" x="266.16" y="236.75" width="192.57" height="6.24"/></g></g><g class="cls-4"><g class="cls-4"><path class="cls-2" d="M315.28,223.07c-1.86,0-2.49-1-1.42-2.14L342,189.75a8,8,0,0,1,5.29-2.15H463c1.86,0,2.49,1,1.42,2.15l-28.18,31.18a8.11,8.11,0,0,1-5.3,2.14Z"/><g class="cls-43"><path class="cls-2" d="M315.28,223.07c-1.86,0-2.49-1-1.42-2.14L342,189.75a8,8,0,0,1,5.29-2.15H463c1.86,0,2.49,1,1.42,2.15l-28.18,31.18a8.11,8.11,0,0,1-5.3,2.14Z"/></g></g><g class="cls-4"><path class="cls-2" d="M315.28,226.82c-1.86,0-2.49-1-1.42-2.14L342,193.5a8,8,0,0,1,5.29-2.15H463c1.86,0,2.49,1,1.42,2.15l-28.18,31.18a8.11,8.11,0,0,1-5.3,2.14Z"/><g class="cls-44"><path class="cls-2" d="M315.28,226.82c-1.86,0-2.49-1-1.42-2.14L342,193.5a8,8,0,0,1,5.29-2.15H463c1.86,0,2.49,1,1.42,2.15l-28.18,31.18a8.11,8.11,0,0,1-5.3,2.14Z"/></g></g><g class="cls-4"><path class="cls-2" d="M313.34,225.75V222a1.68,1.68,0,0,1,.52-1.07v3.75A1.68,1.68,0,0,0,313.34,225.75Z"/><g class="cls-45"><g class="cls-4"><path class="cls-2" d="M315.28,226.82v-3.75c-1.86,0-2.49-1-1.42-2.14v3.75C312.79,225.86,313.42,226.82,315.28,226.82Z"/></g><path class="cls-2" d="M313.34,225.75V222a1.68,1.68,0,0,1,.52-1.07v3.75A1.68,1.68,0,0,0,313.34,225.75Z"/></g></g><path class="cls-2" d="M313.34,222c0,.64.69,1.07,1.94,1.07v3.75c-1.25,0-1.94-.43-1.94-1.07Z"/><g class="cls-46"><g class="cls-4"><path class="cls-2" d="M315.28,226.82v-3.75c-1.86,0-2.49-1-1.42-2.14v3.75C312.79,225.86,313.42,226.82,315.28,226.82Z"/><line class="cls-2" x1="313.85" y1="226.53" x2="313.85" y2="222.78"/><line class="cls-2" x1="313.34" y1="225.76" x2="313.34" y2="222.01"/></g><path class="cls-2" d="M313.34,222c0,.64.69,1.07,1.94,1.07v3.75c-1.25,0-1.94-.43-1.94-1.07Z"/></g><polygon class="cls-2" points="313.86 224.68 313.86 220.93 342.04 189.75 342.04 193.5 313.86 224.68"/><g class="cls-47"><polygon class="cls-2" points="313.86 224.68 313.86 220.93 342.04 189.75 342.04 193.5 313.86 224.68"/></g><g class="cls-4"><path class="cls-2" d="M342,193.5v-3.75a8,8,0,0,1,5.29-2.15v3.75A8,8,0,0,0,342,193.5Z"/><g class="cls-48"><g class="cls-4"><path class="cls-2" d="M347.33,187.6v3.75C345.48,191.35,345.48,187.6,347.33,187.6Z"/><line class="cls-2" x1="345.38" y1="191.64" x2="345.38" y2="187.89"/></g><path class="cls-2" d="M347.33,187.6v3.75C345.48,191.35,345.48,187.6,347.33,187.6Z"/></g></g><g class="cls-4"><rect class="cls-2" x="347.33" y="187.6" width="115.64" height="3.75"/><g class="cls-49"><rect class="cls-2" x="347.33" y="187.6" width="115.64" height="3.75"/></g></g><g class="cls-4"><path class="cls-2" d="M464.92,192.42a1.73,1.73,0,0,1-.52,1.08v-3.75a1.73,1.73,0,0,0,.52-1.08Z"/><g class="cls-50"><g class="cls-4"><path class="cls-2" d="M463,191.35V187.6c1.86,0,2.49,1,1.42,2.15v3.75C465.47,192.31,464.84,191.35,463,191.35Z"/></g><path class="cls-2" d="M464.92,192.42a1.73,1.73,0,0,1-.52,1.08v-3.75a1.73,1.73,0,0,0,.52-1.08Z"/></g></g><g class="cls-4"><path class="cls-2" d="M464.92,188.67v3.75c0-.64-.7-1.07-1.94-1.07V187.6C464.22,187.6,464.92,188,464.92,188.67Z"/><g class="cls-51"><g class="cls-4"><path class="cls-2" d="M463,191.35V187.6c1.86,0,2.49,1,1.42,2.15v3.75C465.47,192.31,464.84,191.35,463,191.35Z"/><line class="cls-2" x1="464.41" y1="191.64" x2="464.41" y2="187.89"/><line class="cls-2" x1="464.92" y1="192.41" x2="464.92" y2="188.66"/></g><path class="cls-2" d="M464.92,188.67v3.75c0-.64-.7-1.07-1.94-1.07V187.6C464.22,187.6,464.92,188,464.92,188.67Z"/></g></g><polygon class="cls-2" points="464.4 193.5 436.22 224.68 436.22 220.93 464.4 189.75 464.4 193.5"/><g class="cls-52"><polygon class="cls-2" points="464.4 193.5 436.22 224.68 436.22 220.93 464.4 189.75 464.4 193.5"/></g><path class="cls-2" d="M436.22,224.68a8.11,8.11,0,0,1-5.3,2.14v-3.75a8.11,8.11,0,0,0,5.3-2.14Z"/><g class="cls-53"><g class="cls-4"><path class="cls-2" d="M436.22,224.68v-3.75a8.11,8.11,0,0,1-5.3,2.14v3.75A8.11,8.11,0,0,0,436.22,224.68Z"/><line class="cls-2" x1="434.78" y1="225.76" x2="434.78" y2="222.01"/></g><path class="cls-2" d="M436.22,224.68a8.11,8.11,0,0,1-5.3,2.14v-3.75a8.11,8.11,0,0,0,5.3-2.14Z"/></g><rect class="cls-2" x="315.28" y="223.07" width="115.64" height="3.75"/><g class="cls-54"><rect class="cls-2" x="315.28" y="223.07" width="115.64" height="3.75"/></g></g><rect class="cls-1" x="315.73" y="59" width="203.76" height="115.68" rx="4.57"/><rect class="cls-29" x="323.62" y="69.42" width="187.98" height="94.84" rx="3.98"/><rect class="cls-55" x="493.07" y="147.28" width="10.16" height="10.16" rx="5.08" transform="translate(996.3 304.72) rotate(180)"/><rect class="cls-56" x="477.07" y="147.28" width="10.16" height="10.16" rx="5.08" transform="translate(964.3 304.72) rotate(-180)"/><rect class="cls-2" x="405.54" y="87.08" width="24.14" height="24.14" rx="12.07" transform="translate(783.01 -126.04) rotate(135)"/><path class="cls-2" d="M448.63,136.19h0a26.87,26.87,0,0,0-26.86-26.86h-8.32a26.87,26.87,0,0,0-26.86,26.86h0C386.59,151,448.63,151,448.63,136.19Z"/><rect class="cls-2" x="344.55" y="173.55" width="137.82" height="5.74" rx="2.36"/><path class="cls-57" d="M449.53,323.24a55.21,55.21,0,0,1,46.36-62.86A55.19,55.19,0,0,1,449.53,323.24Z"/><path class="cls-57" d="M434.13,311.35a39.35,39.35,0,0,1-29.68-47.14A39.37,39.37,0,0,1,434.13,311.35Z"/><path class="cls-57" d="M116.61,101.08A70.75,70.75,0,0,1,34.8,43.38,70.74,70.74,0,0,1,116.61,101.08Z"/><path class="cls-57" d="M166.77,69.62a39.36,39.36,0,0,1-43.16,35.22A39.37,39.37,0,0,1,166.77,69.62Z"/></g></svg>