<svg xmlns="http://www.w3.org/2000/svg" viewBox="0 0 560 355"><defs><style>.cls-1{fill:#f7f3ed;}.cls-2{fill:#a0d6b4;}.cls-3{fill:#ac8171;}.cls-4{fill:#4f4c4b;opacity:0.3;}.cls-5{fill:#9b6c5d;}.cls-6{fill:#917ca5;}.cls-7{fill:#a795b5;}.cls-8{fill:#b6a1c4;}.cls-9{fill:#f8f7f9;}.cls-10{fill:#6fcbdc;}.cls-11{fill:#b5a1c4;}.cls-12{fill:#f27aaa;}</style></defs><g id="bg"><rect class="cls-1" width="560" height="355" rx="36.72"/></g><g id="petals"><path class="cls-2" d="M510.32,253a57.9,57.9,0,0,1-50.16,64.78A57.9,57.9,0,0,1,510.32,253Z"/><path class="cls-2" d="M393.86,265.91A44.84,44.84,0,0,1,444,304.77,44.85,44.85,0,0,1,393.86,265.91Z"/><path class="cls-2" d="M49.68,253a57.9,57.9,0,0,0,50.16,64.78A57.9,57.9,0,0,0,49.68,253Z"/><path class="cls-2" d="M166.14,265.91A44.84,44.84,0,0,0,116,304.77,44.85,44.85,0,0,0,166.14,265.91Z"/></g><g id="formteam"><rect class="cls-3" x="259.85" y="215.68" width="40.3" height="92.17" rx="6.47"/><polygon class="cls-4" points="277.87 213 300.15 259.37 300.15 215.68 277.87 213"/><path class="cls-5" d="M86.68,182.53,94.34,204h0s3.23,6.41,10,7.1c36.24,5.11,191.58,24.08,354.62-.49a8.24,8.24,0,0,0,2.39-.74,9.91,9.91,0,0,0,3.55-3.89l8.37-23.41Z"/><ellipse class="cls-3" cx="280" cy="182.53" rx="193.32" ry="20.67"/><polygon class="cls-6" points="145.16 162.75 175.89 160 188.56 176.66 187.52 181.63 170.07 182.72 148.03 166.5 145.16 162.75"/><polygon class="cls-7" points="179.49 177.18 179.49 180.5 240.74 173.6 240.74 171.07 179.49 177.18"/><polygon class="cls-6" points="245.97 172.71 237.74 167.18 237.74 173.56 238.68 175.79 245.97 172.71"/><polygon class="cls-8" points="179.49 180.5 240.74 173.6 245.97 172.71 245.97 177.81 172.52 187.62 170.07 182.72 179.49 180.5"/><path class="cls-8" d="M173.61,177.77,242,170.91c2.9-.29,5.23-3.54,5.23-7.23V129.26c0-3.69-2.33-6.89-5.23-7.11l-68.42-5.35a7.94,7.94,0,0,0-8.55,8.09v45A7.75,7.75,0,0,0,173.61,177.77Z"/><polygon class="cls-8" points="145.16 162.75 143.84 167.82 172.52 187.62 170.07 182.72 145.16 162.75"/><polyline class="cls-8" points="170.07 181.39 179.49 180.5 170.07 181.39 170.07 182.72 152.53 168.66 170.07 181.39"/><polygon class="cls-8" points="170.07 181.39 170.07 182.72 179.35 180.54 170.07 181.39"/><polygon class="cls-6" points="418.83 162.75 388.1 160 375.43 176.66 376.47 181.63 393.91 182.72 415.96 166.5 418.83 162.75"/><polygon class="cls-7" points="384.5 177.18 384.5 180.5 323.25 173.6 323.25 171.07 384.5 177.18"/><polygon class="cls-6" points="318.02 172.71 326.25 167.18 326.25 173.56 325.31 175.79 318.02 172.71"/><polygon class="cls-8" points="384.5 180.5 323.25 173.6 318.02 172.71 318.02 177.81 391.46 187.62 393.91 182.72 384.5 180.5"/><path class="cls-8" d="M390.38,177.77,322,170.91c-2.9-.29-5.23-3.54-5.23-7.23V129.26c0-3.69,2.33-6.89,5.23-7.11l68.42-5.35a7.94,7.94,0,0,1,8.55,8.09v45A7.75,7.75,0,0,1,390.38,177.77Z"/><polygon class="cls-8" points="418.83 162.75 420.15 167.82 391.46 187.62 393.91 182.72 418.83 162.75"/><polyline class="cls-8" points="393.91 181.39 384.5 180.5 393.91 181.39 393.91 182.72 411.46 168.66 393.91 181.39"/><polygon class="cls-8" points="393.91 181.39 393.91 182.72 384.63 180.54 393.91 181.39"/><ellipse class="cls-9" cx="208.4" cy="148.31" rx="12.95" ry="9.98"/><ellipse class="cls-9" cx="355.97" cy="148.31" rx="12.95" ry="9.98"/><rect class="cls-3" x="259.85" y="215.68" width="40.3" height="92.17" rx="6.47"/><polygon class="cls-4" points="277.87 213 300.15 259.37 300.15 215.68 277.87 213"/><path class="cls-5" d="M86.68,182.53,94.34,204h0s3.23,6.41,10,7.1c36.24,5.11,191.58,24.08,354.62-.49a8.24,8.24,0,0,0,2.39-.74,9.91,9.91,0,0,0,3.55-3.89l8.37-23.41Z"/><ellipse class="cls-3" cx="280" cy="182.53" rx="193.32" ry="20.67"/><polygon class="cls-6" points="145.16 162.75 175.89 160 188.56 176.66 187.52 181.63 170.07 182.72 148.03 166.5 145.16 162.75"/><polygon class="cls-7" points="179.49 177.18 179.49 180.5 240.74 173.6 240.74 171.07 179.49 177.18"/><polygon class="cls-6" points="245.97 172.71 237.74 167.18 237.74 173.56 238.68 175.79 245.97 172.71"/><polygon class="cls-8" points="179.49 180.5 240.74 173.6 245.97 172.71 245.97 177.81 172.52 187.62 170.07 182.72 179.49 180.5"/><path class="cls-8" d="M173.61,177.77,242,170.91c2.9-.29,5.23-3.54,5.23-7.23V129.26c0-3.69-2.33-6.89-5.23-7.11l-68.42-5.35a7.94,7.94,0,0,0-8.55,8.09v45A7.75,7.75,0,0,0,173.61,177.77Z"/><polygon class="cls-8" points="145.16 162.75 143.84 167.82 172.52 187.62 170.07 182.72 145.16 162.75"/><polyline class="cls-8" points="170.07 181.39 179.49 180.5 170.07 181.39 170.07 182.72 152.53 168.66 170.07 181.39"/><polygon class="cls-8" points="170.07 181.39 170.07 182.72 179.35 180.54 170.07 181.39"/><polygon class="cls-6" points="418.83 162.75 388.1 160 375.43 176.66 376.47 181.63 393.91 182.72 415.96 166.5 418.83 162.75"/><polygon class="cls-7" points="384.5 177.18 384.5 180.5 323.25 173.6 323.25 171.07 384.5 177.18"/><polygon class="cls-6" points="318.02 172.71 326.25 167.18 326.25 173.56 325.31 175.79 318.02 172.71"/><polygon class="cls-8" points="384.5 180.5 323.25 173.6 318.02 172.71 318.02 177.81 391.46 187.62 393.91 182.72 384.5 180.5"/><path class="cls-8" d="M390.38,177.77,322,170.91c-2.9-.29-5.23-3.54-5.23-7.23V129.26c0-3.69,2.33-6.89,5.23-7.11l68.42-5.35a7.94,7.94,0,0,1,8.55,8.09v45A7.75,7.75,0,0,1,390.38,177.77Z"/><polygon class="cls-8" points="418.83 162.75 420.15 167.82 391.46 187.62 393.91 182.72 418.83 162.75"/><polyline class="cls-8" points="393.91 181.39 384.5 180.5 393.91 181.39 393.91 182.72 411.46 168.66 393.91 181.39"/><polygon class="cls-8" points="393.91 181.39 393.91 182.72 384.63 180.54 393.91 181.39"/><ellipse class="cls-9" cx="208.4" cy="148.31" rx="12.95" ry="9.98"/><ellipse class="cls-9" cx="355.97" cy="148.31" rx="12.95" ry="9.98"/><path class="cls-10" d="M246.94,65.73a47.29,47.29,0,0,1,66.12-1.34c3.94,3.69,9.9-2.24,5.94-5.94a55.84,55.84,0,0,0-78,1.34c-3.81,3.84,2.13,9.79,5.94,5.94Z"/><path class="cls-11" d="M257.64,77.4a32,32,0,0,1,44.72-1c4,3.68,9.92-2.25,5.94-5.94a40.59,40.59,0,0,0-56.6.94c-3.83,3.83,2.11,9.77,5.94,6Z"/><path class="cls-12" d="M269.42,88.54A15.21,15.21,0,0,1,290.58,88c4,3.6,10-2.32,5.94-5.94-9.71-8.69-23.61-8.59-33,.51-3.9,3.76,2,9.69,5.94,5.94Z"/><circle class="cls-10" cx="280" cy="98.45" r="5.79"/></g></svg>