<svg xmlns="http://www.w3.org/2000/svg" viewBox="0 0 1000 1000"><defs><style>.cls-1{fill:#51931c;}.cls-2{fill:#96c42c;}.cls-3{fill:#b5ce00;}.cls-4{fill:#ffec98;}.cls-5{fill:#67b020;}.cls-6{fill:#d687d4;}.cls-7{fill:#fecdff;}.cls-8{fill:#ffb735;}</style></defs><g id="Layer_6" data-name="Layer 6"><path class="cls-1" d="M467.86,661A112.51,112.51,0,0,0,472,630.51c0-49-30.67-88.82-68.5-88.82a53.94,53.94,0,0,0-12.4,1.48c-12.42-48.07-44.78-82.34-82.76-82.34-39.28,0-72.57,36.69-84,87.39a55.76,55.76,0,0,0-26-6.53C157.87,541.69,125,587.1,125,643.1a139.84,139.84,0,0,0,1.14,17.9Z"/><path class="cls-2" d="M485,733A55.17,55.17,0,0,0,490,710c0-37-37.38-67-83.5-67a104.16,104.16,0,0,0-15.12,1.12C376.24,607.86,336.79,582,290.5,582c-47.89,0-88.46,27.68-102.36,65.92A102.86,102.86,0,0,0,156.5,643C107.07,643,67,677.25,67,719.5A66.27,66.27,0,0,0,68.39,733Z"/><path class="cls-1" d="M843,733a130.38,130.38,0,0,0,4.14-32.9c0-52.93-30.66-95.84-68.49-95.84a49.83,49.83,0,0,0-12.4,1.59C753.83,554,721.46,517,683.49,517c-39.29,0-72.57,39.6-84,94.3a52.5,52.5,0,0,0-26-7c-40.54,0-73.42,49-73.42,109.43A164.76,164.76,0,0,0,501.28,733Z"/><path class="cls-3" d="M823.09,733a55.17,55.17,0,0,0,5-23c0-37-37.38-67-83.5-67a103.92,103.92,0,0,0-15.11,1.12C714.39,607.86,674.93,582,628.64,582c-47.89,0-88.46,27.68-102.36,65.92A102.86,102.86,0,0,0,494.64,643c-49.43,0-89.5,34.25-89.5,76.5a66.27,66.27,0,0,0,1.39,13.5Z"/></g><g id="Layer_4" data-name="Layer 4"><path class="cls-4" d="M457.46,750.38S288.19,766.66,253,645.19c-16.08-55.52.19-119.85,27.69-176.64,33.59-69.37,83.94-127.51,112.6-144.67,49.92-29.88,129.16-2.49,152.59,14.33s166.3,137.88,128.51,274.65S457.46,750.38,457.46,750.38Z"/><path class="cls-4" d="M250.1,559.63s-40.32,19.51-62.31,18.74c-29-1,17.33-94.45,92.9-109.82"/><path class="cls-4" d="M679.25,535.86s42.25,14.88,64,11.66-27.79-91.92-104.6-98.75"/><path class="cls-4" d="M378.4,334.83s-24.26-21.82-6.95-30.22,54.26,7.74,54.26,7.74-16.66-24.44,3.68-33.74c19.44-8.88,39.67,33.32,39.67,33.32s14.68-42.43,37.63-40.62c31.68,2.48-11.37,45.69-11.37,45.69"/><path class="cls-5" d="M173.83,722.67c-.57,5.2,7.77,5.73,8.63.57,10.2-60.64,76.46-319.49,90.76-385,3.74-17.16,18.33-95.42-6-28.23C267,310.64,186.85,605.36,173.83,722.67Z"/><path class="cls-6" d="M228.79,488.54a3.19,3.19,0,0,1-5.68.59C212,471.67,174.6,408,212.86,405.68,234.51,404.37,237,467,228.79,488.54Z"/><path class="cls-6" d="M236.67,476.49c1.41-9,2.73-28.13,25.73-47.56,20.54-17.35,40.93-9.62,27.78,9.82-9,13.25-25.15,26.67-45.85,39.85C240.53,481,236.16,479.81,236.67,476.49Z"/><path class="cls-6" d="M253.52,404c1.82-7.59,4.18-23.67,26.31-41,19.76-15.46,37.87-9.91,24.72,7-9,11.49-24.53,23.46-44.18,35.43C256.75,407.59,252.84,406.77,253.52,404Z"/><path class="cls-7" d="M259.53,360c.33,4.79-1.32,6.47-7.83,3.05-15.57-8.18-31.16-43.54-12.35-48.86C246.54,312.17,258.25,341.91,259.53,360Z"/><path class="cls-6" d="M303.12,321.25a3.28,3.28,0,0,1,3.71,4.8c-7.92,14-29.94,48.77-42.72,29.32C257.71,345.63,287.26,325.43,303.12,321.25Z"/><path class="cls-6" d="M292.31,286.27c14.05-8.95,17,.82,13.64,9.23-6.57,16.22-17,33.44-29.25,21.83C270.8,311.73,278.94,294.79,292.31,286.27Z"/><path class="cls-6" d="M199.18,483.43c.25-2.22,3.72-3.77,5.55-2.47,10,7.13,34.29,26.63,12.58,34.92C206.43,520,197.8,495.88,199.18,483.43Z"/><path class="cls-6" d="M245.47,298.3c-.36-7.88,10-11.07,14-4.3,9.36,15.68,18.67,37.3.74,39.79C251.53,335,246.22,315.06,245.47,298.3Z"/><path class="cls-7" d="M273.55,403.09c4.78-2.23,8.35,2,5.22,6.13-10.78,14.27-31,37.71-39.22,24.22C235.5,426.75,257.86,410.43,273.55,403.09Z"/><path class="cls-6" d="M245.78,415.38c-1.22,7-4.59,9-14.11,2.28-22.76-16.15-35.44-71.74-2.29-74.29C242.05,342.4,250.4,388.77,245.78,415.38Z"/><path class="cls-7" d="M263.92,282.67c-3.55-17.49,4.33-16.05,13.2-9.71,7,5,5.75,17.61-2.22,21.64C271.26,296.45,265.38,289.87,263.92,282.67Z"/><path class="cls-7" d="M232,497.66c-1.68,2.9-.91,5,5.08,6.69,14.31,4,36.69-9.54,23.9-24.3C256.13,474.41,238.38,486.67,232,497.66Z"/></g><g id="Layer_5" data-name="Layer 5"><path class="cls-8" d="M624.82,655.7c-10.77-3.29-32.05,15.21-47.63,41.37-3.48-27.23-15.6-48-27.37-46.64-11,1.28-17.86,21.5-16.35,46.45-19.91-18.71-41.75-29.33-50.75-24.08-9.83,5.74-.6,28.25,20.62,50.27a139.26,139.26,0,0,0,28,22.68h0a47.6,47.6,0,0,0,7.13,3.83c5.4,2.56,10.31,4.06,14.34,4.27,13,2,29.8-.56,44.52-19.25h0a145,145,0,0,0,18.83-25.29C631.74,683,635.62,659,624.82,655.7Z"/><ellipse cx="464.39" cy="479.96" rx="9" ry="7" transform="translate(-31.47 927.33) rotate(-88)"/><path class="cls-8" d="M438.56,511.69c-7.28,3.36-15,7.94-22.57,7.6-6.79-.3-13.41-5.16-19.78-8.45-9.89-5.11-19.57-11-19.45-14.28h0c.23-6.75,80.19-4,79.95,2.79h0C456.6,502.52,447.83,507.4,438.56,511.69Z"/><path class="cls-8" d="M441.93,678.17c-10.15-4.87-34,10.23-53.3,33.75.65-27.45-8.21-49.81-20.05-50.22-11.07-.39-20.88,18.57-23.14,43.47-16.87-21.5-36.87-35.27-46.56-31.43-10.58,4.2-4.84,27.83,12.83,52.79A139.45,139.45,0,0,0,336,753.16h0a48.45,48.45,0,0,0,6.48,4.86c5,3.34,9.58,5.55,13.53,6.37,12.53,3.92,29.54,3.92,46.91-12.35h0a145.51,145.51,0,0,0,22.42-22.17C444.68,706.2,452.12,683.06,441.93,678.17Z"/><ellipse cx="368.45" cy="476.61" rx="9" ry="7" transform="translate(-120.72 828.22) rotate(-88)"/></g></svg>