<svg xmlns="http://www.w3.org/2000/svg" viewBox="0 0 560 355"><defs><style>.cls-1{fill:#f7f3ed;}.cls-2{fill:#a0d6b4;}.cls-3{fill:#51bfce;}.cls-4{fill:#37acaf;}.cls-5{fill:#66ccd3;}.cls-6{fill:#9ee5e5;}.cls-7{fill:#4f4c4b;opacity:0.2;}.cls-8{fill:#ac8171;}.cls-9{fill:#9b6c5d;}.cls-10{fill:#936355;}.cls-11{fill:#76b58b;}</style></defs><g id="bg"><rect class="cls-1" width="560" height="355" rx="36.72"/></g><g id="petals"><path class="cls-2" d="M117.19,70A47.55,47.55,0,0,1,58.7,103.28,47.55,47.55,0,0,1,117.19,70Z"/><path class="cls-2" d="M38.59,43.27a31.28,31.28,0,0,1,23.5,37.51A31.28,31.28,0,0,1,38.59,43.27Z"/><path class="cls-2" d="M408.9,287.57a63.92,63.92,0,0,0,86,28A63.9,63.9,0,0,0,408.9,287.57Z"/><path class="cls-2" d="M520.07,251.86a31.29,31.29,0,0,1-29,33.48A31.29,31.29,0,0,1,520.07,251.86Z"/></g><g id="minievents"><path class="cls-3" d="M72.37,216.57l-8.74,80.54s36.45,11.72,77.5,0l-8.74-80.54"/><path class="cls-4" d="M72.37,216.57l-1,9s28,6.37,62,0l-1-9"/><ellipse class="cls-5" cx="102.38" cy="216.57" rx="30.01" ry="3.44"/><ellipse class="cls-6" cx="102.86" cy="216.39" rx="8.17" ry="1.06"/><ellipse class="cls-4" cx="102.86" cy="264.2" rx="17.55" ry="15.56"/><path class="cls-3" d="M231.4,216.57l-8.74,80.54s36.45,11.72,77.5,0l-8.74-80.54"/><path class="cls-4" d="M231.4,216.57l-1,9s28,6.37,62,0l-1-9"/><ellipse class="cls-5" cx="261.41" cy="216.57" rx="30.01" ry="3.44"/><ellipse class="cls-6" cx="261.89" cy="216.39" rx="8.17" ry="1.06"/><ellipse class="cls-4" cx="261.89" cy="264.2" rx="17.55" ry="15.56"/><ellipse class="cls-7" cx="248.05" cy="215.95" rx="17.08" ry="3.44"/><polygon class="cls-7" points="246.67 219.05 227.5 252.44 231.07 219.74 246.67 219.05"/><path class="cls-3" d="M151.87,216.57l-8.74,80.54s36.45,11.72,77.5,0l-8.74-80.54"/><path class="cls-4" d="M151.87,216.57l-1,9s28,6.37,62,0l-1-9"/><ellipse class="cls-5" cx="181.88" cy="216.57" rx="30.01" ry="3.44"/><ellipse class="cls-6" cx="182.36" cy="216.39" rx="8.17" ry="1.06"/><ellipse class="cls-4" cx="182.36" cy="264.2" rx="17.55" ry="15.56"/><ellipse class="cls-7" cx="182.53" cy="216.57" rx="28.57" ry="3.44"/><polygon class="cls-7" points="196.6 218.56 215.77 252.74 212.2 219.27 196.6 218.56"/><path class="cls-3" d="M190.62,135.51,181.88,216s36.45,11.72,77.5,0l-8.74-80.53"/><path class="cls-4" d="M190.62,135.51l-1,9s28,6.37,62,0l-1-9"/><ellipse class="cls-5" cx="220.63" cy="135.51" rx="30.01" ry="3.44"/><ellipse class="cls-6" cx="221.11" cy="135.32" rx="8.17" ry="1.06"/><ellipse class="cls-4" cx="221.11" cy="183.13" rx="17.55" ry="15.56"/><polygon class="cls-7" points="167.1 219.44 147.94 252.83 151.5 220.13 167.1 219.44"/><ellipse class="cls-7" cx="111.12" cy="216.39" rx="17.08" ry="3.44"/><polygon class="cls-7" points="117.19 219.44 136.36 253.62 132.79 220.15 117.19 219.44"/><path class="cls-3" d="M111.12,135.76l-8.74,80.54s36.45,11.72,77.5,0l-8.74-80.54"/><path class="cls-4" d="M111.12,135.76l-1,9s28,6.37,62,0l-1-9"/><ellipse class="cls-5" cx="141.13" cy="135.76" rx="30.01" ry="3.44"/><ellipse class="cls-6" cx="141.6" cy="135.57" rx="8.17" ry="1.06"/><ellipse class="cls-4" cx="141.6" cy="183.39" rx="17.55" ry="15.56"/><ellipse class="cls-7" cx="207.7" cy="135.51" rx="17.08" ry="3.44"/><polygon class="cls-7" points="205.68 139.99 186.51 173.38 190.08 140.68 205.68 139.99"/><polygon class="cls-7" points="156.02 139.2 175.19 173.38 171.62 139.91 156.02 139.2"/><ellipse class="cls-7" cx="156.04" cy="135.57" rx="17.08" ry="3.44"/><path class="cls-3" d="M151.87,56.12l-8.74,80.53s36.45,11.72,77.5,0l-8.74-80.53"/><path class="cls-4" d="M151.87,56.12l-1,9s28,6.37,62,0l-1-9"/><ellipse class="cls-5" cx="181.88" cy="56.12" rx="30.01" ry="3.44"/><ellipse class="cls-6" cx="182.36" cy="55.93" rx="8.17" ry="1.06"/><ellipse class="cls-4" cx="182.36" cy="103.74" rx="17.55" ry="15.56"/><path class="cls-8" d="M373,157.61l13.21,86.76s45.65,16.86,85.89,0l13.21-86.76"/><path class="cls-9" d="M365.63,131.47,368.81,156s58.44,26.19,119.75,0l3.19-24.49"/><ellipse class="cls-10" cx="428.69" cy="131.47" rx="63.06" ry="18.52"/><path class="cls-11" d="M418.1,69.33c-19.66,28.46-21.74,61.05-4.65,72.86C433.11,113.72,435.19,81.14,418.1,69.33Z"/><path class="cls-2" d="M376.53,86.65c31,15.41,48.54,42.93,39.29,61.53C384.85,132.76,367.28,105.25,376.53,86.65Z"/><path class="cls-11" d="M367,120.7c25.94,0,46.94,9.63,46.94,21.53C388,142.23,367,132.6,367,120.7Z"/><path class="cls-2" d="M431.85,70c-11.71,32.55-5.37,64.58,14.17,71.61C457.73,109,451.39,77,431.85,70Z"/><path class="cls-11" d="M481.44,86.65c-31,15.41-48.54,42.93-39.29,61.53C473.12,132.76,490.7,105.25,481.44,86.65Z"/><path class="cls-2" d="M491,120.7c-25.95,0-46.94,9.63-46.94,21.53C470,142.23,491,132.6,491,120.7Z"/></g></svg>