<svg xmlns="http://www.w3.org/2000/svg" viewBox="0 0 560 355"><defs><style>.cls-1{fill:#f7f3ed;}.cls-11,.cls-12,.cls-2{fill:none;stroke-linecap:round;stroke-linejoin:round;}.cls-11,.cls-2{stroke:#a795b5;}.cls-2{stroke-width:4.21px;}.cls-10,.cls-3{fill:#fff;stroke:#37acaf;stroke-miterlimit:10;}.cls-3{stroke-width:5.37px;}.cls-4{fill:#37acaf;}.cls-5{fill:#6fcbdc;}.cls-6{fill:#9bb0cb;}.cls-7{fill:#c695bb;}.cls-8{fill:#ef9abc;}.cls-9{fill:#f27aaa;}.cls-10{stroke-width:4.91px;}.cls-11,.cls-12{stroke-width:4.61px;}.cls-12{stroke:#ef9abc;}.cls-13{fill:#a0d6b4;}</style></defs><g id="research"><rect class="cls-1" width="560" height="355" rx="36.72"/><line class="cls-2" x1="106.82" y1="77.32" x2="120.95" y2="92.36"/><rect class="cls-3" x="294.34" y="75" width="190.65" height="256.54" rx="6.59" transform="translate(779.32 406.53) rotate(-180)"/><rect class="cls-4" x="294.34" y="75" width="190.65" height="19.02" rx="1.79" transform="translate(779.32 169.02) rotate(-180)"/><rect class="cls-5" x="314.5" y="128.33" width="22.86" height="187.4"/><rect class="cls-6" x="347.57" y="188.47" width="22.86" height="127.26"/><rect class="cls-7" x="380.64" y="107.39" width="22.86" height="208.34"/><rect class="cls-8" x="413.71" y="173.78" width="22.86" height="141.95"/><rect class="cls-9" x="446.77" y="252.1" width="22.86" height="63.63"/><rect class="cls-10" x="35.3" y="36.68" width="237.95" height="171.43" rx="6.02" transform="translate(308.54 244.79) rotate(-180)"/><rect class="cls-4" x="35.3" y="36.68" width="237.95" height="20.84" rx="2.1" transform="translate(308.54 94.2) rotate(-180)"/><circle class="cls-11" cx="61.27" cy="131.77" r="7.09"/><circle class="cls-11" cx="90.75" cy="85.02" r="7.09"/><circle class="cls-11" cx="200.49" cy="114.59" r="7.09"/><circle class="cls-11" cx="116.87" cy="110.75" r="7.09"/><line class="cls-11" x1="64.09" y1="124.68" x2="86.29" y2="91.65"/><line class="cls-11" x1="125.14" y1="110.75" x2="193.41" y2="114.59"/><circle class="cls-12" cx="63.12" cy="167.17" r="7.09"/><circle class="cls-12" cx="93.45" cy="173.34" r="7.09"/><circle class="cls-12" cx="126.46" cy="144.27" r="7.09"/><circle class="cls-12" cx="163.3" cy="144.27" r="7.09"/><circle class="cls-12" cx="196.65" cy="76.02" r="7.09"/><line class="cls-12" x1="70.2" y1="167.17" x2="86.36" y2="173.34"/><line class="cls-12" x1="100.53" y1="167.17" x2="121.46" y2="149.28"/><line class="cls-12" x1="133.55" y1="144.27" x2="156.22" y2="144.27"/><line class="cls-12" x1="170.39" y1="137.18" x2="192.91" y2="82.03"/><circle class="cls-11" cx="233.32" cy="160.09" r="7.09"/><line class="cls-11" x1="203.74" y1="121.68" x2="228.07" y2="155.04"/><line class="cls-11" x1="110.99" y1="106.78" x2="96.45" y2="89.21"/><path class="cls-13" d="M235.81,234A92.84,92.84,0,0,1,121.62,299,92.84,92.84,0,0,1,235.81,234Z"/><path class="cls-13" d="M47.31,244.59a71.38,71.38,0,0,1,53.61,85.6A71.38,71.38,0,0,1,47.31,244.59Z"/><path class="cls-13" d="M467.82,23.69A41.17,41.17,0,0,1,513,60.47,41.17,41.17,0,0,1,467.82,23.69Z"/><path class="cls-13" d="M524.42,64.72a27,27,0,0,1-22.84,30.57A27,27,0,0,1,524.42,64.72Z"/></g></svg>