<svg xmlns="http://www.w3.org/2000/svg" viewBox="0 0 560 355"><defs><style>.cls-1,.cls-5{fill:#f7f3ed;}.cls-2{fill:#a0d6b4;}.cls-3{fill:#f27aaa;}.cls-4{fill:#6fcbdc;}.cls-5{font-size:55.79px;font-family:MyriadPro-Regular, Myriad Pro;}</style></defs><g id="bg"><rect class="cls-1" width="560" height="355" rx="36.72"/></g><g id="petals"><path class="cls-2" d="M517.33,51.83A71.73,71.73,0,0,1,429.1,102,71.74,71.74,0,0,1,517.33,51.83Z"/><path class="cls-2" d="M47.32,301.69A63.88,63.88,0,0,1,125.89,257,63.88,63.88,0,0,1,47.32,301.69Z"/><path class="cls-2" d="M383.23,76.92a38.94,38.94,0,0,0,36.06,41.68A39,39,0,0,0,383.23,76.92Z"/><path class="cls-2" d="M173.73,313.14a38.94,38.94,0,0,0-36.06-41.68A39,39,0,0,0,173.73,313.14Z"/></g><g id="technichats"><path class="cls-3" d="M82.66,113.8h206.2c4.12,0,7.47,2.54,7.47,5.68v79.41c0,3.13-3.35,5.68-7.47,5.68H149.38l-28.56,30.25c-4.23,4.48-13.54,2.21-13.54-3.31V204.57H82.66c-4.12,0-7.47-2.55-7.47-5.68V119.48C75.19,116.34,78.54,113.8,82.66,113.8Z"/><path class="cls-4" d="M477.4,139.64H272.88c-4.1,0-7.41,2.54-7.41,5.68v79.41c0,3.13,3.31,5.68,7.41,5.68H411.22l28.33,30.25c4.2,4.48,13.44,2.21,13.44-3.31V230.41H477.4c4.09,0,7.41-2.55,7.41-5.68V145.32C484.81,142.18,481.49,139.64,477.4,139.64Z"/><text class="cls-5" transform="translate(152.8 175.5)">:-)</text><text class="cls-5" transform="matrix(-1, 0, 0, 1, 404.16, 202.34)">:)</text></g></svg>