<svg xmlns="http://www.w3.org/2000/svg" viewBox="0 0 560 355"><defs><style>.cls-1{fill:#f7f3ed;}.cls-2{fill:#a0d6b4;}.cls-3,.cls-5{fill:#51bfce;}.cls-3,.cls-6{opacity:0.7;}.cls-4,.cls-6{fill:#f5feff;}.cls-4{opacity:0.5;}.cls-7{fill:#a89f9e;}.cls-8{fill:#898383;}.cls-9{fill:#b5a1c4;}.cls-10{fill:#f27aaa;}.cls-11{fill:#f29cbf;}.cls-12{fill:#c4b6d3;}</style></defs><g id="bg"><rect class="cls-1" width="560" height="355" rx="36.72"/></g><g id="petals"><path class="cls-2" d="M340,55.33a59.12,59.12,0,0,1-33.65,76.59A59.12,59.12,0,0,1,340,55.33Z"/><path class="cls-2" d="M259.29,105.88a33,33,0,0,1,29.77,36A33,33,0,0,1,259.29,105.88Z"/><path class="cls-2" d="M484.51,298.25a59.16,59.16,0,0,0-45.23-70.43A59.15,59.15,0,0,0,484.51,298.25Z"/><path class="cls-2" d="M388.24,264.94a42.91,42.91,0,0,0,32.23-51.46A42.9,42.9,0,0,0,388.24,264.94Z"/></g><g id="watercooler"><rect class="cls-3" x="98.99" y="46.57" width="95.53" height="124.55" rx="12"/><rect class="cls-4" x="172.16" y="54.6" width="7.65" height="106.36" rx="3.83"/><rect class="cls-5" x="95.42" y="43.52" width="102.67" height="22.16" rx="7.38"/><rect class="cls-5" x="95.42" y="97.76" width="102.67" height="22.16" rx="6.99"/><rect class="cls-5" x="95.42" y="149.87" width="102.67" height="22.16" rx="6.54"/><rect class="cls-3" x="98.99" y="150.05" width="95.53" height="37.14" rx="15.26"/><rect class="cls-6" x="173.81" y="97.76" width="7.65" height="22.16"/><rect class="cls-6" x="173.81" y="43.52" width="7.65" height="22.16"/><rect class="cls-6" x="173.81" y="149.87" width="7.65" height="22.16"/><rect class="cls-7" x="96.31" y="187.19" width="100.88" height="124.3" rx="3.48"/><rect class="cls-1" x="112.13" y="217.09" width="69.25" height="79.12"/><rect class="cls-8" x="112.13" y="283.1" width="69.25" height="13.11"/><rect class="cls-8" x="155.9" y="231.22" width="9.66" height="20.04" rx="4.83"/><rect class="cls-8" x="128.85" y="231.22" width="9.66" height="20.04" rx="4.83"/><rect class="cls-9" x="128.85" y="241.91" width="9.66" height="3.37"/><rect class="cls-10" x="155.9" y="241.91" width="9.66" height="3.37"/><path class="cls-10" d="M461.29,82.91l-74.16,9.42,18.05,72.28h0c1.07,3.44,13.86,4.67,29.13,2.73l1-.14q2.7-.32,5.48-.87c12.06-2.21,20.87-5.85,21-8.92l0,0Z"/><ellipse class="cls-11" cx="424.21" cy="87.62" rx="37.38" ry="4.95" transform="translate(-7.66 54.18) rotate(-7.24)"/><path class="cls-9" d="M355,204.19l-74.43-7,1.83,74.47,0,0c.29,3.59,12.52,7.58,27.83,9l1,.09c1.8.19,3.65.3,5.54.34,12.25.48,21.65-1.15,22.47-4.11h0Z"/><ellipse class="cls-12" cx="317.74" cy="200.7" rx="4.95" ry="37.38" transform="translate(88.19 498.26) rotate(-84.63)"/></g></svg>