<svg id="workshops" xmlns="http://www.w3.org/2000/svg" xmlns:xlink="http://www.w3.org/1999/xlink" viewBox="0 0 560 355"><defs><style>.cls-1{fill:#b6a1c4;}.cls-2{fill:#a795b5;}.cls-3{fill:#f7f3ed;}.cls-4{isolation:isolate;}.cls-5{clip-path:url(#clip-path);}.cls-6{clip-path:url(#clip-path-2);}.cls-7{clip-path:url(#clip-path-3);}.cls-8{clip-path:url(#clip-path-4);}.cls-9{clip-path:url(#clip-path-5);}.cls-10{clip-path:url(#clip-path-6);}.cls-11{clip-path:url(#clip-path-7);}.cls-12{clip-path:url(#clip-path-8);}.cls-13{clip-path:url(#clip-path-9);}.cls-14{clip-path:url(#clip-path-10);}.cls-15{clip-path:url(#clip-path-11);}.cls-16{clip-path:url(#clip-path-12);}.cls-17{clip-path:url(#clip-path-13);}.cls-18{clip-path:url(#clip-path-14);}.cls-19{clip-path:url(#clip-path-15);}.cls-20{clip-path:url(#clip-path-16);}.cls-21{clip-path:url(#clip-path-17);}.cls-22{clip-path:url(#clip-path-18);}.cls-23{clip-path:url(#clip-path-19);}.cls-24{clip-path:url(#clip-path-20);}.cls-25{clip-path:url(#clip-path-21);}.cls-26{clip-path:url(#clip-path-22);}.cls-27{clip-path:url(#clip-path-23);}.cls-28{clip-path:url(#clip-path-24);}.cls-29{fill:#fff;}.cls-30{fill:#37acaf;}.cls-31{fill:#4f4c4b;}.cls-32{fill:#beb3b2;}.cls-33{font-size:32.4px;fill:#f27aaa;font-family:DINPro-Bold, DINPro;font-weight:700;}.cls-34,.cls-35{fill:none;stroke-linecap:round;stroke-linejoin:round;stroke-width:3.96px;}.cls-34{stroke:#a795b5;}.cls-35{stroke:#f27aaa;}.cls-36{fill:#a0d6b4;}</style><clipPath id="clip-path"><path class="cls-1" d="M410.05,276.33c4.33,0,5.8-2.25,3.31-5l-65.57-72.57c-2.51-2.76-8-5-12.33-5H66.34c-4.33,0-5.8,2.23-3.31,5l65.57,72.57c2.51,2.74,8,5,12.33,5Z"/></clipPath><clipPath id="clip-path-2"><path class="cls-1" d="M410.05,285.06c4.33,0,5.8-2.25,3.31-5L347.79,207.5c-2.51-2.77-8-5-12.33-5H66.34c-4.33,0-5.8,2.23-3.31,5l65.57,72.56c2.51,2.75,8,5,12.33,5Z"/></clipPath><clipPath id="clip-path-3"><path class="cls-1" d="M414.57,282.55v-8.72a3.89,3.89,0,0,0-1.21-2.49v8.72A3.93,3.93,0,0,1,414.57,282.55Z"/></clipPath><clipPath id="clip-path-4"><path class="cls-2" d="M414.57,273.83c0,1.49-1.62,2.5-4.52,2.5v8.73c2.9,0,4.52-1,4.52-2.51Z"/></clipPath><clipPath id="clip-path-5"><polygon class="cls-1" points="413.36 280.06 413.36 271.34 347.79 198.77 347.79 207.5 413.36 280.06"/></clipPath><clipPath id="clip-path-6"><path class="cls-1" d="M347.79,207.5v-8.73c-2.51-2.76-8-5-12.33-5v8.72C339.77,202.5,345.28,204.73,347.79,207.5Z"/></clipPath><clipPath id="clip-path-7"><rect class="cls-1" x="66.34" y="193.78" width="269.12" height="8.73"/></clipPath><clipPath id="clip-path-8"><path class="cls-1" d="M61.82,205A4,4,0,0,0,63,207.5v-8.73a3.93,3.93,0,0,1-1.21-2.5Z"/></clipPath><clipPath id="clip-path-9"><path class="cls-1" d="M61.82,196.27V205c0-1.49,1.62-2.5,4.52-2.5v-8.72C63.44,193.78,61.82,194.78,61.82,196.27Z"/></clipPath><clipPath id="clip-path-10"><polygon class="cls-2" points="63.03 207.5 128.6 280.06 128.6 271.34 63.03 198.77 63.03 207.5"/></clipPath><clipPath id="clip-path-11"><path class="cls-2" d="M128.6,280.06c2.51,2.75,8,5,12.33,5v-8.73c-4.31,0-9.82-2.25-12.33-5Z"/></clipPath><clipPath id="clip-path-12"><rect class="cls-2" x="140.93" y="276.33" width="269.12" height="8.73"/></clipPath><clipPath id="clip-path-13"><path class="cls-2" d="M341.39,257.22c2.61,0,3.49-1.35,2-3L304,210.65a11.31,11.31,0,0,0-7.41-3H135c-2.6,0-3.48,1.34-2,3l39.38,43.57a11.36,11.36,0,0,0,7.4,3Z"/></clipPath><clipPath id="clip-path-14"><path class="cls-2" d="M341.39,262.46c2.61,0,3.49-1.35,2-3L304,215.89a11.31,11.31,0,0,0-7.41-3H135c-2.6,0-3.48,1.34-2,3l39.38,43.57a11.36,11.36,0,0,0,7.4,3Z"/></clipPath><clipPath id="clip-path-15"><path class="cls-2" d="M344.11,261v-5.24a2.39,2.39,0,0,0-.73-1.5v5.24A2.39,2.39,0,0,1,344.11,261Z"/></clipPath><clipPath id="clip-path-16"><path class="cls-2" d="M344.11,255.72c0,.9-1,1.5-2.72,1.5v5.24c1.75,0,2.72-.61,2.72-1.5Z"/></clipPath><clipPath id="clip-path-17"><polygon class="cls-2" points="343.38 259.46 343.38 254.22 304.01 210.65 304.01 215.89 343.38 259.46"/></clipPath><clipPath id="clip-path-18"><path class="cls-2" d="M304,215.89v-5.24a11.31,11.31,0,0,0-7.41-3v5.24A11.31,11.31,0,0,1,304,215.89Z"/></clipPath><clipPath id="clip-path-19"><rect class="cls-2" x="134.99" y="207.65" width="161.61" height="5.24"/></clipPath><clipPath id="clip-path-20"><path class="cls-2" d="M132.28,214.39a2.37,2.37,0,0,0,.72,1.5v-5.24a2.37,2.37,0,0,1-.72-1.5Z"/></clipPath><clipPath id="clip-path-21"><path class="cls-2" d="M132.28,209.15v5.24c0-.9,1-1.5,2.71-1.5v-5.24C133.25,207.65,132.28,208.25,132.28,209.15Z"/></clipPath><clipPath id="clip-path-22"><polygon class="cls-2" points="133 215.89 172.38 259.46 172.38 254.22 133 210.65 133 215.89"/></clipPath><clipPath id="clip-path-23"><path class="cls-2" d="M172.38,259.46a11.36,11.36,0,0,0,7.4,3v-5.24a11.36,11.36,0,0,1-7.4-3Z"/></clipPath><clipPath id="clip-path-24"><rect class="cls-2" x="179.78" y="257.22" width="161.61" height="5.24"/></clipPath></defs><rect class="cls-3" y="-0.19" width="560" height="355" rx="36.72"/><g class="cls-4"><g class="cls-4"><path class="cls-1" d="M410.05,276.33c4.33,0,5.8-2.25,3.31-5l-65.57-72.57c-2.51-2.76-8-5-12.33-5H66.34c-4.33,0-5.8,2.23-3.31,5l65.57,72.57c2.51,2.74,8,5,12.33,5Z"/><g class="cls-5"><path class="cls-1" d="M410.05,276.33c4.33,0,5.8-2.25,3.31-5l-65.57-72.57c-2.51-2.76-8-5-12.33-5H66.34c-4.33,0-5.8,2.23-3.31,5l65.57,72.57c2.51,2.74,8,5,12.33,5Z"/></g></g><g class="cls-4"><path class="cls-1" d="M410.05,285.06c4.33,0,5.8-2.25,3.31-5L347.79,207.5c-2.51-2.77-8-5-12.33-5H66.34c-4.33,0-5.8,2.23-3.31,5l65.57,72.56c2.51,2.75,8,5,12.33,5Z"/><g class="cls-6"><path class="cls-1" d="M410.05,285.06c4.33,0,5.8-2.25,3.31-5L347.79,207.5c-2.51-2.77-8-5-12.33-5H66.34c-4.33,0-5.8,2.23-3.31,5l65.57,72.56c2.51,2.75,8,5,12.33,5Z"/></g></g><g class="cls-4"><path class="cls-1" d="M414.57,282.55v-8.72a3.89,3.89,0,0,0-1.21-2.49v8.72A3.93,3.93,0,0,1,414.57,282.55Z"/><g class="cls-7"><g class="cls-4"><path class="cls-1" d="M410.05,285.06v-8.73c4.33,0,5.8-2.25,3.31-5v8.72C415.85,282.81,414.38,285.06,410.05,285.06Z"/></g><path class="cls-1" d="M414.57,282.55v-8.72a3.89,3.89,0,0,0-1.21-2.49v8.72A3.93,3.93,0,0,1,414.57,282.55Z"/></g></g><path class="cls-2" d="M414.57,273.83c0,1.49-1.62,2.5-4.52,2.5v8.73c2.9,0,4.52-1,4.52-2.51Z"/><g class="cls-8"><g class="cls-4"><path class="cls-2" d="M410.05,285.06v-8.73c4.33,0,5.8-2.25,3.31-5v8.72C415.85,282.81,414.38,285.06,410.05,285.06Z"/><line class="cls-2" x1="413.38" y1="284.37" x2="413.38" y2="275.65"/><line class="cls-2" x1="414.57" y1="282.58" x2="414.57" y2="273.85"/></g><path class="cls-2" d="M414.57,273.83c0,1.49-1.62,2.5-4.52,2.5v8.73c2.9,0,4.52-1,4.52-2.51Z"/></g><polygon class="cls-1" points="413.36 280.06 413.36 271.34 347.79 198.77 347.79 207.5 413.36 280.06"/><g class="cls-9"><polygon class="cls-1" points="413.36 280.06 413.36 271.34 347.79 198.77 347.79 207.5 413.36 280.06"/></g><g class="cls-4"><path class="cls-1" d="M347.79,207.5v-8.73c-2.51-2.76-8-5-12.33-5v8.72C339.77,202.5,345.28,204.73,347.79,207.5Z"/><g class="cls-10"><g class="cls-4"><path class="cls-1" d="M335.46,193.78v8.72C339.77,202.5,339.77,193.78,335.46,193.78Z"/><line class="cls-1" x1="344.43" y1="204.98" x2="344.43" y2="196.25"/><line class="cls-1" x1="340.01" y1="203.18" x2="340.01" y2="194.46"/></g><path class="cls-1" d="M335.46,193.78v8.72C339.77,202.5,339.77,193.78,335.46,193.78Z"/></g></g><g class="cls-4"><rect class="cls-1" x="66.34" y="193.78" width="269.12" height="8.73"/><g class="cls-11"><rect class="cls-1" x="66.34" y="193.78" width="269.12" height="8.73"/></g></g><g class="cls-4"><path class="cls-1" d="M61.82,205A4,4,0,0,0,63,207.5v-8.73a3.93,3.93,0,0,1-1.21-2.5Z"/><g class="cls-12"><g class="cls-4"><path class="cls-1" d="M66.34,202.5v-8.72c-4.33,0-5.8,2.23-3.31,5v8.73C60.54,204.73,62,202.5,66.34,202.5Z"/></g><path class="cls-1" d="M61.82,205A4,4,0,0,0,63,207.5v-8.73a3.93,3.93,0,0,1-1.21-2.5Z"/></g></g><g class="cls-4"><path class="cls-1" d="M61.82,196.27V205c0-1.49,1.62-2.5,4.52-2.5v-8.72C63.44,193.78,61.82,194.78,61.82,196.27Z"/><g class="cls-13"><g class="cls-4"><path class="cls-1" d="M66.34,202.5v-8.72c-4.33,0-5.8,2.23-3.31,5v8.73C60.54,204.73,62,202.5,66.34,202.5Z"/><line class="cls-1" x1="63" y1="203.18" x2="63" y2="194.46"/><line class="cls-1" x1="61.82" y1="204.98" x2="61.82" y2="196.25"/></g><path class="cls-1" d="M61.82,196.27V205c0-1.49,1.62-2.5,4.52-2.5v-8.72C63.44,193.78,61.82,194.78,61.82,196.27Z"/></g></g><polygon class="cls-2" points="63.03 207.5 128.6 280.06 128.6 271.34 63.03 198.77 63.03 207.5"/><g class="cls-14"><polygon class="cls-2" points="63.03 207.5 128.6 280.06 128.6 271.34 63.03 198.77 63.03 207.5"/></g><path class="cls-2" d="M128.6,280.06c2.51,2.75,8,5,12.33,5v-8.73c-4.31,0-9.82-2.25-12.33-5Z"/><g class="cls-15"><g class="cls-4"><path class="cls-2" d="M128.6,280.06v-8.72c2.51,2.74,8,5,12.33,5v8.73C136.62,285.06,131.11,282.81,128.6,280.06Z"/><line class="cls-2" x1="131.95" y1="282.58" x2="131.95" y2="273.85"/><line class="cls-2" x1="136.37" y1="284.37" x2="136.37" y2="275.65"/></g><path class="cls-2" d="M128.6,280.06c2.51,2.75,8,5,12.33,5v-8.73c-4.31,0-9.82-2.25-12.33-5Z"/></g><rect class="cls-2" x="140.93" y="276.33" width="269.12" height="8.73"/><g class="cls-16"><rect class="cls-2" x="140.93" y="276.33" width="269.12" height="8.73"/></g></g><g class="cls-4"><g class="cls-4"><path class="cls-2" d="M341.39,257.22c2.61,0,3.49-1.35,2-3L304,210.65a11.31,11.31,0,0,0-7.41-3H135c-2.6,0-3.48,1.34-2,3l39.38,43.57a11.36,11.36,0,0,0,7.4,3Z"/><g class="cls-17"><path class="cls-2" d="M341.39,257.22c2.61,0,3.49-1.35,2-3L304,210.65a11.31,11.31,0,0,0-7.41-3H135c-2.6,0-3.48,1.34-2,3l39.38,43.57a11.36,11.36,0,0,0,7.4,3Z"/></g></g><g class="cls-4"><path class="cls-2" d="M341.39,262.46c2.61,0,3.49-1.35,2-3L304,215.89a11.31,11.31,0,0,0-7.41-3H135c-2.6,0-3.48,1.34-2,3l39.38,43.57a11.36,11.36,0,0,0,7.4,3Z"/><g class="cls-18"><path class="cls-2" d="M341.39,262.46c2.61,0,3.49-1.35,2-3L304,215.89a11.31,11.31,0,0,0-7.41-3H135c-2.6,0-3.48,1.34-2,3l39.38,43.57a11.36,11.36,0,0,0,7.4,3Z"/></g></g><g class="cls-4"><path class="cls-2" d="M344.11,261v-5.24a2.39,2.39,0,0,0-.73-1.5v5.24A2.39,2.39,0,0,1,344.11,261Z"/><g class="cls-19"><g class="cls-4"><path class="cls-2" d="M341.39,262.46v-5.24c2.61,0,3.49-1.35,2-3v5.24C344.88,261.11,344,262.46,341.39,262.46Z"/></g><path class="cls-2" d="M344.11,261v-5.24a2.39,2.39,0,0,0-.73-1.5v5.24A2.39,2.39,0,0,1,344.11,261Z"/></g></g><path class="cls-2" d="M344.11,255.72c0,.9-1,1.5-2.72,1.5v5.24c1.75,0,2.72-.61,2.72-1.5Z"/><g class="cls-20"><g class="cls-4"><path class="cls-2" d="M341.39,262.46v-5.24c2.61,0,3.49-1.35,2-3v5.24C344.88,261.11,344,262.46,341.39,262.46Z"/><line class="cls-2" x1="343.4" y1="262.05" x2="343.4" y2="256.81"/><line class="cls-2" x1="344.11" y1="260.97" x2="344.11" y2="255.73"/></g><path class="cls-2" d="M344.11,255.72c0,.9-1,1.5-2.72,1.5v5.24c1.75,0,2.72-.61,2.72-1.5Z"/></g><polygon class="cls-2" points="343.38 259.46 343.38 254.22 304.01 210.65 304.01 215.89 343.38 259.46"/><g class="cls-21"><polygon class="cls-2" points="343.38 259.46 343.38 254.22 304.01 210.65 304.01 215.89 343.38 259.46"/></g><g class="cls-4"><path class="cls-2" d="M304,215.89v-5.24a11.31,11.31,0,0,0-7.41-3v5.24A11.31,11.31,0,0,1,304,215.89Z"/><g class="cls-22"><g class="cls-4"><path class="cls-2" d="M296.6,207.65v5.24C299.19,212.89,299.19,207.65,296.6,207.65Z"/><line class="cls-2" x1="301.99" y1="214.37" x2="301.99" y2="209.13"/><line class="cls-2" x1="299.34" y1="213.3" x2="299.34" y2="208.06"/></g><path class="cls-2" d="M296.6,207.65v5.24C299.19,212.89,299.19,207.65,296.6,207.65Z"/></g></g><g class="cls-4"><rect class="cls-2" x="134.99" y="207.65" width="161.61" height="5.24"/><g class="cls-23"><rect class="cls-2" x="134.99" y="207.65" width="161.61" height="5.24"/></g></g><g class="cls-4"><path class="cls-2" d="M132.28,214.39a2.37,2.37,0,0,0,.72,1.5v-5.24a2.37,2.37,0,0,1-.72-1.5Z"/><g class="cls-24"><g class="cls-4"><path class="cls-2" d="M135,212.89v-5.24c-2.6,0-3.48,1.34-2,3v5.24C131.51,214.23,132.39,212.89,135,212.89Z"/></g><path class="cls-2" d="M132.28,214.39a2.37,2.37,0,0,0,.72,1.5v-5.24a2.37,2.37,0,0,1-.72-1.5Z"/></g></g><g class="cls-4"><path class="cls-2" d="M132.28,209.15v5.24c0-.9,1-1.5,2.71-1.5v-5.24C133.25,207.65,132.28,208.25,132.28,209.15Z"/><g class="cls-25"><g class="cls-4"><path class="cls-2" d="M135,212.89v-5.24c-2.6,0-3.48,1.34-2,3v5.24C131.51,214.23,132.39,212.89,135,212.89Z"/><line class="cls-2" x1="132.99" y1="213.3" x2="132.99" y2="208.06"/><line class="cls-2" x1="132.28" y1="214.37" x2="132.28" y2="209.13"/></g><path class="cls-2" d="M132.28,209.15v5.24c0-.9,1-1.5,2.71-1.5v-5.24C133.25,207.65,132.28,208.25,132.28,209.15Z"/></g></g><polygon class="cls-2" points="133 215.89 172.38 259.46 172.38 254.22 133 210.65 133 215.89"/><g class="cls-26"><polygon class="cls-2" points="133 215.89 172.38 259.46 172.38 254.22 133 210.65 133 215.89"/></g><path class="cls-2" d="M172.38,259.46a11.36,11.36,0,0,0,7.4,3v-5.24a11.36,11.36,0,0,1-7.4-3Z"/><g class="cls-27"><g class="cls-4"><path class="cls-2" d="M172.38,259.46v-5.24a11.36,11.36,0,0,0,7.4,3v5.24A11.36,11.36,0,0,1,172.38,259.46Z"/><line class="cls-2" x1="174.39" y1="260.97" x2="174.39" y2="255.73"/><line class="cls-2" x1="177.05" y1="262.05" x2="177.05" y2="256.81"/></g><path class="cls-2" d="M172.38,259.46a11.36,11.36,0,0,0,7.4,3v-5.24a11.36,11.36,0,0,1-7.4-3Z"/></g><rect class="cls-2" x="179.78" y="257.22" width="161.61" height="5.24"/><g class="cls-28"><rect class="cls-2" x="179.78" y="257.22" width="161.61" height="5.24"/></g></g><rect class="cls-1" x="61.78" y="26.4" width="284.75" height="161.67" rx="6.39" transform="translate(408.31 214.47) rotate(-180)"/><rect class="cls-29" x="72.8" y="40.97" width="262.7" height="132.54" rx="5.56" transform="translate(408.31 214.47) rotate(-180)"/><rect class="cls-30" x="380.56" y="56.67" width="134.64" height="101.13" rx="5.98"/><rect class="cls-30" x="393.23" y="70.8" width="131.56" height="79.32" rx="5.24"/><rect class="cls-31" x="463.48" y="111.25" width="22.51" height="22.51" rx="0.89"/><rect class="cls-31" x="404.76" y="63.41" width="43.79" height="7.39" rx="0.5"/><rect class="cls-31" x="453.41" y="63.41" width="53.71" height="7.39" rx="0.5"/><rect class="cls-31" x="377.53" y="122.34" width="27.99" height="22.51" rx="0.99"/><rect class="cls-31" x="374.66" y="120.56" width="11.27" height="26.08" rx="0.68"/><rect class="cls-31" x="421.02" y="146.42" width="53.71" height="7.39" rx="0.5"/><rect class="cls-31" x="480.27" y="146.42" width="26.86" height="7.39" rx="0.5"/><circle class="cls-3" cx="412.35" cy="150.12" r="2.72"/><circle class="cls-3" cx="519.17" cy="144.85" r="2.72"/><circle class="cls-3" cx="519.17" cy="76.25" r="2.72"/><rect class="cls-32" x="365.76" y="76.99" width="27.47" height="17.64" rx="1"/><text class="cls-33" transform="translate(87.43 76.1)">&lt;/&gt;</text><rect class="cls-2" x="107.9" y="187.34" width="192.6" height="8.02" rx="3.3" transform="translate(408.39 382.7) rotate(-180)"/><line class="cls-34" x1="89.66" y1="88.19" x2="148.3" y2="88.19"/><line class="cls-34" x1="178.91" y1="88.19" x2="197.89" y2="88.19"/><line class="cls-35" x1="159.58" y1="88.19" x2="169.79" y2="88.19"/><line class="cls-35" x1="113.08" y1="96.98" x2="168.82" y2="96.98"/><line class="cls-35" x1="89.66" y1="96.98" x2="106.09" y2="96.98"/><line class="cls-34" x1="177.42" y1="96.98" x2="236.06" y2="96.98"/><line class="cls-34" x1="89.66" y1="104.89" x2="148.3" y2="104.89"/><line class="cls-35" x1="108.36" y1="117.26" x2="148.3" y2="117.26"/><line class="cls-34" x1="89.66" y1="117.26" x2="101.37" y2="117.26"/><line class="cls-34" x1="103.47" y1="125.3" x2="159.58" y2="125.3"/><line class="cls-35" x1="89.66" y1="125.3" x2="96.49" y2="125.3"/><line class="cls-35" x1="89.66" y1="136.44" x2="115.42" y2="136.44"/><line class="cls-34" x1="89.66" y1="144.91" x2="106.09" y2="144.91"/><line class="cls-34" x1="108.36" y1="152.82" x2="148.3" y2="152.82"/><line class="cls-34" x1="89.66" y1="152.82" x2="101.37" y2="152.82"/><line class="cls-35" x1="89.66" y1="160.73" x2="145.41" y2="160.73"/><line class="cls-34" x1="206.74" y1="88.19" x2="265.38" y2="88.19"/><line class="cls-35" x1="122.11" y1="136.44" x2="134.76" y2="136.44"/><line class="cls-34" x1="141.98" y1="136.44" x2="196.45" y2="136.44"/><path class="cls-36" d="M90.84,262.5a39.37,39.37,0,0,1-55.62-3.08A39.36,39.36,0,0,1,90.84,262.5Z"/><path class="cls-36" d="M52.9,328.23a53.74,53.74,0,0,1,50.48-56.89A53.76,53.76,0,0,1,52.9,328.23Z"/><path class="cls-36" d="M456.28,266.88a70.74,70.74,0,0,1,59.42-80.57A70.75,70.75,0,0,1,456.28,266.88Z"/><path class="cls-36" d="M449.86,239.46a39.37,39.37,0,0,1-29.68-47.15A39.38,39.38,0,0,1,449.86,239.46Z"/></svg>